{
.appVersion = "3509";
.formatVersion = 3;
axes = (
{
name = Weight;
tag = wght;
}
);
classes = (
{
automatic = 1;

glyphs = (
{
glyphname = A;
kernLeft = A;
kernRight = A;
layers = (
{
anchors = (
{
name = bottom;
pos = (403,0);
},
{
name = ogonek;
pos = (695,0);
},
{
name = top;
pos = (405,684);
}
);
hints = (
{
name = _corner.caps_diag;
options = 1;
origin = (0,4);
scale = (-1,1);
type = Corner;
}
);
layerId = "49C16FD3-6177-408B-A733-AEB3898BB77C";
shapes = (
{
closed = 1;
nodes = (
(695,0,l,{
"Letterink-NibData" = {
AngleInDegrees = 337.30364;
};
}),
(408,692,l,{
"Letterink-NibData" = {
AngleInDegrees = 270;
};
}),
(402,692,l,{
"Letterink-NibData" = {
AngleInDegrees = 202.68401;
};
}),
(141,60,l,{
"Letterink-NibData" = {
AngleInDegrees = 202.61986;
};
}),
(176,45,l,{
"Letterink-NibData" = {
AngleInDegrees = 22.1315;
};
}),
(261,251,l,{
"Letterink-NibData" = {
AngleInDegrees = 235.7843;
};
}),
(232,234,l,{
"Letterink-NibData" = {
AngleInDegrees = 90;
};
}),
(573,234,l,{
"Letterink-NibData" = {
AngleInDegrees = 304.2157;
};
}),
(550,251,l,{
"Letterink-NibData" = {
AngleInDegrees = 157.41269;
};
}),
(654,0,l,{
"Letterink-NibData" = {
AngleInDegrees = 90;
};
})
);
},
{
closed = 1;
nodes = (
(396,584,l,{
"Letterink-NibData" = {
AngleInDegrees = 16.29405;
};
}),
(405,617,l,{
"Letterink-NibData" = {
AngleInDegrees = 163.21735;
};
}),
(414,584,l,{
"Letterink-NibData" = {
AngleInDegrees = 158.19859;
};
}),
(547,257,l,{
"Letterink-NibData" = {
AngleInDegrees = 32.90524;
};
}),
(556,270,l,{
"Letterink-NibData" = {
AngleInDegrees = 270;
};
}),
(247,270,l,{
"Letterink-NibData" = {
AngleInDegrees = 147.09476;
};
}),
(263,257,l,{
"Letterink-NibData" = {
AngleInDegrees = 22.09423;
};
})
);
}
);
width = 718;
},
{
anchors = (
{
name = bottom;
pos = (424,0);
},
{
name = ogonek;
pos = (759,0);
},
{
name = top;
pos = (423,684);
}
);
hints = (
{
name = _corner.caps_diag;
options = 1;
origin = (0,4);
scale = (-1,1);
type = Corner;
}
);
layerId = m004;
shapes = (
{
closed = 1;
nodes = (
(759,0,l,{
"Letterink-NibData" = {
AngleInDegrees = "337.32254";
};
}),
(481,689,l,{
"Letterink-NibData" = {
AngleInDegrees = "270";
};
}),
(370,689,l,{
"Letterink-NibData" = {
AngleInDegrees = "202.53914";
};
}),
(146,140,l,{
"Letterink-NibData" = {
AngleInDegrees = "90";
};
}),
(286,62,l,{
"Letterink-NibData" = {
AngleInDegrees = "22.65189";
};
}),
(366,257,l,{
"Letterink-NibData" = {
AngleInDegrees = "236.57519";
};
}),
(270,141,l,{
"Letterink-NibData" = {
AngleInDegrees = "90";
};
}),
(580,141,l,{
"Letterink-NibData" = {
AngleInDegrees = "303.42481";
};
}),
(479,257,l,{
"Letterink-NibData" = {
AngleInDegrees = "156.96496";
};
}),
(580,0,l,{
"Letterink-NibData" = {
AngleInDegrees = "90";
};
})
);
},
{
closed = 1;
nodes = (
(448,490,l,{
"Letterink-NibData" = {
AngleInDegrees = "19.98311";
};
}),
(424,504,l,{
"Letterink-NibData" = {
AngleInDegrees = "161.56505";
};
}),
(401,490,l,{
"Letterink-NibData" = {
AngleInDegrees = "158.35875";
};
}),
(475,272,l,{
"Letterink-NibData" = {
AngleInDegrees = "34.87533";
};
}),
(518,279,l,{
"Letterink-NibData" = {
AngleInDegrees = "270";
};
}),
(327,279,l,{
"Letterink-NibData" = {
AngleInDegrees = "145.92281";
};
}),
(373,268,l,{
"Letterink-NibData" = {
AngleInDegrees = "21.36191";
};
})
);
}
);
width = 756;
},
{
anchors = (
{
name = bottom;
pos = (398,0);
},
{
name = ogonek;
pos = (700,0);
},
{
name = top;
pos = (397,686);
}
);
hints = (
{
name = _corner.caps_diag;
options = 1;
origin = (0,4);
scale = (-1,1);
type = Corner;
}
);
layerId = "BDC4F23E-8387-43BA-9F0D-D808B5DC489D";
shapes = (
{
closed = 1;
nodes = (
(700,0,l,{
"Letterink-NibData" = {
AngleInDegrees = 337.30364;
};
}),
(413,690,l,{
"Letterink-NibData" = {
AngleInDegrees = 270;
};
}),
(385,690,l,{
"Letterink-NibData" = {
AngleInDegrees = 202.68401;
};
}),
(135,78,l,{
"Letterink-NibData" = {
AngleInDegrees = 202.61986;
};
}),
(198,51,l,{
"Letterink-NibData" = {
AngleInDegrees = 22.1315;
};
}),
(280,253,l,{
"Letterink-NibData" = {
AngleInDegrees = 235.7843;
};
}),
(231,212,l,{
"Letterink-NibData" = {
AngleInDegrees = 90;
};
}),
(565,212,l,{
"Letterink-NibData" = {
AngleInDegrees = 304.2157;
};
}),
(521,253,l,{
"Letterink-NibData" = {
AngleInDegrees = 157.41269;
};
}),
(627,0,l,{
"Letterink-NibData" = {
AngleInDegrees = 90;
};
})
);
},
{
closed = 1;
nodes = (
(395,552,l,{
"Letterink-NibData" = {
AngleInDegrees = 16.29405;
};
}),
(400,577,l,{
"Letterink-NibData" = {
AngleInDegrees = 163.21735;
};
}),
(405,552,l,{
"Letterink-NibData" = {
AngleInDegrees = 158.19859;
};
}),
(516,259,l,{
"Letterink-NibData" = {
AngleInDegrees = 32.90524;
};
}),
(535,277,l,{
"Letterink-NibData" = {
AngleInDegrees = 270;
};
}),
(258,277,l,{
"Letterink-NibData" = {
AngleInDegrees = 147.09476;
};
}),
(283,259,l,{
"Letterink-NibData" = {
AngleInDegrees = 22.09423;
};
})
);
}
);
width = 718;
}
);
unicode = 65;
userData = {
position = 666;
width = 20;
};
},
{
glyphname = A.ss01;
kernLeft = Atext;
kernRight = A;
layers = (
{
anchors = (
{
name = bottom;
pos = (324,-2);
},
{
name = ogonek;
pos = (626,0);
},
{
name = top;
pos = (323,684);
}
);
layerId = "49C16FD3-6177-408B-A733-AEB3898BB77C";
shapes = (
{
closed = 1;
nodes = (
(64,0,l,{
"Letterink-NibData" = {
AngleInDegrees = 22.78241;
};
}),
(168,251,l,{
"Letterink-NibData" = {
AngleInDegrees = 235.7843;
};
}),
(147,236,l,{
"Letterink-NibData" = {
AngleInDegrees = 90;
};
}),
(500,236,l,{
"Letterink-NibData" = {
AngleInDegrees = 304.2157;
};
}),
(479,251,l,{
"Letterink-NibData" = {
AngleInDegrees = 157.02305;
};
}),
(585,0,l,{
"Letterink-NibData" = {
AngleInDegrees = 90;
};
}),
(626,0,l,{
"Letterink-NibData" = {
AngleInDegrees = 336.95898;
};
}),
(328,699,l,{
"Letterink-NibData" = {
AngleInDegrees = 270;
};
}),
(319,699,l,{
"Letterink-NibData" = {
AngleInDegrees = 202.90284;
};
}),
(23,0,l,{
"Letterink-NibData" = {
AngleInDegrees = 90;
};
})
);
},
{
closed = 1;
nodes = (
(310,585,l,{
"Letterink-NibData" = {
AngleInDegrees = 22.61986;
};
}),
(324,627,l,{
"Letterink-NibData" = {
AngleInDegrees = 160.34617;
};
}),
(337,587,l,{
"Letterink-NibData" = {
AngleInDegrees = 157.39526;
};
}),
(476,257,l,{
"Letterink-NibData" = {
AngleInDegrees = 32.90524;
};
}),
(486,272,l,{
"Letterink-NibData" = {
AngleInDegrees = 270;
};
}),
(161,272,l,{
"Letterink-NibData" = {
AngleInDegrees = 147.09476;
};
}),
(171,257,l,{
"Letterink-NibData" = {
AngleInDegrees = 22.96683;
};
})
);
}
);
width = 649;
},
{
anchors = (
{
name = bottom;
pos = (338,0);
},
{
name = ogonek;
pos = (678,0);
},
{
name = top;
pos = (337,694);
}
);
layerId = m004;
shapes = (
{
closed = 1;
nodes = (
(178,0,l,{
"Letterink-NibData" = {
AngleInDegrees = 22.65189;
};
}),
(283,257,l,{
"Letterink-NibData" = {
AngleInDegrees = 236.57519;
};
}),
(182,136,l,{
"Letterink-NibData" = {
AngleInDegrees = 90;
};
}),
(492,136,l,{
"Letterink-NibData" = {
AngleInDegrees = 303.42481;
};
}),
(391,257,l,{
"Letterink-NibData" = {
AngleInDegrees = 156.96496;
};
}),
(499,0,l,{
"Letterink-NibData" = {
AngleInDegrees = 90;
};
}),
(678,0,l,{
"Letterink-NibData" = {
AngleInDegrees = 337.32254;
};
}),
(384,694,l,{
"Letterink-NibData" = {
AngleInDegrees = 270;
};
}),
(298,694,l,{
"Letterink-NibData" = {
AngleInDegrees = 202.53914;
};
}),
(-3,0,l,{
"Letterink-NibData" = {
AngleInDegrees = 90;
};
})
);
},
{
closed = 1;
nodes = (
(350,475,l,{
"Letterink-NibData" = {
AngleInDegrees = 19.98311;
};
}),
(336,484,l,{
"Letterink-NibData" = {
AngleInDegrees = 161.56505;
};
}),
(318,475,l,{
"Letterink-NibData" = {
AngleInDegrees = 158.35875;
};
}),
(384,272,l,{
"Letterink-NibData" = {
AngleInDegrees = 34.87533;
};
}),
(430,274,l,{
"Letterink-NibData" = {
AngleInDegrees = 270;
};
}),
(239,274,l,{
"Letterink-NibData" = {
AngleInDegrees = 145.92281;
};
}),
(289,268,l,{
"Letterink-NibData" = {
AngleInDegrees = 21.36191;
};
})
);
}
);
width = 675;
},
{
anchors = (
{
name = bottom;
pos = (326,0);
},
{
name = ogonek;
pos = (635,-1);
},
{
name = top;
pos = (326,689);
}
);
layerId = "BDC4F23E-8387-43BA-9F0D-D808B5DC489D";
shapes = (
{
closed = 1;
nodes = (
(96,0,l,{
"Letterink-NibData" = {
AngleInDegrees = 22.78241;
};
}),
(201,253,l,{
"Letterink-NibData" = {
AngleInDegrees = 235.7843;
};
}),
(157,216,l,{
"Letterink-NibData" = {
AngleInDegrees = 90;
};
}),
(494,216,l,{
"Letterink-NibData" = {
AngleInDegrees = 304.2157;
};
}),
(451,253,l,{
"Letterink-NibData" = {
AngleInDegrees = 157.02305;
};
}),
(557,0,l,{
"Letterink-NibData" = {
AngleInDegrees = 90;
};
}),
(635,0,l,{
"Letterink-NibData" = {
AngleInDegrees = 336.95898;
};
}),
(339,701,l,{
"Letterink-NibData" = {
AngleInDegrees = 270;
};
}),
(312,701,l,{
"Letterink-NibData" = {
AngleInDegrees = 202.90284;
};
}),
(18,0,l,{
"Letterink-NibData" = {
AngleInDegrees = 90;
};
})
);
},
{
closed = 1;
nodes = (
(314,528,l,{
"Letterink-NibData" = {
AngleInDegrees = 22.61986;
};
}),
(325,566,l,{
"Letterink-NibData" = {
AngleInDegrees = 160.34617;
};
}),
(337,528,l,{
"Letterink-NibData" = {
AngleInDegrees = 157.39526;
};
}),
(445,259,l,{
"Letterink-NibData" = {
AngleInDegrees = 32.90524;
};
}),
(467,281,l,{
"Letterink-NibData" = {
AngleInDegrees = 270;
};
}),
(184,281,l,{
"Letterink-NibData" = {
AngleInDegrees = 147.09476;
};
}),
(206,259,l,{
"Letterink-NibData" = {
AngleInDegrees = 22.96683;
};
})
);
}
);
width = 653;
}
);
metricLeft = "=|A";
metricRight = A;
userData = {
position = 10;
width = 615;
};
},
{
glyphname = A.swsh;
kernLeft = A.swsh;
kernRight = A;
layers = (
{
anchors = (
{
name = bottom;
pos = (446,0);
},
{
name = ogonek;
pos = (738,1);
},
{
name = top;
pos = (447,684);
}
);
hints = (
{
name = _corner.caps_swash_diag;
options = 1;
origin = (0,4);
scale = (-1,1);
type = Corner;
},
{
name = _corner.caps_swash.big;
origin = (2,2);
type = Corner;
}
);
layerId = "49C16FD3-6177-408B-A733-AEB3898BB77C";
shapes = (
{
closed = 1;
nodes = (
(738,0,l,{
"Letterink-NibData" = {
AngleInDegrees = "337.30364";
};
}),
(451,684,l,{
"Letterink-NibData" = {
AngleInDegrees = "270";
};
}),
(442,684,l,{
"Letterink-NibData" = {
AngleInDegrees = "202.68401";
};
}),
(180,70,l,{
"Letterink-NibData" = {
AngleInDegrees = "202.61986";
};
}),
(215,54,l,{
"Letterink-NibData" = {
AngleInDegrees = "22.1315";
};
}),
(297,251,l,{
"Letterink-NibData" = {
AngleInDegrees = "235.7843";
};
}),
(275,234,l,{
"Letterink-NibData" = {
AngleInDegrees = "90";
};
}),
(616,234,l,{
"Letterink-NibData" = {
AngleInDegrees = "304.2157";
};
}),
(594,251,l,{
"Letterink-NibData" = {
AngleInDegrees = "157.41269";
};
}),
(697,0,l,{
"Letterink-NibData" = {
AngleInDegrees = "90";
};
})
);
},
{
closed = 1;
nodes = (
(433,576,l,{
"Letterink-NibData" = {
AngleInDegrees = "16.29405";
};
}),
(446,619,l,{
"Letterink-NibData" = {
AngleInDegrees = "163.21735";
};
}),
(460,576,l,{
"Letterink-NibData" = {
AngleInDegrees = "158.19859";
};
}),
(590,257,l,{
"Letterink-NibData" = {
AngleInDegrees = "32.90524";
};
}),
(599,270,l,{
"Letterink-NibData" = {
AngleInDegrees = "270";
};
}),
(290,270,l,{
"Letterink-NibData" = {
AngleInDegrees = "147.09476";
};
}),
(300,257,l,{
"Letterink-NibData" = {
AngleInDegrees = "22.09423";
};
})
);
},
{
closed = 1;
nodes = (
(445,648,l),
(445,684,l,{
"Letterink-NibData" = {
AngleInDegrees = "270";
};
}),
(302,684,l,{
"Letterink-NibData" = {
AngleInDegrees = "180";
};
}),
(302,648,l,{
"Letterink-NibData" = {
AngleInDegrees = "90";
};
})
);
}
);
width = 761;
},
{
anchors = (
{
name = bottom;
pos = (508,0);
},
{
name = ogonek;
pos = (850,0);
},
{
name = top;
pos = (507,694);
}
);
hints = (
{
name = _corner.caps_swash_diag;
options = 1;
origin = (0,4);
scale = (-1,1);
type = Corner;
},
{
name = _corner.caps_swash.big;
origin = (2,2);
type = Corner;
}
);
layerId = m004;
shapes = (
{
closed = 1;
nodes = (
(850,0,l,{
"Letterink-NibData" = {
AngleInDegrees = "337.32254";
};
}),
(582,684,l,{
"Letterink-NibData" = {
AngleInDegrees = "270";
};
}),
(436,684,l,{
"Letterink-NibData" = {
AngleInDegrees = "202.53914";
};
}),
(217,142,l,{
"Letterink-NibData" = {
AngleInDegrees = "90";
};
}),
(363,66,l,{
"Letterink-NibData" = {
AngleInDegrees = "22.65189";
};
}),
(446,257,l,{
"Letterink-NibData" = {
AngleInDegrees = "236.57519";
};
}),
(354,146,l,{
"Letterink-NibData" = {
AngleInDegrees = "90";
};
}),
(664,146,l,{
"Letterink-NibData" = {
AngleInDegrees = "303.42481";
};
}),
(567,257,l,{
"Letterink-NibData" = {
AngleInDegrees = "156.96496";
};
}),
(675,0,l,{
"Letterink-NibData" = {
AngleInDegrees = "90";
};
})
);
},
{
closed = 1;
nodes = (
(520,480,l,{
"Letterink-NibData" = {
AngleInDegrees = "19.98311";
};
}),
(508,484,l,{
"Letterink-NibData" = {
AngleInDegrees = "161.56505";
};
}),
(495,480,l,{
"Letterink-NibData" = {
AngleInDegrees = "158.35875";
};
}),
(562,272,l,{
"Letterink-NibData" = {
AngleInDegrees = "34.87533";
};
}),
(602,284,l,{
"Letterink-NibData" = {
AngleInDegrees = "270";
};
}),
(411,284,l,{
"Letterink-NibData" = {
AngleInDegrees = "145.92281";
};
}),
(449,274,l,{
"Letterink-NibData" = {
AngleInDegrees = "21.36191";
};
})
);
},
{
closed = 1;
nodes = (
(544,536,l),
(544,684,l,{
"Letterink-NibData" = {
AngleInDegrees = "270";
};
}),
(322,684,l,{
"Letterink-NibData" = {
AngleInDegrees = "180";
};
}),
(322,535,l)
);
}
);
width = 847;
},
{
anchors = (
{
name = bottom;
pos = (448,0);
},
{
name = ogonek;
pos = (753,0);
},
{
name = top;
pos = (447,684);
}
);
hints = (
{
name = _corner.caps_swash_diag;
options = 1;
origin = (0,4);
scale = (-1,1);
type = Corner;
},
{
name = _corner.caps_swash.big;
origin = (2,2);
type = Corner;
}
);
layerId = "BDC4F23E-8387-43BA-9F0D-D808B5DC489D";
shapes = (
{
closed = 1;
nodes = (
(753,0,l,{
"Letterink-NibData" = {
AngleInDegrees = "337.30364";
};
}),
(467,684,l,{
"Letterink-NibData" = {
AngleInDegrees = "270";
};
}),
(429,684,l,{
"Letterink-NibData" = {
AngleInDegrees = "202.68401";
};
}),
(177,81,l,{
"Letterink-NibData" = {
AngleInDegrees = "202.61986";
};
}),
(243,53,l,{
"Letterink-NibData" = {
AngleInDegrees = "22.1315";
};
}),
(325,253,l,{
"Letterink-NibData" = {
AngleInDegrees = "235.7843";
};
}),
(281,215,l,{
"Letterink-NibData" = {
AngleInDegrees = "90";
};
}),
(615,215,l,{
"Letterink-NibData" = {
AngleInDegrees = "304.2157";
};
}),
(571,253,l,{
"Letterink-NibData" = {
AngleInDegrees = "157.41269";
};
}),
(675,0,l,{
"Letterink-NibData" = {
AngleInDegrees = "90";
};
})
);
},
{
closed = 1;
nodes = (
(440,549,l,{
"Letterink-NibData" = {
AngleInDegrees = "16.29405";
};
}),
(447,582,l,{
"Letterink-NibData" = {
AngleInDegrees = "163.21735";
};
}),
(456,549,l,{
"Letterink-NibData" = {
AngleInDegrees = "158.19859";
};
}),
(566,259,l,{
"Letterink-NibData" = {
AngleInDegrees = "32.90524";
};
}),
(585,281,l,{
"Letterink-NibData" = {
AngleInDegrees = "270";
};
}),
(307,281,l,{
"Letterink-NibData" = {
AngleInDegrees = "147.09476";
};
}),
(328,259,l,{
"Letterink-NibData" = {
AngleInDegrees = "22.09423";
};
})
);
},
{
closed = 1;
nodes = (
(456,617,l),
(456,684,l,{
"Letterink-NibData" = {
AngleInDegrees = "270";
};
}),
(305,684,l,{
"Letterink-NibData" = {
AngleInDegrees = "180";
};
}),
(305,617,l,{
"Letterink-NibData" = {
AngleInDegrees = "90";
};
})
);
}
);
width = 771;
}
);
metricRight = A;
userData = {
position = 666;
width = 20;
};
},
{
glyphname = AE;
kernLeft = A;
kernRight = E;
layers = (
{
anchors = (
{
name = bottom;
pos = (552,0);
},
{
name = top;
pos = (594,684);
}
);
hints = (
{
name = _corner.caps_diag;
options = 1;
origin = (0,12);
scale = (-1,1);
type = Corner;
}
);
layerId = "49C16FD3-6177-408B-A733-AEB3898BB77C";
shapes = (
{
closed = 1;
nodes = (
(925,1,l),
(925,37,l,{
"Letterink-NibData" = {
AngleInDegrees = 270;
};
}),
(546,37,l),
(546,346,l,{
"Letterink-NibData" = {
AngleInDegrees = 90;
};
}),
(801,346,l),
(801,382,l,{
"Letterink-NibData" = {
AngleInDegrees = 270;
};
}),
(546,382,l),
(546,649,l,{
"Letterink-NibData" = {
AngleInDegrees = 90;
};
}),
(905,649,l),
(905,685,l,{
"Letterink-NibData" = {
AngleInDegrees = 270;
};
}),
(483,685,l,{
"Letterink-NibData" = {
AngleInDegrees = 208.82166;
};
}),
(144,62,l,{
"Letterink-NibData" = {
AngleInDegrees = 213.69007;
};
}),
(177,44,l,{
"Letterink-NibData" = {
AngleInDegrees = 29.29136;
};
}),
(283,249,l,{
"Letterink-NibData" = {
AngleInDegrees = 90;
};
}),
(260,237,l,{
"Letterink-NibData" = {
AngleInDegrees = 90;
};
}),
(524,237,l,{
"Letterink-NibData" = {
AngleInDegrees = 180;
};
}),
(508,253,l,{
"Letterink-NibData" = {
AngleInDegrees = 180;
};
}),
(508,1,l,{
"Letterink-NibData" = {
AngleInDegrees = 90;
};
})
);
},
{
closed = 1;
nodes = (
(524,273,l,{
"Letterink-NibData" = {
AngleInDegrees = 270;
};
}),
(278,273,l,{
"Letterink-NibData" = {
AngleInDegrees = 28.59795;
};
}),
(292,259,l,{
"Letterink-NibData" = {
AngleInDegrees = 28.59795;
};
}),
(491,625,l,{
"Letterink-NibData" = {
AngleInDegrees = 27.32389;
};
}),
(508,653,l,{
"Letterink-NibData" = {
AngleInDegrees = 179.84962;
};
}),
(508,257,l,{
"Letterink-NibData" = {
AngleInDegrees = 270;
};
})
);
}
);
width = 951;
},
{
anchors = (
{
name = bottom;
pos = (614,0);
},
{
name = top;
pos = (625,684);
}
);
hints = (
{
name = _corner.caps_diag;
options = 1;
origin = (0,12);
scale = (-1,1);
type = Corner;
}
);
layerId = m004;
shapes = (
{
closed = 1;
nodes = (
(957,0,l),
(957,148,l,{
"Letterink-NibData" = {
AngleInDegrees = "270";
};
}),
(658,148,l),
(658,281,l,{
"Letterink-NibData" = {
AngleInDegrees = "90";
};
}),
(847,281,l),
(847,419,l,{
"Letterink-NibData" = {
AngleInDegrees = "270";
};
}),
(658,419,l),
(658,536,l,{
"Letterink-NibData" = {
AngleInDegrees = "90";
};
}),
(937,536,l),
(937,684,l,{
"Letterink-NibData" = {
AngleInDegrees = "270";
};
}),
(438,684,l,{
"Letterink-NibData" = {
AngleInDegrees = "209.70894";
};
}),
(144,137,l,{
"Letterink-NibData" = {
AngleInDegrees = "89.3704";
};
}),
(286,63,l,{
"Letterink-NibData" = {
AngleInDegrees = "28.81079";
};
}),
(386,256,l,{
"Letterink-NibData" = {
AngleInDegrees = "90";
};
}),
(294,146,l,{
"Letterink-NibData" = {
AngleInDegrees = "90";
};
}),
(563,146,l,{
"Letterink-NibData" = {
AngleInDegrees = "180";
};
}),
(493,264,l,{
"Letterink-NibData" = {
AngleInDegrees = "180";
};
}),
(493,0,l,{
"Letterink-NibData" = {
AngleInDegrees = "90";
};
})
);
},
{
closed = 1;
nodes = (
(563,284,l,{
"Letterink-NibData" = {
AngleInDegrees = "270";
};
}),
(375,284,l,{
"Letterink-NibData" = {
AngleInDegrees = "28.68615";
};
}),
(407,279,l,{
"Letterink-NibData" = {
AngleInDegrees = "28.68615";
};
}),
(498,488,l,{
"Letterink-NibData" = {
AngleInDegrees = "23.62938";
};
}),
(493,449,l,{
"Letterink-NibData" = {
AngleInDegrees = "180";
};
}),
(493,275,l,{
"Letterink-NibData" = {
AngleInDegrees = "270";
};
})
);
}
);
width = 978;
},
{
anchors = (
{
name = bottom;
pos = (538,0);
},
{
name = top;
pos = (556,676);
}
);
hints = (
{
name = _corner.caps_diag;
options = 1;
origin = (0,12);
scale = (-1,1);
type = Corner;
}
);
layerId = "BDC4F23E-8387-43BA-9F0D-D808B5DC489D";
shapes = (
{
closed = 1;
nodes = (
(914,-1,l),
(914,66,l,{
"Letterink-NibData" = {
AngleInDegrees = 270;
};
}),
(553,66,l),
(553,330,l,{
"Letterink-NibData" = {
AngleInDegrees = 90;
};
}),
(794,330,l),
(794,397,l,{
"Letterink-NibData" = {
AngleInDegrees = 270;
};
}),
(553,397,l),
(553,619,l,{
"Letterink-NibData" = {
AngleInDegrees = 90;
};
}),
(894,619,l),
(894,686,l,{
"Letterink-NibData" = {
AngleInDegrees = 270;
};
}),
(455,686,l,{
"Letterink-NibData" = {
AngleInDegrees = 208.82166;
};
}),
(139,77,l,{
"Letterink-NibData" = {
AngleInDegrees = 213.69007;
};
}),
(197,39,l,{
"Letterink-NibData" = {
AngleInDegrees = 29.29136;
};
}),
(305,251,l,{
"Letterink-NibData" = {
AngleInDegrees = 90;
};
}),
(253,216,l,{
"Letterink-NibData" = {
AngleInDegrees = 90;
};
}),
(513,216,l,{
"Letterink-NibData" = {
AngleInDegrees = 180;
};
}),
(481,255,l,{
"Letterink-NibData" = {
AngleInDegrees = 180;
};
}),
(481,-1,l,{
"Letterink-NibData" = {
AngleInDegrees = 90;
};
})
);
},
{
closed = 1;
nodes = (
(513,283,l,{
"Letterink-NibData" = {
AngleInDegrees = 270;
};
}),
(291,283,l,{
"Letterink-NibData" = {
AngleInDegrees = 28.59795;
};
}),
(310,263,l,{
"Letterink-NibData" = {
AngleInDegrees = 28.59795;
};
}),
(464,557,l,{
"Letterink-NibData" = {
AngleInDegrees = 27.32389;
};
}),
(481,601,l,{
"Letterink-NibData" = {
AngleInDegrees = 179.84962;
};
}),
(481,259,l,{
"Letterink-NibData" = {
AngleInDegrees = 270;
};
})
);
}
);
width = 941;
}
);
unicode = 198;
userData = {
position = 422;
width = 61;
};
},
{
glyphname = AE.ss01;
kernLeft = Atext;
kernRight = E;
layers = (
{
anchors = (
{
name = bottom;
pos = (456,0);
},
{
name = top;
pos = (529,684);
}
);
layerId = "49C16FD3-6177-408B-A733-AEB3898BB77C";
shapes = (
{
closed = 1;
nodes = (
(67,1,l,{
"Letterink-NibData" = {
AngleInDegrees = 28.2127;
};
}),
(200,250,l,{
"Letterink-NibData" = {
AngleInDegrees = 90;
};
}),
(166,236,l,{
"Letterink-NibData" = {
AngleInDegrees = 90;
};
}),
(428,236,l,{
"Letterink-NibData" = {
AngleInDegrees = 180;
};
}),
(411,252,l,{
"Letterink-NibData" = {
AngleInDegrees = 180;
};
}),
(411,1,l,{
"Letterink-NibData" = {
AngleInDegrees = 90;
};
}),
(832,1,l),
(832,37,l,{
"Letterink-NibData" = {
AngleInDegrees = 270;
};
}),
(449,37,l),
(449,346,l,{
"Letterink-NibData" = {
AngleInDegrees = 90;
};
}),
(709,346,l),
(709,382,l,{
"Letterink-NibData" = {
AngleInDegrees = 270;
};
}),
(449,382,l),
(449,649,l,{
"Letterink-NibData" = {
AngleInDegrees = 90;
};
}),
(812,649,l),
(812,685,l,{
"Letterink-NibData" = {
AngleInDegrees = 270;
};
}),
(394,685,l,{
"Letterink-NibData" = {
AngleInDegrees = 208.86222;
};
}),
(23,1,l,{
"Letterink-NibData" = {
AngleInDegrees = 90;
};
})
);
},
{
closed = 1;
nodes = (
(428,272,l,{
"Letterink-NibData" = {
AngleInDegrees = 270;
};
}),
(182,272,l,{
"Letterink-NibData" = {
AngleInDegrees = 28.9193;
};
}),
(205,257,l,{
"Letterink-NibData" = {
AngleInDegrees = 28.9193;
};
}),
(389,601,l,{
"Letterink-NibData" = {
AngleInDegrees = 32.55;
};
}),
(411,650,l,{
"Letterink-NibData" = {
AngleInDegrees = 180;
};
}),
(411,256,l,{
"Letterink-NibData" = {
AngleInDegrees = 270;
};
})
);
}
);
width = 861;
},
{
anchors = (
{
name = bottom;
pos = (431,0);
},
{
name = top;
pos = (529,684);
}
);
layerId = m004;
shapes = (
{
closed = 1;
nodes = (
(186,1,l,{
"Letterink-NibData" = {
AngleInDegrees = "28.81079";
};
}),
(324,256,l,{
"Letterink-NibData" = {
AngleInDegrees = "90";
};
}),
(232,146,l,{
"Letterink-NibData" = {
AngleInDegrees = "90";
};
}),
(501,146,l,{
"Letterink-NibData" = {
AngleInDegrees = "180";
};
}),
(431,264,l,{
"Letterink-NibData" = {
AngleInDegrees = "180";
};
}),
(431,0,l,{
"Letterink-NibData" = {
AngleInDegrees = "90";
};
}),
(895,0,l),
(895,148,l,{
"Letterink-NibData" = {
AngleInDegrees = "270";
};
}),
(596,148,l),
(596,281,l,{
"Letterink-NibData" = {
AngleInDegrees = "90";
};
}),
(785,281,l),
(785,419,l,{
"Letterink-NibData" = {
AngleInDegrees = "270";
};
}),
(596,419,l),
(596,536,l,{
"Letterink-NibData" = {
AngleInDegrees = "90";
};
}),
(875,536,l),
(875,684,l,{
"Letterink-NibData" = {
AngleInDegrees = "270";
};
}),
(370,684,l,{
"Letterink-NibData" = {
AngleInDegrees = "209.70894";
};
}),
(-3,0,l,{
"Letterink-NibData" = {
AngleInDegrees = "89.3704";
};
})
);
},
{
closed = 1;
nodes = (
(501,284,l,{
"Letterink-NibData" = {
AngleInDegrees = "270";
};
}),
(313,284,l,{
"Letterink-NibData" = {
AngleInDegrees = "28.68615";
};
}),
(350,279,l,{
"Letterink-NibData" = {
AngleInDegrees = "28.68615";
};
}),
(432,488,l,{
"Letterink-NibData" = {
AngleInDegrees = "23.62938";
};
}),
(431,449,l,{
"Letterink-NibData" = {
AngleInDegrees = "180";
};
}),
(431,275,l,{
"Letterink-NibData" = {
AngleInDegrees = "270";
};
})
);
}
);
width = 920;
},
{
anchors = (
{
name = bottom;
pos = (481,0);
},
{
name = top;
pos = (506,676);
}
);
layerId = "BDC4F23E-8387-43BA-9F0D-D808B5DC489D";
shapes = (
{
closed = 1;
nodes = (
(103,1,l,{
"Letterink-NibData" = {
AngleInDegrees = 28.2127;
};
}),
(237,252,l,{
"Letterink-NibData" = {
AngleInDegrees = 90;
};
}),
(188,216,l,{
"Letterink-NibData" = {
AngleInDegrees = 90;
};
}),
(456,216,l,{
"Letterink-NibData" = {
AngleInDegrees = 180;
};
}),
(424,255,l,{
"Letterink-NibData" = {
AngleInDegrees = 180;
};
}),
(424,-1,l,{
"Letterink-NibData" = {
AngleInDegrees = 90;
};
}),
(850,-1,l),
(850,66,l,{
"Letterink-NibData" = {
AngleInDegrees = 270;
};
}),
(496,66,l),
(496,330,l,{
"Letterink-NibData" = {
AngleInDegrees = 90;
};
}),
(730,330,l),
(730,397,l,{
"Letterink-NibData" = {
AngleInDegrees = 270;
};
}),
(496,397,l),
(496,619,l,{
"Letterink-NibData" = {
AngleInDegrees = 90;
};
}),
(830,619,l),
(830,686,l,{
"Letterink-NibData" = {
AngleInDegrees = 270;
};
}),
(390,686,l,{
"Letterink-NibData" = {
AngleInDegrees = 208.86222;
};
}),
(18,0,l,{
"Letterink-NibData" = {
AngleInDegrees = 90;
};
})
);
},
{
closed = 1;
nodes = (
(456,283,l,{
"Letterink-NibData" = {
AngleInDegrees = 270;
};
}),
(221,283,l,{
"Letterink-NibData" = {
AngleInDegrees = 28.9193;
};
}),
(241,262,l,{
"Letterink-NibData" = {
AngleInDegrees = 28.9193;
};
}),
(408,570,l,{
"Letterink-NibData" = {
AngleInDegrees = 32.55;
};
}),
(424,606,l,{
"Letterink-NibData" = {
AngleInDegrees = 180;
};
}),
(424,259,l,{
"Letterink-NibData" = {
AngleInDegrees = 270;
};
})
);
}
);
width = 878;
}
);
metricLeft = A.ss01;
metricRight = E;
userData = {
position = 422;
width = 61;
};
},
{
glyphname = AE.swsh;
kernLeft = A;
kernRight = E;
layers = (
{
anchors = (
{
name = bottom;
pos = (593,0);
},
{
name = top;
pos = (601,694);
}
);
hints = (
{
name = _corner.caps_swash_diag;
options = 1;
origin = (0,12);
scale = (-1,1);
type = Corner;
},
{
name = _corner.caps_swash.big;
origin = (2,2);
type = Corner;
}
);
layerId = "49C16FD3-6177-408B-A733-AEB3898BB77C";
shapes = (
{
closed = 1;
nodes = (
(965,1,l),
(965,37,l,{
"Letterink-NibData" = {
AngleInDegrees = 270;
};
}),
(586,37,l),
(586,346,l,{
"Letterink-NibData" = {
AngleInDegrees = 90;
};
}),
(842,346,l),
(842,382,l,{
"Letterink-NibData" = {
AngleInDegrees = 270;
};
}),
(586,382,l),
(586,649,l,{
"Letterink-NibData" = {
AngleInDegrees = 90;
};
}),
(945,649,l),
(945,685,l,{
"Letterink-NibData" = {
AngleInDegrees = 270;
};
}),
(528,685,l,{
"Letterink-NibData" = {
AngleInDegrees = 208.82166;
};
}),
(180,65,l,{
"Letterink-NibData" = {
AngleInDegrees = 213.69007;
};
}),
(214,48,l,{
"Letterink-NibData" = {
AngleInDegrees = 29.29136;
};
}),
(329,249,l,{
"Letterink-NibData" = {
AngleInDegrees = 90;
};
}),
(301,237,l,{
"Letterink-NibData" = {
AngleInDegrees = 90;
};
}),
(564,237,l,{
"Letterink-NibData" = {
AngleInDegrees = 180;
};
}),
(548,253,l,{
"Letterink-NibData" = {
AngleInDegrees = 180;
};
}),
(548,1,l,{
"Letterink-NibData" = {
AngleInDegrees = 90;
};
})
);
},
{
closed = 1;
nodes = (
(564,273,l,{
"Letterink-NibData" = {
AngleInDegrees = 270;
};
}),
(319,273,l,{
"Letterink-NibData" = {
AngleInDegrees = 28.59795;
};
}),
(332,259,l,{
"Letterink-NibData" = {
AngleInDegrees = 28.59795;
};
}),
(521,600,l,{
"Letterink-NibData" = {
AngleInDegrees = 27.32389;
};
}),
(545,650,l,{
"Letterink-NibData" = {
AngleInDegrees = 179.84962;
};
}),
(548,257,l,{
"Letterink-NibData" = {
AngleInDegrees = 270;
};
})
);
},
{
closed = 1;
nodes = (
(528,648,l),
(528,684,l,{
"Letterink-NibData" = {
AngleInDegrees = "270";
};
}),
(385,684,l,{
"Letterink-NibData" = {
AngleInDegrees = "180";
};
}),
(385,648,l,{
"Letterink-NibData" = {
AngleInDegrees = "90";
};
})
);
}
);
width = 991;
},
{
anchors = (
{
name = bottom;
pos = (560,0);
},
{
name = top;
pos = (692,673);
}
);
hints = (
{
name = _corner.caps_swash_diag;
options = 1;
origin = (0,12);
scale = (-1,1);
type = Corner;
},
{
name = _corner.caps_swash.big;
origin = (2,2);
type = Corner;
}
);
layerId = m004;
shapes = (
{
closed = 1;
nodes = (
(1024,0,l),
(1024,148,l,{
"Letterink-NibData" = {
AngleInDegrees = "270";
};
}),
(725,148,l),
(725,291,l,{
"Letterink-NibData" = {
AngleInDegrees = "90";
};
}),
(914,291,l),
(914,429,l,{
"Letterink-NibData" = {
AngleInDegrees = "270";
};
}),
(725,429,l),
(725,536,l,{
"Letterink-NibData" = {
AngleInDegrees = "90";
};
}),
(1004,536,l),
(1004,684,l,{
"Letterink-NibData" = {
AngleInDegrees = "270";
};
}),
(500,684,l,{
"Letterink-NibData" = {
AngleInDegrees = "209.70894";
};
}),
(223,150,l,{
"Letterink-NibData" = {
AngleInDegrees = "89.3704";
};
}),
(361,69,l,{
"Letterink-NibData" = {
AngleInDegrees = "28.81079";
};
}),
(453,256,l,{
"Letterink-NibData" = {
AngleInDegrees = "90";
};
}),
(361,146,l,{
"Letterink-NibData" = {
AngleInDegrees = "90";
};
}),
(630,146,l,{
"Letterink-NibData" = {
AngleInDegrees = "180";
};
}),
(560,264,l,{
"Letterink-NibData" = {
AngleInDegrees = "180";
};
}),
(560,0,l,{
"Letterink-NibData" = {
AngleInDegrees = "90";
};
})
);
},
{
closed = 1;
nodes = (
(630,284,l,{
"Letterink-NibData" = {
AngleInDegrees = "270";
};
}),
(442,284,l,{
"Letterink-NibData" = {
AngleInDegrees = "28.68615";
};
}),
(479,279,l,{
"Letterink-NibData" = {
AngleInDegrees = "28.68615";
};
}),
(562,488,l,{
"Letterink-NibData" = {
AngleInDegrees = "23.62938";
};
}),
(560,449,l,{
"Letterink-NibData" = {
AngleInDegrees = "180";
};
}),
(560,275,l,{
"Letterink-NibData" = {
AngleInDegrees = "270";
};
})
);
},
{
closed = 1;
nodes = (
(569,535,l),
(569,684,l,{
"Letterink-NibData" = {
AngleInDegrees = "270";
};
}),
(347,684,l,{
"Letterink-NibData" = {
AngleInDegrees = "180";
};
}),
(350,535,l)
);
}
);
width = 1045;
},
{
anchors = (
{
name = bottom;
pos = (576,0);
},
{
name = top;
pos = (587,678);
}
);
hints = (
{
name = _corner.caps_swash_diag;
options = 1;
origin = (0,12);
scale = (-1,1);
type = Corner;
},
{
name = _corner.caps_swash.big;
origin = (2,2);
type = Corner;
}
);
layerId = "BDC4F23E-8387-43BA-9F0D-D808B5DC489D";
shapes = (
{
closed = 1;
nodes = (
(952,-1,l),
(952,66,l,{
"Letterink-NibData" = {
AngleInDegrees = 270;
};
}),
(592,66,l),
(592,330,l,{
"Letterink-NibData" = {
AngleInDegrees = 90;
};
}),
(833,330,l),
(833,397,l,{
"Letterink-NibData" = {
AngleInDegrees = 270;
};
}),
(592,397,l),
(592,619,l,{
"Letterink-NibData" = {
AngleInDegrees = 90;
};
}),
(932,619,l),
(932,686,l,{
"Letterink-NibData" = {
AngleInDegrees = 270;
};
}),
(494,686,l,{
"Letterink-NibData" = {
AngleInDegrees = 208.82166;
};
}),
(177,87,l,{
"Letterink-NibData" = {
AngleInDegrees = 213.69007;
};
}),
(241,54,l,{
"Letterink-NibData" = {
AngleInDegrees = 29.29136;
};
}),
(338,251,l,{
"Letterink-NibData" = {
AngleInDegrees = 90;
};
}),
(291,216,l,{
"Letterink-NibData" = {
AngleInDegrees = 90;
};
}),
(551,216,l,{
"Letterink-NibData" = {
AngleInDegrees = 180;
};
}),
(520,255,l,{
"Letterink-NibData" = {
AngleInDegrees = 180;
};
}),
(520,-1,l,{
"Letterink-NibData" = {
AngleInDegrees = 90;
};
})
);
},
{
closed = 1;
nodes = (
(551,283,l,{
"Letterink-NibData" = {
AngleInDegrees = 270;
};
}),
(329,283,l,{
"Letterink-NibData" = {
AngleInDegrees = 28.59795;
};
}),
(347,263,l,{
"Letterink-NibData" = {
AngleInDegrees = 28.59795;
};
}),
(501,551,l,{
"Letterink-NibData" = {
AngleInDegrees = 27.32389;
};
}),
(519,601,l,{
"Letterink-NibData" = {
AngleInDegrees = 179.84962;
};
}),
(520,259,l,{
"Letterink-NibData" = {
AngleInDegrees = 270;
};
})
);
},
{
closed = 1;
nodes = (
(497,618,l),
(497,685,l,{
"Letterink-NibData" = {
AngleInDegrees = "270";
};
}),
(346,685,l,{
"Letterink-NibData" = {
AngleInDegrees = "180";
};
}),
(346,618,l,{
"Letterink-NibData" = {
AngleInDegrees = "90";
};
})
);
}
);
width = 979;
}
);
metricLeft = A.swsh;
userData = {
position = 422;
width = 61;
};
},
{
glyphname = B;
kernLeft = E;
kernRight = B;
layers = (
{
anchors = (
{
name = bottom;
pos = (341,-2);
},
{
name = center;
pos = (358,367);
},
{
name = top;
pos = (341,684);
}
);
hints = (
{
name = _corner.caps_left;
origin = (0,18);
type = Corner;
}
);
layerId = "49C16FD3-6177-408B-A733-AEB3898BB77C";
shapes = (
{
closed = 1;
nodes = (
(475,-9,o),
(598,43,o),
(598,181,cs),
(598,254,o),
(561,315,o),
(491,349,cs,{
"Letterink-NibData" = {
AngleInDegrees = 305.53768;
};
}),
(480,354,o),
(456,361,o),
(428,366,c,{
"Letterink-NibData" = {
AngleInDegrees = 75.67728;
};
}),
(458,373,o),
(477,375,o),
(506,398,cs,{
"Letterink-NibData" = {
AngleInDegrees = 53.1301;
};
}),
(536,422,o),
(565,453,o),
(565,515,cs),
(565,633,o),
(472,684,o),
(368,684,cs,{
"Letterink-NibData" = {
AngleInDegrees = 270;
};
}),
(155,684,l,{
"Letterink-NibData" = {
AngleInDegrees = 180;
};
}),
(155,648,l,{
"Letterink-NibData" = {
AngleInDegrees = 90;
};
}),
(384,648,l,{
"Letterink-NibData" = {
AngleInDegrees = 93.81407;
};
}),
(475,648,o),
(526,598,o),
(526,519,cs,{
"Letterink-NibData" = {
AngleInDegrees = 180;
};
}),
(526,425,o),
(454,382,o),
(367,382,cs,{
"Letterink-NibData" = {
AngleInDegrees = 270;
};
}),
(181,382,l,{
"Letterink-NibData" = {
AngleInDegrees = 180;
};
}),
(181,346,l,{
"Letterink-NibData" = {
AngleInDegrees = 90;
};
}),
(374,346,ls,{
"Letterink-NibData" = {
AngleInDegrees = 90;
};
}),
(494,346,o),
(560,271,o),
(560,181,cs,{
"Letterink-NibData" = {
AngleInDegrees = 180;
};
}),
(560,78,o),
(476,26,o),
(360,26,cs,{
"Letterink-NibData" = {
AngleInDegrees = 270;
};
}),
(352,26,o),
(242,26,o),
(193,32,c),
(193,654,l,{
"Letterink-NibData" = {
AngleInDegrees = 270;
};
}),
(152,654,l,{
"Letterink-NibData" = {
AngleInDegrees = 90;
};
}),
(156,3,l,{
"Letterink-NibData" = {
AngleInDegrees = 98.65254;
};
}),
(242,-11,o),
(291,-9,o),
(367,-9,cs,{
"Letterink-NibData" = {
AngleInDegrees = 90;
};
})
);
}
);
width = 641;
},
{
anchors = (
{
name = bottom;
pos = (402,-2);
},
{
name = center;
pos = (402,356);
},
{
name = top;
pos = (397,684);
}
);
hints = (
{
name = _corner.caps_left;
origin = (0,18);
type = Corner;
}
);
layerId = m004;
shapes = (
{
closed = 1;
nodes = (
(539,-12,o),
(670,38,o),
(670,195,cs),
(670,254,o),
(637,313,o),
(592,339,cs),
(562,356,o),
(546,361,o),
(523,365,c,{
"Letterink-NibData" = {
AngleInDegrees = 77.90524;
};
}),
(550,369,o),
(566,377,o),
(585,391,cs,{
"Letterink-NibData" = {
AngleInDegrees = "63.90458";
};
}),
(633,426,o),
(648,471,o),
(648,520,cs),
(648,617,o),
(564,684,o),
(431,684,cs,{
"Letterink-NibData" = {
AngleInDegrees = "270";
};
}),
(177,684,l,{
"Letterink-NibData" = {
AngleInDegrees = "180";
};
}),
(177,536,l),
(431,536,ls,{
"Letterink-NibData" = {
AngleInDegrees = "90";
};
}),
(466,536,o),
(487,513,o),
(487,485,cs,{
"Letterink-NibData" = {
AngleInDegrees = "180";
};
}),
(487,451,o),
(464,424,o),
(437,424,cs,{
"Letterink-NibData" = {
AngleInDegrees = "269.3338";
};
}),
(312,424,l,{
"Letterink-NibData" = {
AngleInDegrees = "180.77422";
};
}),
(312,289,l,{
"Letterink-NibData" = {
AngleInDegrees = "90";
};
}),
(428,289,ls,{
"Letterink-NibData" = {
AngleInDegrees = "90";
};
}),
(476,289,o),
(515,258,o),
(515,211,cs,{
"Letterink-NibData" = {
AngleInDegrees = "180";
};
}),
(515,158,o),
(478,132,o),
(404,132,cs,{
"Letterink-NibData" = {
AngleInDegrees = "270";
};
}),
(381,132,o),
(367,133,o),
(342,137,c),
(342,552,l,{
"Letterink-NibData" = {
AngleInDegrees = "90";
};
}),
(177,552,l),
(177,6,l,{
"Letterink-NibData" = {
AngleInDegrees = 96.4416;
};
}),
(267,-11,o),
(316,-13,o),
(382,-13,cs)
);
}
);
width = 692;
},
{
anchors = (
{
name = bottom;
pos = (359,0);
},
{
name = center;
pos = (370,368);
},
{
name = top;
pos = (359,684);
}
);
hints = (
{
name = _corner.caps_left;
origin = (0,18);
type = Corner;
}
);
layerId = "BDC4F23E-8387-43BA-9F0D-D808B5DC489D";
shapes = (
{
closed = 1;
nodes = (
(521,-10,o),
(620,58,o),
(620,188,cs),
(620,266,o),
(584,321,o),
(527,350,cs,{
"Letterink-NibData" = {
AngleInDegrees = 305.53768;
};
}),
(512,358,o),
(492,366,o),
(472,369,c,{
"Letterink-NibData" = {
AngleInDegrees = 75.67728;
};
}),
(491,373,o),
(509,378,o),
(530,393,cs,{
"Letterink-NibData" = {
AngleInDegrees = 53.1301;
};
}),
(560,413,o),
(590,448,o),
(590,512,cs),
(590,621,o),
(507,684,o),
(384,684,cs,{
"Letterink-NibData" = {
AngleInDegrees = 270;
};
}),
(161,684,l,{
"Letterink-NibData" = {
AngleInDegrees = 180;
};
}),
(161,617,l,{
"Letterink-NibData" = {
AngleInDegrees = 90;
};
}),
(389,617,l,{
"Letterink-NibData" = {
AngleInDegrees = 93.81407;
};
}),
(473,617,o),
(518,575,o),
(518,511,cs,{
"Letterink-NibData" = {
AngleInDegrees = 180;
};
}),
(518,439,o),
(463,397,o),
(383,397,cs,{
"Letterink-NibData" = {
AngleInDegrees = 270;
};
}),
(198,397,l,{
"Letterink-NibData" = {
AngleInDegrees = 180;
};
}),
(198,330,l,{
"Letterink-NibData" = {
AngleInDegrees = 90;
};
}),
(390,330,ls,{
"Letterink-NibData" = {
AngleInDegrees = 90;
};
}),
(489,330,o),
(549,273,o),
(549,186,cs,{
"Letterink-NibData" = {
AngleInDegrees = 180;
};
}),
(549,97,o),
(485,57,o),
(362,55,cs,{
"Letterink-NibData" = {
AngleInDegrees = 270;
};
}),
(333,55,o),
(274,56,o),
(233,62,c),
(233,645,l,{
"Letterink-NibData" = {
AngleInDegrees = 270;
};
}),
(160,645,l,{
"Letterink-NibData" = {
AngleInDegrees = 90;
};
}),
(161,2,l,{
"Letterink-NibData" = {
AngleInDegrees = 98.65254;
};
}),
(239,-8,o),
(277,-10,o),
(353,-10,cs,{
"Letterink-NibData" = {
AngleInDegrees = 90;
};
})
);
}
);
width = 660;
}
);
metricLeft = E;
unicode = 66;
userData = {
position = 514;
width = 59;
};
},
{
glyphname = B.ss01;
kernLeft = L;
kernRight = B;
layers = (
{
anchors = (
{
name = bottom;
pos = (275,0);
},
{
name = center;
pos = (269,363);
},
{
name = top;
pos = (275,684);
}
);
layerId = "49C16FD3-6177-408B-A733-AEB3898BB77C";
shapes = (
{
closed = 1;
nodes = (
(444,-9,o),
(532,58,o),
(532,177,cs),
(532,256,o),
(493,317,o),
(435,346,cs,{
"Letterink-NibData" = {
AngleInDegrees = 305.53768;
};
}),
(413,356,o),
(387,361,o),
(362,365,c,{
"Letterink-NibData" = {
AngleInDegrees = 75.67728;
};
}),
(390,369,o),
(419,380,o),
(448,403,cs,{
"Letterink-NibData" = {
AngleInDegrees = 53.1301;
};
}),
(482,430,o),
(499,467,o),
(499,516,cs),
(499,619,o),
(423,684,o),
(302,684,cs,{
"Letterink-NibData" = {
AngleInDegrees = 270;
};
}),
(84,684,l,{
"Letterink-NibData" = {
AngleInDegrees = 180;
};
}),
(84,648,l,{
"Letterink-NibData" = {
AngleInDegrees = 90;
};
}),
(318,648,l,{
"Letterink-NibData" = {
AngleInDegrees = 93.81407;
};
}),
(411,641,o),
(460,596,o),
(460,520,cs,{
"Letterink-NibData" = {
AngleInDegrees = 180;
};
}),
(460,435,o),
(399,382,o),
(301,382,cs,{
"Letterink-NibData" = {
AngleInDegrees = 270;
};
}),
(119,382,l,{
"Letterink-NibData" = {
AngleInDegrees = 180;
};
}),
(119,347,l,{
"Letterink-NibData" = {
AngleInDegrees = 90;
};
}),
(308,347,ls,{
"Letterink-NibData" = {
AngleInDegrees = 90;
};
}),
(418,347,o),
(494,276,o),
(494,179,cs,{
"Letterink-NibData" = {
AngleInDegrees = 180;
};
}),
(494,63,o),
(418,26,o),
(265,26,cs,{
"Letterink-NibData" = {
AngleInDegrees = 270;
};
}),
(230,26,o),
(155,29,o),
(129,32,c),
(126,654,l,{
"Letterink-NibData" = {
AngleInDegrees = 270;
};
}),
(84,654,l,{
"Letterink-NibData" = {
AngleInDegrees = 90;
};
}),
(87,3,l,{
"Letterink-NibData" = {
AngleInDegrees = 98.65254;
};
}),
(167,-11,o),
(211,-9,o),
(309,-9,cs,{
"Letterink-NibData" = {
AngleInDegrees = 90;
};
})
);
}
);
width = 575;
},
{
anchors = (
{
name = bottom;
pos = (287,0);
},
{
name = center;
pos = (287,356);
},
{
name = top;
pos = (287,684);
}
);
layerId = m004;
shapes = (
{
closed = 1;
nodes = (
(415,-14,o),
(555,31,o),
(555,195,cs),
(555,254,o),
(522,313,o),
(477,339,cs),
(447,356,o),
(431,361,o),
(403,365,c,{
"Letterink-NibData" = {
AngleInDegrees = 77.90524;
};
}),
(435,369,o),
(451,377,o),
(470,391,cs,{
"Letterink-NibData" = {
AngleInDegrees = "63.90458";
};
}),
(518,426,o),
(533,471,o),
(533,520,cs),
(533,617,o),
(449,686,o),
(316,686,cs,{
"Letterink-NibData" = {
AngleInDegrees = "270";
};
}),
(62,686,l,{
"Letterink-NibData" = {
AngleInDegrees = "180";
};
}),
(62,536,l),
(316,536,ls,{
"Letterink-NibData" = {
AngleInDegrees = "90";
};
}),
(351,536,o),
(372,513,o),
(372,485,cs,{
"Letterink-NibData" = {
AngleInDegrees = "180";
};
}),
(372,451,o),
(349,424,o),
(322,424,cs,{
"Letterink-NibData" = {
AngleInDegrees = "269.3338";
};
}),
(197,424,l,{
"Letterink-NibData" = {
AngleInDegrees = "180.77422";
};
}),
(197,289,l,{
"Letterink-NibData" = {
AngleInDegrees = "90";
};
}),
(313,289,ls,{
"Letterink-NibData" = {
AngleInDegrees = "90";
};
}),
(361,289,o),
(400,258,o),
(400,211,cs,{
"Letterink-NibData" = {
AngleInDegrees = "180";
};
}),
(400,158,o),
(363,132,o),
(289,132,cs,{
"Letterink-NibData" = {
AngleInDegrees = "270";
};
}),
(266,132,o),
(252,133,o),
(227,137,c),
(227,552,l,{
"Letterink-NibData" = {
AngleInDegrees = "90";
};
}),
(62,552,l),
(62,6,l,{
"Letterink-NibData" = {
AngleInDegrees = 96.4416;
};
}),
(137,-9,o),
(184,-13,o),
(257,-13,cs)
);
}
);
width = 577;
},
{
anchors = (
{
name = bottom;
pos = (278,0);
},
{
name = center;
pos = (285,368);
},
{
name = top;
pos = (278,684);
}
);
layerId = "BDC4F23E-8387-43BA-9F0D-D808B5DC489D";
shapes = (
{
closed = 1;
nodes = (
(448,-10,o),
(540,62,o),
(540,187,cs),
(540,262,o),
(507,318,o),
(455,348,cs,{
"Letterink-NibData" = {
AngleInDegrees = 305.53768;
};
}),
(430,362,o),
(398,367,o),
(384,369,c,{
"Letterink-NibData" = {
AngleInDegrees = 75.67728;
};
}),
(400,371,o),
(423,376,o),
(445,389,cs,{
"Letterink-NibData" = {
AngleInDegrees = 53.1301;
};
}),
(488,413,o),
(509,456,o),
(509,512,cs),
(509,617,o),
(430,684,o),
(304,684,cs,{
"Letterink-NibData" = {
AngleInDegrees = 270;
};
}),
(80,684,l,{
"Letterink-NibData" = {
AngleInDegrees = 180;
};
}),
(80,616,l,{
"Letterink-NibData" = {
AngleInDegrees = 90;
};
}),
(308,616,l,{
"Letterink-NibData" = {
AngleInDegrees = 93.81407;
};
}),
(394,610,o),
(437,574,o),
(437,511,cs,{
"Letterink-NibData" = {
AngleInDegrees = 180;
};
}),
(437,441,o),
(385,397,o),
(303,397,cs,{
"Letterink-NibData" = {
AngleInDegrees = 270;
};
}),
(118,397,l,{
"Letterink-NibData" = {
AngleInDegrees = 180;
};
}),
(118,329,l,{
"Letterink-NibData" = {
AngleInDegrees = 90;
};
}),
(310,329,ls,{
"Letterink-NibData" = {
AngleInDegrees = 90;
};
}),
(407,329,o),
(469,274,o),
(469,186,cs,{
"Letterink-NibData" = {
AngleInDegrees = 180;
};
}),
(469,93,o),
(407,57,o),
(274,55,cs,{
"Letterink-NibData" = {
AngleInDegrees = 270;
};
}),
(240,55,o),
(188,57,o),
(153,62,c),
(152,645,l,{
"Letterink-NibData" = {
AngleInDegrees = 270;
};
}),
(80,645,l,{
"Letterink-NibData" = {
AngleInDegrees = 90;
};
}),
(80,2,l,{
"Letterink-NibData" = {
AngleInDegrees = 98.65254;
};
}),
(152,-8,o),
(190,-10,o),
(274,-10,cs,{
"Letterink-NibData" = {
AngleInDegrees = 90;
};
})
);
}
);
width = 580;
}
);
metricLeft = N.ss01;
metricRight = B;
userData = {
position = 494;
width = 59;
};
},
{
glyphname = B.swsh;
kernLeft = Swash;
kernRight = B;
layers = (
{
anchors = (
{
name = bottom;
pos = (337,0);
},
{
name = center;
pos = (355,367);
},
{
name = top;
pos = (337,684);
}
);
hints = (
{
name = _corner.caps_swash;
origin = (0,18);
type = Corner;
}
);
layerId = "49C16FD3-6177-408B-A733-AEB3898BB77C";
shapes = (
{
closed = 1;
nodes = (
(544,-9,o),
(632,58,o),
(632,177,cs),
(632,256,o),
(593,319,o),
(534,348,cs,{
"Letterink-NibData" = {
AngleInDegrees = "305.53768";
};
}),
(513,358,o),
(487,363,o),
(462,364,c,{
"Letterink-NibData" = {
AngleInDegrees = "75.67728";
};
}),
(490,371,o),
(519,379,o),
(549,403,cs,{
"Letterink-NibData" = {
AngleInDegrees = "53.1301";
};
}),
(582,430,o),
(599,467,o),
(599,516,cs),
(599,619,o),
(523,684,o),
(402,684,cs,{
"Letterink-NibData" = {
AngleInDegrees = "270";
};
}),
(186,684,l,{
"Letterink-NibData" = {
AngleInDegrees = "180";
};
}),
(186,648,l,{
"Letterink-NibData" = {
AngleInDegrees = "90";
};
}),
(418,648,l,{
"Letterink-NibData" = {
AngleInDegrees = "93.81407";
};
}),
(511,641,o),
(560,596,o),
(560,520,cs,{
"Letterink-NibData" = {
AngleInDegrees = "180";
};
}),
(560,435,o),
(499,382,o),
(401,382,cs,{
"Letterink-NibData" = {
AngleInDegrees = "270";
};
}),
(312,382,l,{
"Letterink-NibData" = {
AngleInDegrees = "180";
};
}),
(312,347,l,{
"Letterink-NibData" = {
AngleInDegrees = "90";
};
}),
(408,347,ls,{
"Letterink-NibData" = {
AngleInDegrees = "90";
};
}),
(510,347,o),
(594,280,o),
(594,183,cs,{
"Letterink-NibData" = {
AngleInDegrees = "180";
};
}),
(594,76,o),
(518,26,o),
(383,26,cs,{
"Letterink-NibData" = {
AngleInDegrees = "270";
};
}),
(331,26,o),
(253,29,o),
(227,32,c),
(227,597,l,{
"Letterink-NibData" = {
AngleInDegrees = "270";
};
}),
(186,597,l,{
"Letterink-NibData" = {
AngleInDegrees = "179.91332";
};
}),
(187,3,l,{
"Letterink-NibData" = {
AngleInDegrees = "98.65254";
};
}),
(277,-13,o),
(311,-9,o),
(409,-9,cs,{
"Letterink-NibData" = {
AngleInDegrees = "90";
};
})
);
}
);
width = 675;
},
{
anchors = (
{
name = bottom;
pos = (434,0);
},
{
name = center;
pos = (434,355);
},
{
name = top;
pos = (434,684);
}
);
hints = (
{
name = _corner.caps_swash;
options = 2;
origin = (0,18);
type = Corner;
}
);
layerId = m004;
shapes = (
{
closed = 1;
nodes = (
(586,-14,o),
(726,32,o),
(726,195,cs),
(726,254,o),
(693,313,o),
(648,339,cs),
(618,356,o),
(602,361,o),
(574,365,c,{
"Letterink-NibData" = {
AngleInDegrees = 77.90524;
};
}),
(606,369,o),
(622,377,o),
(641,391,cs,{
"Letterink-NibData" = {
AngleInDegrees = "63.90458";
};
}),
(689,426,o),
(704,471,o),
(704,520,cs),
(704,617,o),
(620,686,o),
(487,686,cs,{
"Letterink-NibData" = {
AngleInDegrees = "270";
};
}),
(233,686,l,{
"Letterink-NibData" = {
AngleInDegrees = "180";
};
}),
(233,538,l),
(487,539,ls,{
"Letterink-NibData" = {
AngleInDegrees = "90";
};
}),
(522,539,o),
(543,513,o),
(543,485,cs,{
"Letterink-NibData" = {
AngleInDegrees = "180";
};
}),
(543,451,o),
(520,425,o),
(493,424,cs,{
"Letterink-NibData" = {
AngleInDegrees = "269.3338";
};
}),
(440,423,l,{
"Letterink-NibData" = {
AngleInDegrees = "180.77422";
};
}),
(440,289,l,{
"Letterink-NibData" = {
AngleInDegrees = "90";
};
}),
(484,289,ls,{
"Letterink-NibData" = {
AngleInDegrees = "90";
};
}),
(532,289,o),
(571,258,o),
(571,211,cs,{
"Letterink-NibData" = {
AngleInDegrees = "180";
};
}),
(571,158,o),
(534,132,o),
(460,132,cs,{
"Letterink-NibData" = {
AngleInDegrees = "270";
};
}),
(437,132,o),
(423,133,o),
(398,137,c),
(398,498,l,{
"Letterink-NibData" = {
AngleInDegrees = "90";
};
}),
(233,499,l),
(233,6,l,{
"Letterink-NibData" = {
AngleInDegrees = 96.4416;
};
}),
(310,-9,o),
(362,-13,o),
(431,-13,cs)
);
}
);
width = 748;
},
{
anchors = (
{
name = bottom;
pos = (390,0);
},
{
name = center;
pos = (402,369);
},
{
name = top;
pos = (390,684);
}
);
hints = (
{
name = _corner.caps_swash;
origin = (0,18);
type = Corner;
}
);
layerId = "BDC4F23E-8387-43BA-9F0D-D808B5DC489D";
shapes = (
{
closed = 1;
nodes = (
(569,-10,o),
(661,62,o),
(661,187,cs),
(661,262,o),
(627,319,o),
(579,346,cs,{
"Letterink-NibData" = {
AngleInDegrees = "305.53768";
};
}),
(552,362,o),
(519,368,o),
(504,369,c,{
"Letterink-NibData" = {
AngleInDegrees = "75.67728";
};
}),
(521,373,o),
(544,376,o),
(567,390,cs,{
"Letterink-NibData" = {
AngleInDegrees = "53.1301";
};
}),
(607,412,o),
(630,456,o),
(630,512,cs),
(630,617,o),
(551,684,o),
(424,684,cs,{
"Letterink-NibData" = {
AngleInDegrees = "270";
};
}),
(201,684,l,{
"Letterink-NibData" = {
AngleInDegrees = "180";
};
}),
(201,617,l,{
"Letterink-NibData" = {
AngleInDegrees = "90";
};
}),
(429,617,l,{
"Letterink-NibData" = {
AngleInDegrees = "93.81407";
};
}),
(513,612,o),
(558,574,o),
(558,511,cs,{
"Letterink-NibData" = {
AngleInDegrees = "180";
};
}),
(558,441,o),
(506,397,o),
(423,397,cs,{
"Letterink-NibData" = {
AngleInDegrees = "270";
};
}),
(334,397,l,{
"Letterink-NibData" = {
AngleInDegrees = "180";
};
}),
(334,330,l,{
"Letterink-NibData" = {
AngleInDegrees = "90";
};
}),
(430,330,ls,{
"Letterink-NibData" = {
AngleInDegrees = "90";
};
}),
(525,330,o),
(589,275,o),
(589,191,cs,{
"Letterink-NibData" = {
AngleInDegrees = "180";
};
}),
(589,104,o),
(527,57,o),
(396,55,cs,{
"Letterink-NibData" = {
AngleInDegrees = "270";
};
}),
(360,55,o),
(308,57,o),
(273,62,c),
(273,568,l,{
"Letterink-NibData" = {
AngleInDegrees = "270";
};
}),
(201,568,l,{
"Letterink-NibData" = {
AngleInDegrees = "179.91332";
};
}),
(201,2,l,{
"Letterink-NibData" = {
AngleInDegrees = "98.65254";
};
}),
(272,-8,o),
(314,-10,o),
(395,-10,cs,{
"Letterink-NibData" = {
AngleInDegrees = "90";
};
})
);
}
);
width = 701;
}
);
metricLeft = E.swsh;
userData = {
position = 514;
width = 59;
};
},
{
glyphname = C;
kernLeft = O;
kernRight = C;
layers = (
{
anchors = (
{
name = bottom;
pos = (389,-4);
},
{
name = top;
pos = (394,688);
}
);
layerId = "49C16FD3-6177-408B-A733-AEB3898BB77C";
shapes = (
{
closed = 1;
nodes = (
(510,-10,o),
(615,47,o),
(661,130,c),
(631,148,l),
(589,75,o),
(496,25,o),
(390,25,cs),
(217,25,o),
(84,147,o),
(84,327,cs),
(84,533,o),
(218,664,o),
(394,664,cs),
(488,664,o),
(596,624,o),
(596,542,cs),
(596,517,o),
(582,482,o),
(550,482,cs),
(541,482,o),
(526,485,o),
(516,493,c),
(498,466,l),
(514,453,o),
(533,447,o),
(549,447,cs),
(595,447,o),
(632,485,o),
(632,542,cs),
(632,614,o),
(552,699,o),
(394,699,cs),
(199,699,o),
(46,555,o),
(46,327,cs),
(46,127,o),
(191,-10,o),
(390,-10,cs)
);
}
);
width = 690;
},
{
anchors = (
{
name = bottom;
pos = (392,-10);
},
{
name = top;
pos = (381,699);
}
);
layerId = m004;
shapes = (
{
closed = 1;
nodes = (
(519,-27,o),
(625,27,o),
(681,121,c),
(553,196,l),
(526,149,o),
(458,117,o),
(386,117,cs),
(267,117,o),
(188,205,o),
(188,337,cs),
(188,473,o),
(271,569,o),
(389,569,cs),
(470,569,o),
(526,534,o),
(525,497,cs),
(525,480,o),
(513,475,o),
(507,475,cs),
(499,475,o),
(493,481,o),
(490,485,c),
(411,390,l),
(430,360,o),
(474,340,o),
(522,340,cs),
(607,340,o),
(670,400,o),
(670,487,cs),
(670,621,o),
(540,713,o),
(381,713,cs),
(173,713,o),
(20,555,o),
(20,337,cs),
(20,130,o),
(173,-27,o),
(392,-27,cs)
);
}
);
width = 694;
},
{
anchors = (
{
name = bottom;
pos = (384,-5);
},
{
name = top;
pos = (387,689);
}
);
layerId = "BDC4F23E-8387-43BA-9F0D-D808B5DC489D";
shapes = (
{
closed = 1;
nodes = (
(502,-17,o),
(604,35,o),
(657,123,c),
(601,156,l),
(560,90,o),
(479,48,o),
(385,48,cs),
(234,48,o),
(113,167,o),
(113,335,cs),
(113,514,o),
(240,637,o),
(394,637,cs),
(486,637,o),
(565,596,o),
(565,533,cs),
(565,513,o),
(556,493,o),
(536,493,cs),
(527,493,o),
(519,496,o),
(511,502,c),
(475,454,l),
(493,437,o),
(514,429,o),
(536,429,cs),
(592,429,o),
(630,476,o),
(630,534,cs),
(630,626,o),
(528,702,o),
(391,702,cs),
(196,702,o),
(40,544,o),
(40,331,cs),
(40,131,o),
(174,-17,o),
(384,-17,cs)
);
}
);
width = 683;
}
);
metricLeft = O;
unicode = 67;
userData = {
position = 570;
width = 54;
};
},
{
glyphname = C.ss01;
kernLeft = O;
kernRight = C;
layers = (
{
anchors = (
{
name = bottom;
pos = (390,-12);
},
{
name = top;
pos = (376,685);
}
);
layerId = "49C16FD3-6177-408B-A733-AEB3898BB77C";
shapes = (
{
closed = 1;
nodes = (
(498,-12,o),
(598,36,o),
(651,124,c),
(620,142,l),
(575,66,o),
(492,24,o),
(386,24,cs),
(219,24,o),
(84,146,o),
(84,336,cs),
(84,529,o),
(214,661,o),
(380,661,cs),
(511,661,o),
(590,595,o),
(612,522,c),
(646,531,l),
(619,627,o),
(520,697,o),
(382,697,cs),
(195,697,o),
(46,549,o),
(46,336,cs),
(46,123,o),
(197,-12,o),
(384,-12,cs)
);
}
);
width = 682;
},
{
anchors = (
{
name = bottom;
pos = (387,-12);
},
{
name = top;
pos = (376,696);
}
);
layerId = m004;
shapes = (
{
closed = 1;
nodes = (
(505,-28,o),
(614,27,o),
(665,120,c),
(540,196,l),
(510,149,o),
(452,120,o),
(386,120,cs),
(270,120,o),
(188,211,o),
(188,339,cs),
(188,467,o),
(269,567,o),
(381,567,cs),
(450,567,o),
(509,527,o),
(521,482,c),
(661,522,l),
(633,634,o),
(519,713,o),
(377,713,cs),
(173,713,o),
(20,552,o),
(20,342,cs),
(20,130,o),
(175,-28,o),
(384,-28,cs)
);
}
);
width = 671;
},
{
anchors = (
{
name = bottom;
pos = (387,-7);
},
{
name = top;
pos = (380,688);
}
);
layerId = "BDC4F23E-8387-43BA-9F0D-D808B5DC489D";
shapes = (
{
closed = 1;
nodes = (
(501,-20,o),
(603,28,o),
(658,119,c),
(603,152,l),
(563,84,o),
(483,45,o),
(387,45,cs),
(230,45,o),
(113,160,o),
(113,335,cs),
(113,511,o),
(228,638,o),
(388,638,cs),
(503,638,o),
(562,576,o),
(584,514,c),
(650,531,l),
(623,626,o),
(522,703,o),
(384,703,cs),
(193,703,o),
(40,554,o),
(40,336,cs),
(40,117,o),
(192,-20,o),
(386,-20,cs)
);
}
);
width = 684;
}
);
metricLeft = O;
userData = {
position = 570;
width = 54;
};
},
{
glyphname = C.swsh;
kernLeft = O;
kernRight = C;
layers = (
{
anchors = (
{
name = bottom;
pos = (392,-2);
},
{
name = top;
pos = (393,686);
}
);
layerId = "49C16FD3-6177-408B-A733-AEB3898BB77C";
shapes = (
{
closed = 1;
nodes = (
(511,-11,o),
(609,40,o),
(660,126,c),
(631,143,l),
(586,66,o),
(500,23,o),
(395,23,cs),
(217,23,o),
(84,152,o),
(84,341,cs),
(84,524,o),
(215,658,o),
(393,658,cs),
(505,658,o),
(596,601,o),
(596,530,cs),
(596,491,o),
(572,462,o),
(538,462,cs),
(502,462,o),
(477,484,o),
(468,518,c),
(435,509,l),
(448,458,o),
(485,428,o),
(538,428,cs),
(591,428,o),
(632,472,o),
(632,530,cs),
(632,619,o),
(525,692,o),
(393,692,cs),
(193,692,o),
(46,543,o),
(46,341,cs),
(46,137,o),
(192,-11,o),
(395,-11,cs)
);
}
);
width = 690;
},
{
anchors = (
{
name = bottom;
pos = (384,-12);
},
{
name = top;
pos = (379,696);
}
);
layerId = m004;
shapes = (
{
closed = 1;
nodes = (
(506,-28,o),
(615,29,o),
(665,121,c),
(540,196,l),
(508,144,o),
(456,116,o),
(388,116,cs),
(267,116,o),
(188,202,o),
(188,332,cs),
(188,471,o),
(271,570,o),
(388,570,cs),
(438,570,o),
(519,549,o),
(521,503,cs),
(522,486,o),
(514,474,o),
(502,474,cs),
(494,474,o),
(487,478,o),
(482,491,c),
(361,449,l),
(373,384,o),
(439,334,o),
(506,334,cs),
(598,334,o),
(665,405,o),
(665,505,cs),
(665,625,o),
(544,714,o),
(380,714,cs),
(174,714,o),
(20,551,o),
(20,333,cs),
(20,127,o),
(163,-28,o),
(384,-28,cs)
);
}
);
width = 683;
},
{
anchors = (
{
name = bottom;
pos = (391,-7);
},
{
name = top;
pos = (383,690);
}
);
layerId = "BDC4F23E-8387-43BA-9F0D-D808B5DC489D";
shapes = (
{
closed = 1;
nodes = (
(508,-21,o),
(608,32,o),
(661,121,c),
(604,155,l),
(563,84,o),
(487,45,o),
(392,45,cs),
(227,45,o),
(110,164,o),
(110,336,cs),
(110,509,o),
(228,633,o),
(392,633,cs),
(487,633,o),
(565,583,o),
(565,522,cs),
(565,496,o),
(550,477,o),
(528,477,cs),
(505,477,o),
(484,495,o),
(477,518,c),
(414,499,l),
(429,446,o),
(474,412,o),
(528,412,cs),
(590,412,o),
(635,459,o),
(635,525,cs),
(635,624,o),
(532,698,o),
(392,698,cs),
(188,698,o),
(40,545,o),
(40,336,cs),
(40,130,o),
(181,-17,o),
(390,-19,cs)
);
}
);
width = 687;
}
);
metricLeft = O;
userData = {
position = 570;
width = 54;
};
},
{
glyphname = D;
kernLeft = E;
kernRight = O;
layers = (
{
anchors = (
{
name = bottom;
pos = (348,-9);
},
{
name = center;
pos = (179,358);
},
{
name = top;
pos = (365,685);
}
);
hints = (
{
name = _corner.caps_left;
origin = (0,6);
type = Corner;
}
);
layerId = "49C16FD3-6177-408B-A733-AEB3898BB77C";
shapes = (
{
closed = 1;
nodes = (
(587,-9,o),
(721,131,o),
(721,342,cs),
(721,541,o),
(597,684,o),
(392,684,cs,{
"Letterink-NibData" = {
AngleInDegrees = 270.22037;
};
}),
(155,684,l,{
"Letterink-NibData" = {
AngleInDegrees = 180;
};
}),
(155,649,l,{
"Letterink-NibData" = {
AngleInDegrees = 90;
};
}),
(387,649,ls,{
"Letterink-NibData" = {
AngleInDegrees = 93.25195;
};
}),
(574,649,o),
(682,525,o),
(682,339,cs,{
"Letterink-NibData" = {
AngleInDegrees = 180;
};
}),
(682,141,o),
(568,26,o),
(362,26,cs,{
"Letterink-NibData" = {
AngleInDegrees = 270;
};
}),
(297,26,o),
(210,29,o),
(193,31,c),
(193,649,l,{
"Letterink-NibData" = {
AngleInDegrees = 270;
};
}),
(155,649,l,{
"Letterink-NibData" = {
AngleInDegrees = 180;
};
}),
(155,0,l,{
"Letterink-NibData" = {
AngleInDegrees = 94.18492;
};
}),
(194,-3,ls,{
"Letterink-NibData" = {
AngleInDegrees = 94.20536;
};
}),
(261,-8,o),
(305,-9,o),
(384,-9,cs,{
"Letterink-NibData" = {
AngleInDegrees = 90;
};
})
);
}
);
width = 767;
},
{
anchors = (
{
name = bottom;
pos = (431,-2);
},
{
name = center;
pos = (265,353);
},
{
name = top;
pos = (440,684);
}
);
hints = (
{
name = _corner.caps_left;
origin = (0,6);
type = Corner;
}
);
layerId = m004;
shapes = (
{
closed = 1;
nodes = (
(616,-14,o),
(771,135,o),
(771,346,cs),
(771,531,o),
(636,684,o),
(433,684,cs,{
"Letterink-NibData" = {
AngleInDegrees = "270.21459";
};
}),
(177,684,l,{
"Letterink-NibData" = {
AngleInDegrees = "180";
};
}),
(177,536,l,{
"Letterink-NibData" = {
AngleInDegrees = "90";
};
}),
(434,536,ls,{
"Letterink-NibData" = {
AngleInDegrees = "92.97373";
};
}),
(543,536,o),
(603,461,o),
(603,343,cs,{
"Letterink-NibData" = {
AngleInDegrees = "180";
};
}),
(603,217,o),
(532,141,o),
(415,141,cs,{
"Letterink-NibData" = {
AngleInDegrees = "270";
};
}),
(384,141,o),
(366,142,o),
(342,146,c),
(342,655,l,{
"Letterink-NibData" = {
AngleInDegrees = "270";
};
}),
(177,655,l,{
"Letterink-NibData" = {
AngleInDegrees = "180";
};
}),
(177,5,l,{
"Letterink-NibData" = {
AngleInDegrees = "95.10217";
};
}),
(247,-3,ls,{
"Letterink-NibData" = {
AngleInDegrees = "95.12819";
};
}),
(287,-8,o),
(320,-9,o),
(400,-10,cs,{
"Letterink-NibData" = {
AngleInDegrees = "90";
};
})
);
}
);
width = 791;
},
{
anchors = (
{
name = bottom;
pos = (380,-10);
},
{
name = center;
pos = (207,365);
},
{
name = top;
pos = (396,684);
}
);
hints = (
{
name = _corner.caps_left;
origin = (0,6);
type = Corner;
}
);
layerId = "BDC4F23E-8387-43BA-9F0D-D808B5DC489D";
shapes = (
{
closed = 1;
nodes = (
(592,-10,o),
(734,135,o),
(734,342,cs),
(734,536,o),
(608,684,o),
(405,684,cs,{
"Letterink-NibData" = {
AngleInDegrees = 270.22037;
};
}),
(161,684,l,{
"Letterink-NibData" = {
AngleInDegrees = 180;
};
}),
(161,618,l,{
"Letterink-NibData" = {
AngleInDegrees = 90;
};
}),
(404,618,ls,{
"Letterink-NibData" = {
AngleInDegrees = 93.25195;
};
}),
(569,618,o),
(660,506,o),
(660,339,cs,{
"Letterink-NibData" = {
AngleInDegrees = 180;
};
}),
(660,158,o),
(553,56,o),
(359,56,cs,{
"Letterink-NibData" = {
AngleInDegrees = 270;
};
}),
(320,56,o),
(270,58,o),
(233,61,c),
(233,651,l,{
"Letterink-NibData" = {
AngleInDegrees = 270;
};
}),
(161,651,l,{
"Letterink-NibData" = {
AngleInDegrees = 180;
};
}),
(161,1,l,{
"Letterink-NibData" = {
AngleInDegrees = 94.18492;
};
}),
(213,-4,ls,{
"Letterink-NibData" = {
AngleInDegrees = 94.20536;
};
}),
(280,-10,o),
(307,-10,o),
(389,-10,cs,{
"Letterink-NibData" = {
AngleInDegrees = 90;
};
})
);
}
);
width = 775;
}
);
metricLeft = E;
metricRight = O;
unicode = 68;
userData = {
position = 674;
width = 60;
};
},
{
glyphname = D.ss01;
kernLeft = L;
kernRight = O;
layers = (
{
anchors = (
{
name = bottom;
pos = (313,-9);
},
{
name = center;
pos = (122,358);
},
{
name = top;
pos = (320,692);
}
);
layerId = "49C16FD3-6177-408B-A733-AEB3898BB77C";
shapes = (
{
closed = 1;
nodes = (
(516,-9,o),
(650,131,o),
(650,342,cs),
(650,541,o),
(527,684,o),
(333,684,c,{
"Letterink-NibData" = {
AngleInDegrees = 270.22037;
};
}),
(84,684,l,{
"Letterink-NibData" = {
AngleInDegrees = 180;
};
}),
(84,649,l,{
"Letterink-NibData" = {
AngleInDegrees = 90;
};
}),
(324,649,l,{
"Letterink-NibData" = {
AngleInDegrees = 93.25195;
};
}),
(502,649,o),
(610,525,o),
(610,339,cs,{
"Letterink-NibData" = {
AngleInDegrees = 180;
};
}),
(610,141,o),
(496,26,o),
(291,26,cs,{
"Letterink-NibData" = {
AngleInDegrees = 270;
};
}),
(226,26,o),
(139,29,o),
(122,31,c),
(122,649,l,{
"Letterink-NibData" = {
AngleInDegrees = 270;
};
}),
(84,649,l,{
"Letterink-NibData" = {
AngleInDegrees = 180;
};
}),
(84,0,l,{
"Letterink-NibData" = {
AngleInDegrees = 94.18492;
};
}),
(123,-3,ls,{
"Letterink-NibData" = {
AngleInDegrees = 94.20536;
};
}),
(190,-8,o),
(234,-9,o),
(313,-9,cs,{
"Letterink-NibData" = {
AngleInDegrees = 90;
};
})
);
}
);
width = 696;
},
{
anchors = (
{
name = bottom;
pos = (285,-10);
},
{
name = center;
pos = (177,360);
},
{
name = top;
pos = (301,685);
}
);
layerId = m004;
shapes = (
{
closed = 1;
nodes = (
(520,-14,o),
(659,151,o),
(659,346,cs),
(659,523,o),
(531,684,o),
(321,684,c,{
"Letterink-NibData" = {
AngleInDegrees = "270.21459";
};
}),
(62,684,l,{
"Letterink-NibData" = {
AngleInDegrees = "180";
};
}),
(62,532,l,{
"Letterink-NibData" = {
AngleInDegrees = "90";
};
}),
(319,532,l,{
"Letterink-NibData" = {
AngleInDegrees = "92.97373";
};
}),
(442,532,o),
(491,448,o),
(491,343,cs,{
"Letterink-NibData" = {
AngleInDegrees = "180";
};
}),
(491,212,o),
(415,141,o),
(300,141,cs,{
"Letterink-NibData" = {
AngleInDegrees = "270";
};
}),
(279,141,o),
(252,141,o),
(227,146,c),
(227,655,l,{
"Letterink-NibData" = {
AngleInDegrees = "270";
};
}),
(62,655,l,{
"Letterink-NibData" = {
AngleInDegrees = "180";
};
}),
(62,5,l,{
"Letterink-NibData" = {
AngleInDegrees = "95.10217";
};
}),
(152,-4,ls,{
"Letterink-NibData" = {
AngleInDegrees = "95.12819";
};
}),
(155,-4,o),
(159,-8,o),
(285,-10,cs,{
"Letterink-NibData" = {
AngleInDegrees = "90";
};
})
);
}
);
width = 679;
},
{
anchors = (
{
name = bottom;
pos = (307,-10);
},
{
name = center;
pos = (152,365);
},
{
name = top;
pos = (299,684);
}
);
layerId = "BDC4F23E-8387-43BA-9F0D-D808B5DC489D";
shapes = (
{
closed = 1;
nodes = (
(511,-10,o),
(653,135,o),
(653,342,cs),
(653,536,o),
(530,684,o),
(335,684,c,{
"Letterink-NibData" = {
AngleInDegrees = 270.22037;
};
}),
(80,684,l,{
"Letterink-NibData" = {
AngleInDegrees = 180;
};
}),
(80,617,l,{
"Letterink-NibData" = {
AngleInDegrees = 90;
};
}),
(324,617,l,{
"Letterink-NibData" = {
AngleInDegrees = 93.25195;
};
}),
(485,617,o),
(579,506,o),
(579,339,cs,{
"Letterink-NibData" = {
AngleInDegrees = 180;
};
}),
(579,158,o),
(472,56,o),
(277,56,cs,{
"Letterink-NibData" = {
AngleInDegrees = 270;
};
}),
(239,56,o),
(189,58,o),
(152,61,c),
(152,651,l,{
"Letterink-NibData" = {
AngleInDegrees = 270;
};
}),
(80,651,l,{
"Letterink-NibData" = {
AngleInDegrees = 180;
};
}),
(80,1,l,{
"Letterink-NibData" = {
AngleInDegrees = 94.18492;
};
}),
(132,-4,ls,{
"Letterink-NibData" = {
AngleInDegrees = 94.20536;
};
}),
(199,-10,o),
(210,-10,o),
(307,-10,cs,{
"Letterink-NibData" = {
AngleInDegrees = 90;
};
})
);
}
);
width = 694;
}
);
metricLeft = "=|H";
metricRight = O;
userData = {
position = 674;
width = 60;
};
},
{
glyphname = D.swsh;
kernLeft = Swash;
kernRight = O;
layers = (
{
hints = (
{
name = _corner.caps_swash;
origin = (0,6);
type = Corner;
}
);
layerId = "49C16FD3-6177-408B-A733-AEB3898BB77C";
shapes = (
{
closed = 1;
nodes = (
(618,-9,o),
(752,131,o),
(752,342,cs),
(752,541,o),
(628,685,o),
(435,685,c,{
"Letterink-NibData" = {
AngleInDegrees = "270.22037";
};
}),
(186,685,l,{
"Letterink-NibData" = {
AngleInDegrees = "180";
};
}),
(186,649,l,{
"Letterink-NibData" = {
AngleInDegrees = "90";
};
}),
(426,649,l,{
"Letterink-NibData" = {
AngleInDegrees = 93.25195;
};
}),
(605,649,o),
(713,524,o),
(713,339,cs,{
"Letterink-NibData" = {
AngleInDegrees = "180";
};
}),
(713,141,o),
(599,26,o),
(393,26,cs,{
"Letterink-NibData" = {
AngleInDegrees = "270";
};
}),
(328,26,o),
(241,29,o),
(224,31,c),
(224,569,l,{
"Letterink-NibData" = {
AngleInDegrees = "270";
};
}),
(186,569,l,{
"Letterink-NibData" = {
AngleInDegrees = "180";
};
}),
(186,0,l,{
"Letterink-NibData" = {
AngleInDegrees = 94.18492;
};
}),
(225,-3,ls,{
"Letterink-NibData" = {
AngleInDegrees = "94.20536";
};
}),
(292,-8,o),
(336,-9,o),
(415,-9,cs,{
"Letterink-NibData" = {
AngleInDegrees = "90";
};
})
);
}
);
width = 798;
},
{
hints = (
{
name = _corner.caps_swash;
origin = (0,6);
type = Corner;
}
);
layerId = m004;
shapes = (
{
closed = 1;
nodes = (
(692,-10,o),
(831,151,o),
(831,341,cs),
(831,523,o),
(703,673,o),
(507,685,c,{
"Letterink-NibData" = {
AngleInDegrees = "270.21459";
};
}),
(235,685,l,{
"Letterink-NibData" = {
AngleInDegrees = "180";
};
}),
(235,536,l,{
"Letterink-NibData" = {
AngleInDegrees = "90";
};
}),
(492,536,l,{
"Letterink-NibData" = {
AngleInDegrees = "92.97373";
};
}),
(614,532,o),
(663,448,o),
(663,346,cs,{
"Letterink-NibData" = {
AngleInDegrees = "180";
};
}),
(663,212,o),
(579,141,o),
(470,141,cs,{
"Letterink-NibData" = {
AngleInDegrees = "270";
};
}),
(452,141,o),
(423,143,o),
(400,146,c),
(400,499,l,{
"Letterink-NibData" = {
AngleInDegrees = "270";
};
}),
(235,499,l,{
"Letterink-NibData" = {
AngleInDegrees = "180";
};
}),
(235,5,l,{
"Letterink-NibData" = {
AngleInDegrees = "95.10217";
};
}),
(325,-4,ls,{
"Letterink-NibData" = {
AngleInDegrees = "95.12819";
};
}),
(359,-7,o),
(404,-10,o),
(433,-10,cs,{
"Letterink-NibData" = {
AngleInDegrees = "90";
};
})
);
}
);
width = 851;
},
{
hints = (
{
name = _corner.caps_swash;
origin = (0,6);
type = Corner;
}
);
layerId = "BDC4F23E-8387-43BA-9F0D-D808B5DC489D";
shapes = (
{
closed = 1;
nodes = (
(633,-10,o),
(774,135,o),
(774,342,cs),
(774,536,o),
(647,676,o),
(457,685,c,{
"Letterink-NibData" = {
AngleInDegrees = "270.22037";
};
}),
(201,685,l,{
"Letterink-NibData" = {
AngleInDegrees = "180";
};
}),
(201,617,l,{
"Letterink-NibData" = {
AngleInDegrees = "90";
};
}),
(446,617,l,{
"Letterink-NibData" = {
AngleInDegrees = 93.25195;
};
}),
(607,611,o),
(702,506,o),
(702,339,cs,{
"Letterink-NibData" = {
AngleInDegrees = "180";
};
}),
(702,158,o),
(594,56,o),
(399,56,cs,{
"Letterink-NibData" = {
AngleInDegrees = "270";
};
}),
(360,56,o),
(311,58,o),
(273,61,c),
(273,562,l,{
"Letterink-NibData" = {
AngleInDegrees = "270";
};
}),
(201,562,l,{
"Letterink-NibData" = {
AngleInDegrees = "180";
};
}),
(201,1,l,{
"Letterink-NibData" = {
AngleInDegrees = 94.18492;
};
}),
(254,-4,ls,{
"Letterink-NibData" = {
AngleInDegrees = "94.20536";
};
}),
(321,-10,o),
(331,-10,o),
(429,-10,cs,{
"Letterink-NibData" = {
AngleInDegrees = "90";
};
})
);
}
);
width = 815;
}
);
metricLeft = E;
metricRight = O;
userData = {
position = 674;
width = 60;
};
},
{
glyphname = E;
kernLeft = E;
kernRight = E;
layers = (
{
anchors = (
{
name = bottom;
pos = (366,7);
},
{
name = ogonek;
pos = (578,1);
},
{
name = top;
pos = (366,684);
},
{
name = topleft;
pos = (52,684);
}
);
hints = (
{
name = _corner.caps_left;
origin = (0,10);
type = Corner;
}
);
layerId = "49C16FD3-6177-408B-A733-AEB3898BB77C";
shapes = (
{
closed = 1;
nodes = (
(579,0,l),
(579,36,l,{
"Letterink-NibData" = {
AngleInDegrees = 270;
};
}),
(193,36,l),
(193,346,l,{
"Letterink-NibData" = {
AngleInDegrees = 90;
};
}),
(456,346,l),
(456,382,l,{
"Letterink-NibData" = {
AngleInDegrees = 270;
};
}),
(193,382,l),
(193,649,l,{
"Letterink-NibData" = {
AngleInDegrees = 90;
};
}),
(581,649,l),
(581,685,l,{
"Letterink-NibData" = {
AngleInDegrees = 269.86613;
};
}),
(155,684,l,{
"Letterink-NibData" = {
AngleInDegrees = 180;
};
}),
(155,0,l,{
"Letterink-NibData" = {
AngleInDegrees = 90;
};
})
);
}
);
width = 610;
},
{
anchors = (
{
name = bottom;
pos = (417,0);
},
{
name = ogonek;
pos = (639,0);
},
{
name = top;
pos = (418,684);
},
{
name = topleft;
pos = (177,684);
}
);
hints = (
{
name = _corner.caps_left;
origin = (0,10);
type = Corner;
}
);
layerId = m004;
shapes = (
{
closed = 1;
nodes = (
(639,0,l),
(639,148,l,{
"Letterink-NibData" = {
AngleInDegrees = "270";
};
}),
(343,148,l),
(343,273,l,{
"Letterink-NibData" = {
AngleInDegrees = "90";
};
}),
(543,273,l),
(543,421,l,{
"Letterink-NibData" = {
AngleInDegrees = "270";
};
}),
(343,421,l),
(343,536,l,{
"Letterink-NibData" = {
AngleInDegrees = "90";
};
}),
(629,536,l),
(629,684,l,{
"Letterink-NibData" = {
AngleInDegrees = "270";
};
}),
(177,684,l,{
"Letterink-NibData" = {
AngleInDegrees = "180";
};
}),
(177,0,l,{
"Letterink-NibData" = {
AngleInDegrees = "90";
};
})
);
}
);
width = 664;
},
{
anchors = (
{
name = bottom;
pos = (394,2);
},
{
name = ogonek;
pos = (620,-1);
},
{
name = top;
pos = (394,684);
},
{
name = topleft;
pos = (82,684);
}
);
hints = (
{
name = _corner.caps_left;
origin = (0,10);
type = Corner;
}
);
layerId = "BDC4F23E-8387-43BA-9F0D-D808B5DC489D";
shapes = (
{
closed = 1;
nodes = (
(620,-1,l),
(620,66,l,{
"Letterink-NibData" = {
AngleInDegrees = 270;
};
}),
(233,66,l),
(233,328,l,{
"Letterink-NibData" = {
AngleInDegrees = 90;
};
}),
(502,328,l),
(502,395,l,{
"Letterink-NibData" = {
AngleInDegrees = 270;
};
}),
(233,395,l),
(233,617,l,{
"Letterink-NibData" = {
AngleInDegrees = 90;
};
}),
(606,617,l),
(606,684,l,{
"Letterink-NibData" = {
AngleInDegrees = 269.86613;
};
}),
(161,684,l,{
"Letterink-NibData" = {
AngleInDegrees = 180;
};
}),
(161,-1,l,{
"Letterink-NibData" = {
AngleInDegrees = 90;
};
})
);
}
);
width = 648;
}
);
unicode = 69;
userData = {
position = 130;
width = 61;
};
},
{
glyphname = E.ss01;
kernLeft = L;
kernRight = E;
layers = (
{
anchors = (
{
name = bottom;
pos = (312,2);
},
{
name = ogonek;
pos = (534,1);
},
{
name = top;
pos = (310,684);
},
{
name = topleft;
pos = (18,684);
}
);
layerId = "49C16FD3-6177-408B-A733-AEB3898BB77C";
shapes = (
{
closed = 1;
nodes = (
(534,0,l),
(534,36,l,{
"Letterink-NibData" = {
AngleInDegrees = 270;
};
}),
(122,36,l),
(122,346,l,{
"Letterink-NibData" = {
AngleInDegrees = 90;
};
}),
(411,346,l),
(411,382,l,{
"Letterink-NibData" = {
AngleInDegrees = 270;
};
}),
(122,382,l),
(122,649,l,{
"Letterink-NibData" = {
AngleInDegrees = 90;
};
}),
(514,649,l),
(514,685,l,{
"Letterink-NibData" = {
AngleInDegrees = 270;
};
}),
(84,685,l,{
"Letterink-NibData" = {
AngleInDegrees = 180;
};
}),
(84,0,l,{
"Letterink-NibData" = {
AngleInDegrees = 90;
};
})
);
}
);
width = 563;
},
{
anchors = (
{
name = bottom;
pos = (318,0);
},
{
name = ogonek;
pos = (553,0);
},
{
name = top;
pos = (305,687);
},
{
name = topleft;
pos = (61,684);
}
);
layerId = m004;
shapes = (
{
closed = 1;
nodes = (
(553,0,l),
(553,148,l,{
"Letterink-NibData" = {
AngleInDegrees = 270;
};
}),
(227,148,l),
(227,273,l,{
"Letterink-NibData" = {
AngleInDegrees = 90;
};
}),
(457,273,l),
(457,411,l,{
"Letterink-NibData" = {
AngleInDegrees = 270;
};
}),
(227,411,l),
(227,536,l,{
"Letterink-NibData" = {
AngleInDegrees = 90;
};
}),
(543,536,l),
(543,684,l,{
"Letterink-NibData" = {
AngleInDegrees = 270;
};
}),
(62,684,l,{
"Letterink-NibData" = {
AngleInDegrees = 180;
};
}),
(62,0,l,{
"Letterink-NibData" = {
AngleInDegrees = 90;
};
})
);
}
);
width = 578;
},
{
anchors = (
{
name = bottom;
pos = (315,0);
},
{
name = ogonek;
pos = (544,-1);
},
{
name = top;
pos = (316,685);
},
{
name = topleft;
pos = (15,684);
}
);
layerId = "BDC4F23E-8387-43BA-9F0D-D808B5DC489D";
shapes = (
{
closed = 1;
nodes = (
(544,-1,l),
(544,66,l,{
"Letterink-NibData" = {
AngleInDegrees = 270;
};
}),
(152,66,l),
(152,328,l,{
"Letterink-NibData" = {
AngleInDegrees = 90;
};
}),
(427,328,l),
(427,395,l,{
"Letterink-NibData" = {
AngleInDegrees = 270;
};
}),
(152,395,l),
(152,617,l,{
"Letterink-NibData" = {
AngleInDegrees = 90;
};
}),
(525,617,l),
(525,684,l,{
"Letterink-NibData" = {
AngleInDegrees = 270;
};
}),
(80,684,l,{
"Letterink-NibData" = {
AngleInDegrees = 180;
};
}),
(80,-1,l,{
"Letterink-NibData" = {
AngleInDegrees = 90;
};
})
);
}
);
width = 572;
}
);
metricLeft = "=|H";
metricRight = E;
userData = {
position = 95;
width = 61;
};
},
{
glyphname = E.swsh;
kernLeft = Swash;
kernRight = E;
layers = (
{
anchors = (
{
name = bottom;
pos = (441,0);
},
{
name = ogonek;
pos = (649,0);
},
{
name = top;
pos = (431,684);
},
{
name = topleft;
pos = (35,684);
}
);
hints = (
{
name = _corner.caps_swash;
origin = (1,2);
type = Corner;
}
);
layerId = "49C16FD3-6177-408B-A733-AEB3898BB77C";
shapes = (
{
closed = 1;
nodes = (
(649,0,l),
(649,36,l,{
"Letterink-NibData" = {
AngleInDegrees = 270;
};
}),
(257,36,l),
(257,346,l,{
"Letterink-NibData" = {
AngleInDegrees = 90;
};
}),
(525,346,l),
(525,382,l,{
"Letterink-NibData" = {
AngleInDegrees = 270;
};
}),
(257,382,l),
(257,570,l,{
"Letterink-NibData" = {
AngleInDegrees = 270;
};
}),
(220,570,l,{
"Letterink-NibData" = {
AngleInDegrees = 180;
};
}),
(220,0,l,{
"Letterink-NibData" = {
AngleInDegrees = 90;
};
})
);
},
{
closed = 1;
nodes = (
(649,648,l),
(649,684,l,{
"Letterink-NibData" = {
AngleInDegrees = 270;
};
}),
(186,684,l,{
"Letterink-NibData" = {
AngleInDegrees = 180;
};
}),
(186,648,l,{
"Letterink-NibData" = {
AngleInDegrees = 90;
};
})
);
}
);
width = 678;
},
{
anchors = (
{
name = bottom;
pos = (486,0);
},
{
name = ogonek;
pos = (717,0);
},
{
name = top;
pos = (474,684);
},
{
name = topleft;
pos = (26,728);
}
);
hints = (
{
name = _corner.caps_swash;
origin = (1,2);
type = Corner;
}
);
layerId = m004;
shapes = (
{
closed = 1;
nodes = (
(717,0,l),
(717,148,l,{
"Letterink-NibData" = {
AngleInDegrees = "270";
};
}),
(401,148,l),
(401,276,l,{
"Letterink-NibData" = {
AngleInDegrees = "90";
};
}),
(621,276,l),
(621,414,l,{
"Letterink-NibData" = {
AngleInDegrees = "270";
};
}),
(401,414,l),
(401,501,l,{
"Letterink-NibData" = {
AngleInDegrees = "90";
};
}),
(235,500,l,{
"Letterink-NibData" = {
AngleInDegrees = "180";
};
}),
(235,0,l,{
"Letterink-NibData" = {
AngleInDegrees = "90";
};
})
);
},
{
closed = 1;
nodes = (
(707,536,l),
(707,684,l,{
"Letterink-NibData" = {
AngleInDegrees = "270";
};
}),
(235,684,l,{
"Letterink-NibData" = {
AngleInDegrees = "180";
};
}),
(235,536,l)
);
}
);
width = 742;
},
{
anchors = (
{
name = bottom;
pos = (456,0);
},
{
name = ogonek;
pos = (672,0);
},
{
name = top;
pos = (449,684);
},
{
name = topleft;
pos = (56,684);
}
);
hints = (
{
name = _corner.caps_swash;
origin = (1,2);
type = Corner;
}
);
layerId = "BDC4F23E-8387-43BA-9F0D-D808B5DC489D";
shapes = (
{
closed = 1;
nodes = (
(672,0,l),
(672,67,l,{
"Letterink-NibData" = {
AngleInDegrees = 270;
};
}),
(300,67,l),
(300,330,l,{
"Letterink-NibData" = {
AngleInDegrees = 90;
};
}),
(554,330,l),
(554,397,l,{
"Letterink-NibData" = {
AngleInDegrees = 270;
};
}),
(300,397,l),
(300,562,l,{
"Letterink-NibData" = {
AngleInDegrees = 270;
};
}),
(228,562,l,{
"Letterink-NibData" = {
AngleInDegrees = 180;
};
}),
(228,0,l,{
"Letterink-NibData" = {
AngleInDegrees = 90;
};
})
);
},
{
closed = 1;
nodes = (
(672,618,l),
(672,685,l,{
"Letterink-NibData" = {
AngleInDegrees = 270;
};
}),
(201,685,l,{
"Letterink-NibData" = {
AngleInDegrees = 180;
};
}),
(201,618,l,{
"Letterink-NibData" = {
AngleInDegrees = 90;
};
})
);
}
);
width = 700;
}
);
metricLeft = E;
metricRight = E;
userData = {
position = 130;
width = 61;
};
},
{
glyphname = Schwa;
kernLeft = O;
kernRight = O;
layers = (
{
anchors = (
{
name = bottom;
pos = (311,-14);
},
{
name = ogonek;
pos = (532,85);
},
{
name = top;
pos = (312,701);
}
);
layerId = "49C16FD3-6177-408B-A733-AEB3898BB77C";
shapes = (
{
closed = 1;
nodes = (
(491,-16,o),
(617,128,o),
(617,365,cs,{
"Letterink-NibData" = {
AngleInDegrees = 180;
};
}),
(617,566,o),
(510,701,o),
(312,701,cs,{
"Letterink-NibData" = {
AngleInDegrees = 90;
};
}),
(226,701,o),
(144,679,o),
(73,630,c,{
"Letterink-NibData" = {
AngleInDegrees = 328.49573;
};
}),
(89,604,l,{
"Letterink-NibData" = {
AngleInDegrees = 241.38954;
};
}),
(167,648,o),
(227,668,o),
(302,668,cs,{
"Letterink-NibData" = {
AngleInDegrees = 270;
};
}),
(559,668,o),
(582,442,o),
(582,359,cs),
(582,168,o),
(474,16,o),
(309,16,cs,{
"Letterink-NibData" = {
AngleInDegrees = 90;
};
}),
(186,16,o),
(82,121,o),
(82,267,cs,{
"Letterink-NibData" = {
AngleInDegrees = 180;
};
}),
(82,278,o),
(83,315,o),
(90,351,c,{
"Letterink-NibData" = {
AngleInDegrees = 90;
};
}),
(51,351,l,{
"Letterink-NibData" = {
AngleInDegrees = 4.96974;
};
}),
(48,316,o),
(46,291,o),
(46,270,cs),
(46,99,o),
(154,-12,o),
(311,-14,cs,{
"Letterink-NibData" = {
AngleInDegrees = 270.42128;
};
})
);
},
{
closed = 1;
nodes = (
(589,318,l,{
"Letterink-NibData" = {
AngleInDegrees = 180;
};
}),
(589,351,l,{
"Letterink-NibData" = {
AngleInDegrees = 90;
};
}),
(77,351,l),
(77,318,l,{
"Letterink-NibData" = {
AngleInDegrees = 270;
};
})
);
}
);
userData = {
RMXScaler = {
height = 140;
weight = -145;
width = 135;
};
};
width = 663;
},
{
anchors = (
{
name = bottom;
pos = (346,48);
},
{
name = ogonek;
pos = (650,96);
},
{
name = top;
pos = (342,697);
}
);
layerId = m004;
shapes = (
{
closed = 1;
nodes = (
(524,-20,o),
(645,161,o),
(645,354,cs,{
"Letterink-NibData" = {
AngleInDegrees = 180;
};
}),
(645,549,o),
(526,705,o),
(315,705,cs,{
"Letterink-NibData" = {
AngleInDegrees = 90;
};
}),
(199,705,o),
(84,659,o),
(30,592,c,{
"Letterink-NibData" = {
AngleInDegrees = 328.49573;
};
}),
(112,476,l,{
"Letterink-NibData" = {
AngleInDegrees = 235.0806;
};
}),
(163,529,o),
(235,558,o),
(304,558,cs,{
"Letterink-NibData" = {
AngleInDegrees = 270;
};
}),
(445,558,o),
(465,437,o),
(465,354,cs),
(465,198,o),
(391,129,o),
(315,129,cs,{
"Letterink-NibData" = {
AngleInDegrees = 90;
};
}),
(250,129,o),
(195,184,o),
(195,264,cs,{
"Letterink-NibData" = {
AngleInDegrees = 180;
};
}),
(195,299,o),
(195,334,o),
(206,399,c,{
"Letterink-NibData" = {
AngleInDegrees = 90;
};
}),
(29,399,l,{
"Letterink-NibData" = {
AngleInDegrees = 4.08562;
};
}),
(23,354,o),
(20,316,o),
(20,268,cs),
(20,100,o),
(144,-18,o),
(312,-19,cs,{
"Letterink-NibData" = {
AngleInDegrees = 270;
};
})
);
},
{
closed = 1;
nodes = (
(627,261,l,{
"Letterink-NibData" = {
AngleInDegrees = 180;
};
}),
(627,399,l,{
"Letterink-NibData" = {
AngleInDegrees = 90;
};
}),
(40,399,l),
(40,261,l,{
"Letterink-NibData" = {
AngleInDegrees = 270;
};
})
);
}
);
userData = {
RMXScaler = {
height = 140;
weight = 200;
width = 135;
};
};
width = 665;
},
{
anchors = (
{
name = bottom;
pos = (318,-3);
},
{
name = ogonek;
pos = (590,72);
},
{
name = top;
pos = (318,709);
}
);
layerId = "BDC4F23E-8387-43BA-9F0D-D808B5DC489D";
shapes = (
{
closed = 1;
nodes = (
(515,-15,o),
(630,166,o),
(630,368,cs,{
"Letterink-NibData" = {
AngleInDegrees = 180;
};
}),
(630,568,o),
(519,709,o),
(318,709,cs,{
"Letterink-NibData" = {
AngleInDegrees = 90;
};
}),
(226,709,o),
(134,682,o),
(66,629,c,{
"Letterink-NibData" = {
AngleInDegrees = 328.49573;
};
}),
(97,577,l,{
"Letterink-NibData" = {
AngleInDegrees = 241.38954;
};
}),
(177,628,o),
(237,643,o),
(312,643,cs,{
"Letterink-NibData" = {
AngleInDegrees = 270;
};
}),
(542,643,o),
(557,442,o),
(557,367,cs),
(557,169,o),
(451,52,o),
(317,52,cs,{
"Letterink-NibData" = {
AngleInDegrees = 90;
};
}),
(204,52,o),
(113,146,o),
(113,272,cs,{
"Letterink-NibData" = {
AngleInDegrees = 180;
};
}),
(113,296,o),
(116,333,o),
(122,371,c,{
"Letterink-NibData" = {
AngleInDegrees = 90;
};
}),
(45,371,l,{
"Letterink-NibData" = {
AngleInDegrees = 4.96974;
};
}),
(43,337,o),
(40,308,o),
(40,275,cs),
(40,110,o),
(158,-14,o),
(317,-15,cs,{
"Letterink-NibData" = {
AngleInDegrees = 270.42128;
};
})
);
},
{
closed = 1;
nodes = (
(603,304,l,{
"Letterink-NibData" = {
AngleInDegrees = 180;
};
}),
(603,371,l,{
"Letterink-NibData" = {
AngleInDegrees = 90;
};
}),
(75,371,l),
(75,304,l,{
"Letterink-NibData" = {
AngleInDegrees = 270;
};
})
);
}
);
userData = {
RMXScaler = {
height = 140;
weight = -145;
width = 135;
};
};
width = 671;
}
);
metricLeft = O;
metricRight = O;
unicode = 399;
userData = {
RMXScaler = {
source = e.ss01;
};
};
},
{
glyphname = F;
kernLeft = E;
kernRight = F;
layers = (
{
anchors = (
{
name = bottom;
pos = (369,-18);
},
{
name = top;
pos = (371,684);
}
);
hints = (
{
name = _corner.caps_left;
origin = (0,8);
type = Corner;
}
);
layerId = "49C16FD3-6177-408B-A733-AEB3898BB77C";
shapes = (
{
closed = 1;
nodes = (
(193,0,l),
(193,345,l,{
"Letterink-NibData" = {
AngleInDegrees = 90;
};
}),
(465,345,l),
(465,381,l,{
"Letterink-NibData" = {
AngleInDegrees = 270;
};
}),
(193,381,l),
(193,648,l,{
"Letterink-NibData" = {
AngleInDegrees = 90;
};
}),
(553,648,l),
(553,684,l,{
"Letterink-NibData" = {
AngleInDegrees = 270;
};
}),
(155,684,l,{
"Letterink-NibData" = {
AngleInDegrees = 180;
};
}),
(155,0,l,{
"Letterink-NibData" = {
AngleInDegrees = 90;
};
})
);
}
);
width = 576;
},
{
anchors = (
{
name = bottom;
pos = (420,-3);
},
{
name = top;
pos = (422,684);
}
);
hints = (
{
name = _corner.caps_left;
origin = (0,8);
type = Corner;
}
);
layerId = m004;
shapes = (
{
closed = 1;
nodes = (
(344,0,l),
(343,263,l,{
"Letterink-NibData" = {
AngleInDegrees = "90";
};
}),
(543,263,l),
(543,401,l,{
"Letterink-NibData" = {
AngleInDegrees = "270";
};
}),
(343,401,l),
(343,536,l,{
"Letterink-NibData" = {
AngleInDegrees = "90";
};
}),
(629,536,l),
(629,684,l,{
"Letterink-NibData" = {
AngleInDegrees = "270";
};
}),
(177,684,l,{
"Letterink-NibData" = {
AngleInDegrees = "180";
};
}),
(177,0,l,{
"Letterink-NibData" = {
AngleInDegrees = "90";
};
})
);
}
);
width = 649;
},
{
anchors = (
{
name = bottom;
pos = (374,-4);
},
{
name = top;
pos = (375,684);
}
);
hints = (
{
name = _corner.caps_left;
origin = (0,8);
type = Corner;
}
);
layerId = "BDC4F23E-8387-43BA-9F0D-D808B5DC489D";
shapes = (
{
closed = 1;
nodes = (
(233,-1,l),
(233,328,l,{
"Letterink-NibData" = {
AngleInDegrees = 90;
};
}),
(488,328,l),
(488,396,l,{
"Letterink-NibData" = {
AngleInDegrees = 270;
};
}),
(233,396,l),
(233,618,l,{
"Letterink-NibData" = {
AngleInDegrees = 90;
};
}),
(574,618,l),
(574,685,l,{
"Letterink-NibData" = {
AngleInDegrees = 270;
};
}),
(160,685,l,{
"Letterink-NibData" = {
AngleInDegrees = 180;
};
}),
(161,-1,l,{
"Letterink-NibData" = {
AngleInDegrees = 90;
};
})
);
}
);
width = 596;
}
);
metricLeft = E;
metricRight = "=E*.8";
unicode = 70;
userData = {
position = 129;
width = 61;
};
},
{
glyphname = F.ss01;
kernLeft = L;
kernRight = F;
layers = (
{
anchors = (
{
name = bottom;
pos = (282,0);
},
{
name = top;
pos = (284,684);
}
);
layerId = "49C16FD3-6177-408B-A733-AEB3898BB77C";
shapes = (
{
closed = 1;
nodes = (
(122,1,l),
(122,337,l,{
"Letterink-NibData" = {
AngleInDegrees = 90;
};
}),
(419,337,l),
(419,372,l,{
"Letterink-NibData" = {
AngleInDegrees = 270;
};
}),
(122,372,l),
(122,648,l,{
"Letterink-NibData" = {
AngleInDegrees = 90;
};
}),
(491,648,l),
(491,685,l,{
"Letterink-NibData" = {
AngleInDegrees = 270;
};
}),
(84,685,l,{
"Letterink-NibData" = {
AngleInDegrees = 180;
};
}),
(84,1,l,{
"Letterink-NibData" = {
AngleInDegrees = 90;
};
})
);
}
);
width = 514;
},
{
anchors = (
{
name = bottom;
pos = (296,-11);
},
{
name = top;
pos = (298,684);
}
);
layerId = m004;
shapes = (
{
closed = 1;
nodes = (
(229,1,l),
(228,263,l,{
"Letterink-NibData" = {
AngleInDegrees = "90";
};
}),
(448,263,l),
(448,401,l,{
"Letterink-NibData" = {
AngleInDegrees = "270";
};
}),
(228,401,l),
(228,536,l,{
"Letterink-NibData" = {
AngleInDegrees = "90";
};
}),
(534,536,l),
(534,684,l,{
"Letterink-NibData" = {
AngleInDegrees = "270";
};
}),
(62,684,l,{
"Letterink-NibData" = {
AngleInDegrees = "180";
};
}),
(62,1,l,{
"Letterink-NibData" = {
AngleInDegrees = "90";
};
})
);
}
);
width = 554;
},
{
anchors = (
{
name = bottom;
pos = (289,0);
},
{
name = top;
pos = (290,684);
}
);
layerId = "BDC4F23E-8387-43BA-9F0D-D808B5DC489D";
shapes = (
{
closed = 1;
nodes = (
(152,-1,l),
(152,320,l,{
"Letterink-NibData" = {
AngleInDegrees = 90;
};
}),
(434,320,l),
(434,388,l,{
"Letterink-NibData" = {
AngleInDegrees = 270;
};
}),
(152,388,l),
(152,617,l,{
"Letterink-NibData" = {
AngleInDegrees = 90;
};
}),
(503,617,l),
(503,686,l,{
"Letterink-NibData" = {
AngleInDegrees = 270;
};
}),
(80,686,l,{
"Letterink-NibData" = {
AngleInDegrees = 180;
};
}),
(80,-1,l,{
"Letterink-NibData" = {
AngleInDegrees = 90;
};
})
);
}
);
width = 525;
}
);
metricLeft = N.ss01;
metricRight = F;
userData = {
position = 95;
width = 61;
};
},
{
glyphname = F.swsh;
kernLeft = Swash;
kernRight = F;
layers = (
{
anchors = (
{
name = bottom;
pos = (401,0);
},
{
name = top;
pos = (397,684);
}
);
hints = (
{
name = _corner.caps_swash;
origin = (1,2);
type = Corner;
}
);
layerId = "49C16FD3-6177-408B-A733-AEB3898BB77C";
shapes = (
{
closed = 1;
nodes = (
(257,0,l),
(257,361,l,{
"Letterink-NibData" = {
AngleInDegrees = 90;
};
}),
(241,345,l,{
"Letterink-NibData" = {
AngleInDegrees = 90;
};
}),
(525,345,l),
(525,381,l,{
"Letterink-NibData" = {
AngleInDegrees = 270;
};
}),
(241,381,l),
(257,365,l),
(257,570,l,{
"Letterink-NibData" = {
AngleInDegrees = 270;
};
}),
(219,570,l,{
"Letterink-NibData" = {
AngleInDegrees = 180;
};
}),
(219,0,l,{
"Letterink-NibData" = {
AngleInDegrees = 90;
};
})
);
},
{
closed = 1;
nodes = (
(629,648,l),
(629,684,l,{
"Letterink-NibData" = {
AngleInDegrees = 270;
};
}),
(186,684,l,{
"Letterink-NibData" = {
AngleInDegrees = 180;
};
}),
(186,648,l,{
"Letterink-NibData" = {
AngleInDegrees = 90;
};
})
);
}
);
width = 652;
},
{
anchors = (
{
name = bottom;
pos = (487,-4);
},
{
name = top;
pos = (490,684);
}
);
hints = (
{
name = _corner.caps_swash;
origin = (1,2);
type = Corner;
}
);
layerId = m004;
shapes = (
{
closed = 1;
nodes = (
(401,0,l),
(401,334,l,{
"Letterink-NibData" = {
AngleInDegrees = "90";
};
}),
(330,263,l,{
"Letterink-NibData" = {
AngleInDegrees = "90";
};
}),
(621,263,l),
(621,401,l,{
"Letterink-NibData" = {
AngleInDegrees = "270";
};
}),
(330,401,l),
(401,340,l),
(401,499,l,{
"Letterink-NibData" = {
AngleInDegrees = "90";
};
}),
(235,499,l),
(235,0,l,{
"Letterink-NibData" = {
AngleInDegrees = "90";
};
})
);
},
{
closed = 1;
nodes = (
(707,536,l),
(707,684,l,{
"Letterink-NibData" = {
AngleInDegrees = "270";
};
}),
(235,684,l,{
"Letterink-NibData" = {
AngleInDegrees = "180";
};
}),
(235,536,l)
);
}
);
width = 727;
},
{
anchors = (
{
name = bottom;
pos = (419,0);
},
{
name = top;
pos = (413,684);
}
);
hints = (
{
name = _corner.caps_swash;
origin = (1,2);
type = Corner;
}
);
layerId = "BDC4F23E-8387-43BA-9F0D-D808B5DC489D";
shapes = (
{
closed = 1;
nodes = (
(302,-1,l),
(302,360,l,{
"Letterink-NibData" = {
AngleInDegrees = 90;
};
}),
(270,329,l,{
"Letterink-NibData" = {
AngleInDegrees = 90;
};
}),
(555,329,l),
(555,396,l,{
"Letterink-NibData" = {
AngleInDegrees = 270;
};
}),
(270,396,l),
(302,364,l),
(302,562,l,{
"Letterink-NibData" = {
AngleInDegrees = 270;
};
}),
(229,562,l,{
"Letterink-NibData" = {
AngleInDegrees = 180;
};
}),
(229,-1,l,{
"Letterink-NibData" = {
AngleInDegrees = 90;
};
})
);
},
{
closed = 1;
nodes = (
(653,617,l),
(653,684,l,{
"Letterink-NibData" = {
AngleInDegrees = 270;
};
}),
(201,684,l,{
"Letterink-NibData" = {
AngleInDegrees = 180;
};
}),
(201,617,l,{
"Letterink-NibData" = {
AngleInDegrees = 90;
};
})
);
}
);
width = 675;
}
);
metricLeft = E.swsh;
metricRight = F;
userData = {
position = 129;
width = 61;
};
},
{
glyphname = G;
kernLeft = O;
kernRight = O;
layers = (
{
anchors = (
{
name = bottom;
pos = (384,0);
},
{
name = top;
pos = (382,688);
}
);
layerId = "49C16FD3-6177-408B-A733-AEB3898BB77C";
shapes = (
{
closed = 1;
nodes = (
(568,-14,o),
(691,118,o),
(691,311,cs),
(691,330,l),
(401,330,l),
(401,292,l),
(673,292,l),
(654,311,l),
(649,132,o),
(547,20,o),
(390,20,cs),
(204,20,o),
(86,150,o),
(86,340,cs),
(86,530,o),
(217,662,o),
(382,662,cs),
(526,662,o),
(597,587,o),
(598,538,cs),
(599,514,o),
(583,485,o),
(554,485,cs),
(543,485,o),
(531,488,o),
(522,494,c),
(502,465,l),
(519,449,o),
(539,448,o),
(554,448,cs),
(595,448,o),
(636,485,o),
(636,538,cs),
(636,620,o),
(536,696,o),
(382,696,cs),
(199,696,o),
(46,555,o),
(46,340,cs),
(46,130,o),
(186,-14,o),
(390,-14,cs)
);
}
);
width = 728;
},
{
anchors = (
{
name = bottom;
pos = (372,-10);
},
{
name = top;
pos = (372,703);
}
);
layerId = m004;
shapes = (
{
closed = 1;
nodes = (
(589,-28,o),
(716,115,o),
(701,342,cs),
(700,357,l),
(379,357,l),
(379,229,l),
(625,229,l),
(550,285,l),
(553,181,o),
(490,116,o),
(385,116,cs),
(263,116,o),
(185,202,o),
(185,336,cs),
(185,474,o),
(269,569,o),
(392,569,cs),
(455,569,o),
(519,546,o),
(519,516,cs),
(519,508,o),
(515,504,o),
(509,504,cs),
(503,504,o),
(499,507,o),
(495,510,c),
(427,422,l),
(449,400,o),
(481,388,o),
(516,388,cs),
(594,388,o),
(658,450,o),
(658,527,cs),
(658,632,o),
(542,713,o),
(389,713,cs),
(175,713,o),
(20,554,o),
(20,336,cs),
(20,124,o),
(167,-28,o),
(381,-28,cs)
);
}
);
width = 720;
},
{
anchors = (
{
name = bottom;
pos = (376,-7);
},
{
name = top;
pos = (376,689);
}
);
layerId = "BDC4F23E-8387-43BA-9F0D-D808B5DC489D";
shapes = (
{
closed = 1;
nodes = (
(585,-19,o),
(696,131,o),
(691,327,cs),
(691,339,l),
(381,339,l),
(381,277,l),
(659,277,l),
(623,305,l),
(622,151,o),
(538,45,o),
(382,45,cs),
(229,45,o),
(112,160,o),
(112,339,cs),
(112,511,o),
(231,637,o),
(386,637,cs),
(521,637,o),
(573,578,o),
(573,540,cs),
(573,525,o),
(563,503,o),
(543,503,cs),
(536,503,o),
(526,504,o),
(518,509,c),
(482,457,l),
(504,441,o),
(526,437,o),
(543,437,cs),
(594,437,o),
(642,479,o),
(642,540,cs),
(642,646,o),
(525,701,o),
(386,701,cs),
(197,701,o),
(40,543,o),
(40,339,cs),
(40,128,o),
(190,-19,o),
(382,-19,cs)
);
}
);
width = 725;
}
);
metricLeft = O;
note = "Bold: 98/95.5%";
unicode = 71;
userData = {
position = 593;
width = 57;
};
},
{
glyphname = G.ss01;
kernLeft = O;
kernRight = O;
layers = (
{
anchors = (
{
name = bottom;
pos = (383,-2);
},
{
name = top;
pos = (390,694);
}
);
layerId = "49C16FD3-6177-408B-A733-AEB3898BB77C";
shapes = (
{
closed = 1;
nodes = (
(571,-12,o),
(692,120,o),
(692,319,cs),
(692,336,l),
(392,336,l),
(392,303,l),
(676,303,l),
(659,319,l),
(659,141,o),
(549,22,o),
(388,22,cs),
(213,22,o),
(84,152,o),
(84,339,cs),
(84,536,o),
(216,666,o),
(390,666,cs),
(519,666,o),
(601,596,o),
(623,524,c),
(655,535,l),
(626,625,o),
(527,699,o),
(390,699,cs),
(197,699,o),
(46,557,o),
(46,339,cs),
(46,132,o),
(190,-12,o),
(388,-12,cs)
);
}
);
width = 729;
},
{
anchors = (
{
name = bottom;
pos = (366,-12);
},
{
name = top;
pos = (380,698);
}
);
layerId = m004;
shapes = (
{
closed = 1;
nodes = (
(574,-31,o),
(711,116,o),
(711,340,c),
(711,377,l),
(394,377,l),
(394,249,l),
(637,249,l),
(563,313,l),
(563,193,o),
(497,117,o),
(382,117,cs),
(265,117,o),
(185,201,o),
(185,338,cs),
(185,467,o),
(263,565,o),
(386,565,cs),
(465,565,o),
(518,522,o),
(529,485,c),
(671,527,l),
(636,648,o),
(515,713,o),
(382,713,cs),
(175,713,o),
(20,559,o),
(20,340,cs),
(20,118,o),
(171,-31,o),
(372,-31,cs)
);
}
);
width = 727;
},
{
anchors = (
{
name = bottom;
pos = (383,-5);
},
{
name = top;
pos = (382,692);
}
);
layerId = "BDC4F23E-8387-43BA-9F0D-D808B5DC489D";
shapes = (
{
closed = 1;
nodes = (
(572,-16,o),
(697,118,o),
(697,320,cs),
(697,353,l),
(391,353,l),
(391,287,l),
(664,287,l),
(631,320,l),
(631,157,o),
(533,51,o),
(385,51,cs),
(225,51,o),
(110,172,o),
(110,344,cs),
(110,517,o),
(227,641,o),
(387,641,cs),
(493,641,o),
(575,587,o),
(597,516,c),
(660,535,l),
(630,637,o),
(521,707,o),
(387,707,cs),
(187,707,o),
(40,556,o),
(40,343,cs),
(40,133,o),
(183,-16,o),
(384,-16,cs)
);
}
);
width = 732;
}
);
metricLeft = O;
userData = {
position = 593;
width = 57;
};
},
{
glyphname = G.swsh;
kernLeft = O;
kernRight = O;
layers = (
{
layerId = "49C16FD3-6177-408B-A733-AEB3898BB77C";
shapes = (
{
closed = 1;
nodes = (
(631,-258,o),
(690,-215,o),
(690,-125,cs),
(690,330,l),
(654,330,l),
(654,-125,ls),
(654,-186,o),
(615,-224,o),
(567,-224,cs),
(537,-224,o),
(509,-207,o),
(494,-176,c),
(464,-193,l),
(485,-234,o),
(521,-258,o),
(567,-258,cs)
);
},
{
ref = G;
}
);
width = 732;
},
{
layerId = m004;
shapes = (
{
closed = 1;
nodes = (
(621,-262,o),
(705,-196,o),
(705,-50,cs),
(705,312,l),
(557,312,l),
(557,-50,ls),
(557,-83,o),
(550,-114,o),
(521,-114,cs),
(511,-114,o),
(492,-105,o),
(483,-87,c),
(351,-153,l),
(384,-219,o),
(447,-262,o),
(521,-262,cs)
);
},
{
ref = G;
}
);
width = 725;
},
{
layerId = "BDC4F23E-8387-43BA-9F0D-D808B5DC489D";
shapes = (
{
closed = 1;
nodes = (
(623,-264,o),
(688,-216,o),
(688,-113,cs),
(688,339,l),
(621,339,l),
(621,-113,ls),
(621,-163,o),
(595,-198,o),
(553,-198,cs),
(531,-198,o),
(507,-184,o),
(494,-158,c),
(435,-188,l),
(458,-234,o),
(503,-264,o),
(553,-264,cs)
);
},
{
ref = G;
}
);
width = 728;
}
);
metricLeft = O;
metricRight = "=G*1.1";
userData = {
position = 593;
width = 57;
};
},
{
glyphname = H;
kernLeft = E;
layers = (
{
anchors = (
{
name = bottom;
pos = (405,0);
},
{
name = center;
pos = (405,489);
},
{
name = leftstem;
pos = (173,0);
},
{
name = top;
pos = (405,685);
},
{
name = topleft;
pos = (78,684);
}
);
hints = (
{
name = _corner.caps_vert;
origin = (0,9);
type = Corner;
}
);
layerId = "49C16FD3-6177-408B-A733-AEB3898BB77C";
shapes = (
{
closed = 1;
nodes = (
(192,0,l),
(192,340,l,{
"Letterink-NibData" = {
AngleInDegrees = 90;
};
}),
(615,340,l,{
"Letterink-NibData" = {
AngleInDegrees = 180;
};
}),
(615,0,l,{
"Letterink-NibData" = {
AngleInDegrees = 90;
};
}),
(652,0,l),
(652,685,l,{
"Letterink-NibData" = {
AngleInDegrees = 270;
};
}),
(615,685,l,{
"Letterink-NibData" = {
AngleInDegrees = 180;
};
}),
(615,376,l,{
"Letterink-NibData" = {
AngleInDegrees = 270;
};
}),
(192,376,l),
(192,595,l,{
"Letterink-NibData" = {
AngleInDegrees = 270;
};
}),
(154,595,l,{
"Letterink-NibData" = {
AngleInDegrees = 180;
};
}),
(154,0,l,{
"Letterink-NibData" = {
AngleInDegrees = 90;
};
})
);
}
);
width = 736;
},
{
anchors = (
{
name = bottom;
pos = (415,0);
},
{
name = center;
pos = (415,500);
},
{
name = leftstem;
pos = (210,0);
},
{
name = top;
pos = (414,684);
},
{
name = topleft;
pos = (92,684);
}
);
hints = (
{
name = _corner.caps_vert;
origin = (0,9);
type = Corner;
}
);
layerId = m004;
shapes = (
{
closed = 1;
nodes = (
(295,0,l),
(295,275,l,{
"Letterink-NibData" = {
AngleInDegrees = "90";
};
}),
(535,275,l,{
"Letterink-NibData" = {
AngleInDegrees = "180";
};
}),
(535,0,l,{
"Letterink-NibData" = {
AngleInDegrees = "90";
};
}),
(700,0,l),
(700,684,l,{
"Letterink-NibData" = {
AngleInDegrees = "270";
};
}),
(535,684,l,{
"Letterink-NibData" = {
AngleInDegrees = "180";
};
}),
(535,413,l,{
"Letterink-NibData" = {
AngleInDegrees = "270";
};
}),
(295,413,l),
(295,526,l,{
"Letterink-NibData" = {
AngleInDegrees = "270";
};
}),
(130,526,l,{
"Letterink-NibData" = {
AngleInDegrees = "180";
};
}),
(130,0,l,{
"Letterink-NibData" = {
AngleInDegrees = "90";
};
})
);
}
);
width = 762;
},
{
anchors = (
{
name = bottom;
pos = (404,0);
},
{
name = center;
pos = (404,497);
},
{
name = leftstem;
pos = (178,0);
},
{
name = top;
pos = (404,677);
},
{
name = topleft;
pos = (52,684);
}
);
hints = (
{
name = _corner.caps_vert;
origin = (0,9);
type = Corner;
}
);
layerId = "BDC4F23E-8387-43BA-9F0D-D808B5DC489D";
shapes = (
{
closed = 1;
nodes = (
(214,0,l),
(214,324,l,{
"Letterink-NibData" = {
AngleInDegrees = 90;
};
}),
(593,324,l,{
"Letterink-NibData" = {
AngleInDegrees = 180;
};
}),
(593,0,l,{
"Letterink-NibData" = {
AngleInDegrees = 90;
};
}),
(665,0,l),
(665,686,l,{
"Letterink-NibData" = {
AngleInDegrees = 270;
};
}),
(593,686,l,{
"Letterink-NibData" = {
AngleInDegrees = 180;
};
}),
(593,391,l,{
"Letterink-NibData" = {
AngleInDegrees = 270;
};
}),
(214,391,l),
(214,587,l,{
"Letterink-NibData" = {
AngleInDegrees = 270;
};
}),
(142,587,l,{
"Letterink-NibData" = {
AngleInDegrees = 180;
};
}),
(142,0,l,{
"Letterink-NibData" = {
AngleInDegrees = 90;
};
})
);
}
);
width = 745;
}
);
unicode = 72;
userData = {
position = 554;
width = 61;
};
},
{
glyphname = H.ss01;
kernLeft = L;
layers = (
{
anchors = (
{
name = bottom;
pos = (334,0);
},
{
name = center;
pos = (336,498);
},
{
name = top;
pos = (335,684);
},
{
name = topleft;
pos = (25,684);
}
);
layerId = "49C16FD3-6177-408B-A733-AEB3898BB77C";
shapes = (
{
closed = 1;
nodes = (
(122,0,l),
(122,348,l,{
"Letterink-NibData" = {
AngleInDegrees = 90;
};
}),
(550,348,l,{
"Letterink-NibData" = {
AngleInDegrees = 180;
};
}),
(550,0,l,{
"Letterink-NibData" = {
AngleInDegrees = 90;
};
}),
(588,0,l),
(588,684,l,{
"Letterink-NibData" = {
AngleInDegrees = 270;
};
}),
(550,684,l,{
"Letterink-NibData" = {
AngleInDegrees = 180;
};
}),
(550,384,l,{
"Letterink-NibData" = {
AngleInDegrees = 270;
};
}),
(122,384,l),
(122,684,l,{
"Letterink-NibData" = {
AngleInDegrees = 270;
};
}),
(84,684,l,{
"Letterink-NibData" = {
AngleInDegrees = 180;
};
}),
(84,0,l,{
"Letterink-NibData" = {
AngleInDegrees = 90;
};
})
);
}
);
width = 672;
},
{
anchors = (
{
name = bottom;
pos = (353,0);
},
{
name = center;
pos = (354,508);
},
{
name = top;
pos = (353,684);
},
{
name = topleft;
pos = (19,684);
}
);
layerId = m004;
shapes = (
{
closed = 1;
nodes = (
(227,0,l),
(227,280,l,{
"Letterink-NibData" = {
AngleInDegrees = "90";
};
}),
(478,280,l,{
"Letterink-NibData" = {
AngleInDegrees = "180";
};
}),
(478,0,l,{
"Letterink-NibData" = {
AngleInDegrees = "90";
};
}),
(643,0,l),
(643,684,l,{
"Letterink-NibData" = {
AngleInDegrees = "270";
};
}),
(478,684,l,{
"Letterink-NibData" = {
AngleInDegrees = "180";
};
}),
(478,418,l,{
"Letterink-NibData" = {
AngleInDegrees = "270";
};
}),
(227,418,l),
(227,684,l,{
"Letterink-NibData" = {
AngleInDegrees = "270";
};
}),
(62,684,l,{
"Letterink-NibData" = {
AngleInDegrees = "180";
};
}),
(62,0,l,{
"Letterink-NibData" = {
AngleInDegrees = "90";
};
})
);
}
);
width = 705;
},
{
anchors = (
{
name = bottom;
pos = (347,0);
},
{
name = center;
pos = (348,509);
},
{
name = top;
pos = (348,684);
},
{
name = topleft;
pos = (32,684);
}
);
layerId = "BDC4F23E-8387-43BA-9F0D-D808B5DC489D";
shapes = (
{
closed = 1;
nodes = (
(152,-1,l),
(152,327,l,{
"Letterink-NibData" = {
AngleInDegrees = 90;
};
}),
(541,327,l,{
"Letterink-NibData" = {
AngleInDegrees = 180;
};
}),
(541,-1,l,{
"Letterink-NibData" = {
AngleInDegrees = 90;
};
}),
(613,-1,l),
(613,684,l,{
"Letterink-NibData" = {
AngleInDegrees = 270;
};
}),
(541,684,l,{
"Letterink-NibData" = {
AngleInDegrees = 180;
};
}),
(541,394,l,{
"Letterink-NibData" = {
AngleInDegrees = 270;
};
}),
(152,394,l),
(152,684,l,{
"Letterink-NibData" = {
AngleInDegrees = 270;
};
}),
(80,684,l,{
"Letterink-NibData" = {
AngleInDegrees = 180;
};
}),
(80,-1,l,{
"Letterink-NibData" = {
AngleInDegrees = 90;
};
})
);
}
);
width = 693;
}
);
metricLeft = "=|H";
metricRight = H;
userData = {
position = 525;
width = 61;
};
},
{
glyphname = H.swsh;
kernLeft = Swash;
layers = (
{
anchors = (
{
name = bottom;
pos = (437,0);
},
{
name = center;
pos = (437,450);
},
{
name = top;
pos = (437,684);
},
{
name = topleft;
pos = (104,684);
}
);
hints = (
{
name = _corner.caps_swash_vert;
origin = (0,9);
type = Corner;
}
);
layerId = "49C16FD3-6177-408B-A733-AEB3898BB77C";
shapes = (
{
closed = 1;
nodes = (
(232,1,l),
(232,340,l,{
"Letterink-NibData" = {
AngleInDegrees = 90;
};
}),
(653,340,l,{
"Letterink-NibData" = {
AngleInDegrees = 180;
};
}),
(653,1,l,{
"Letterink-NibData" = {
AngleInDegrees = 90;
};
}),
(691,1,l),
(691,685,l,{
"Letterink-NibData" = {
AngleInDegrees = 270;
};
}),
(653,685,l,{
"Letterink-NibData" = {
AngleInDegrees = 180;
};
}),
(653,376,l,{
"Letterink-NibData" = {
AngleInDegrees = 270;
};
}),
(232,376,l),
(232,570,l,{
"Letterink-NibData" = {
AngleInDegrees = 270;
};
}),
(194,570,l,{
"Letterink-NibData" = {
AngleInDegrees = 180;
};
}),
(194,1,l,{
"Letterink-NibData" = {
AngleInDegrees = 90;
};
})
);
}
);
width = 775;
},
{
anchors = (
{
name = bottom;
pos = (484,0);
},
{
name = center;
pos = (484,512);
},
{
name = top;
pos = (484,684);
},
{
name = topleft;
pos = (157,684);
}
);
hints = (
{
name = _corner.caps_swash_vert;
origin = (0,9);
type = Corner;
}
);
layerId = m004;
shapes = (
{
closed = 1;
nodes = (
(367,-1,l),
(367,275,l,{
"Letterink-NibData" = {
AngleInDegrees = "90";
};
}),
(607,275,l,{
"Letterink-NibData" = {
AngleInDegrees = "180";
};
}),
(607,-1,l,{
"Letterink-NibData" = {
AngleInDegrees = "90";
};
}),
(772,-1,l),
(772,684,l,{
"Letterink-NibData" = {
AngleInDegrees = "270";
};
}),
(607,684,l,{
"Letterink-NibData" = {
AngleInDegrees = "180";
};
}),
(607,413,l,{
"Letterink-NibData" = {
AngleInDegrees = "270";
};
}),
(367,413,l),
(367,503,l,{
"Letterink-NibData" = {
AngleInDegrees = "270";
};
}),
(202,503,l,{
"Letterink-NibData" = {
AngleInDegrees = "180";
};
}),
(202,-1,l,{
"Letterink-NibData" = {
AngleInDegrees = "90";
};
})
);
}
);
width = 834;
},
{
anchors = (
{
name = bottom;
pos = (443,0);
},
{
name = center;
pos = (443,472);
},
{
name = top;
pos = (443,677);
},
{
name = topleft;
pos = (88,684);
}
);
hints = (
{
name = _corner.caps_swash_vert;
origin = (0,9);
type = Corner;
}
);
layerId = "BDC4F23E-8387-43BA-9F0D-D808B5DC489D";
shapes = (
{
closed = 1;
nodes = (
(261,-1,l),
(261,322,l,{
"Letterink-NibData" = {
AngleInDegrees = 90;
};
}),
(639,322,l,{
"Letterink-NibData" = {
AngleInDegrees = 180;
};
}),
(639,-1,l,{
"Letterink-NibData" = {
AngleInDegrees = 90;
};
}),
(711,-1,l),
(711,686,l,{
"Letterink-NibData" = {
AngleInDegrees = 270;
};
}),
(639,686,l,{
"Letterink-NibData" = {
AngleInDegrees = 180;
};
}),
(639,391,l,{
"Letterink-NibData" = {
AngleInDegrees = 270;
};
}),
(261,391,l),
(261,562,l,{
"Letterink-NibData" = {
AngleInDegrees = 270;
};
}),
(189,562,l,{
"Letterink-NibData" = {
AngleInDegrees = 180;
};
}),
(189,-1,l,{
"Letterink-NibData" = {
AngleInDegrees = 90;
};
})
);
}
);
width = 791;
}
);
metricLeft = "=H";
metricRight = H;
userData = {
position = 554;
width = 61;
};
},
{
glyphname = I;
layers = (
{
anchors = (
{
name = bottom;
pos = (101,0);
},
{
name = center;
pos = (103,363);
},
{
name = ogonek;
pos = (122,1);
},
{
name = top;
pos = (103,685);
},
{
name = topleft;
pos = (15,684);
}
);
layerId = "49C16FD3-6177-408B-A733-AEB3898BB77C";
shapes = (
{
closed = 1;
nodes = (
(122,1,l),
(122,684,l,{
"Letterink-NibData" = {
AngleInDegrees = 270;
};
}),
(84,684,l,{
"Letterink-NibData" = {
AngleInDegrees = 180;
};
}),
(84,1,l,{
"Letterink-NibData" = {
AngleInDegrees = 90;
};
})
);
}
);
width = 206;
},
{
anchors = (
{
name = bottom;
pos = (145,-1);
},
{
name = center;
pos = (145,342);
},
{
name = ogonek;
pos = (227,0);
},
{
name = top;
pos = (144,684);
},
{
name = topleft;
pos = (0,684);
}
);
layerId = m004;
shapes = (
{
closed = 1;
nodes = (
(227,0,l),
(227,684,l,{
"Letterink-NibData" = {
AngleInDegrees = 270;
};
}),
(62,684,l,{
"Letterink-NibData" = {
AngleInDegrees = 180;
};
}),
(62,0,l,{
"Letterink-NibData" = {
AngleInDegrees = 90;
};
})
);
}
);
width = 289;
},
{
anchors = (
{
name = bottom;
pos = (115,0);
},
{
name = center;
pos = (116,351);
},
{
name = ogonek;
pos = (152,-1);
},
{
name = top;
pos = (114,684);
},
{
name = topleft;
pos = (13,684);
}
);
layerId = "BDC4F23E-8387-43BA-9F0D-D808B5DC489D";
shapes = (
{
closed = 1;
nodes = (
(152,-1,l),
(152,684,l,{
"Letterink-NibData" = {
AngleInDegrees = 270;
};
}),
(80,684,l,{
"Letterink-NibData" = {
AngleInDegrees = 180;
};
}),
(80,-1,l,{
"Letterink-NibData" = {
AngleInDegrees = 90;
};
})
);
}
);
width = 232;
}
);
metricLeft = "=|H";
metricRight = H;
unicode = 73;
userData = {
position = 54;
width = 61;
};
},
{
glyphname = I.swsh;
kernLeft = Swash;
layers = (
{
anchors = (
{
name = bottom;
pos = (254,0);
},
{
name = center;
pos = (253,342);
},
{
name = ogonek;
pos = (276,1);
},
{
name = top;
pos = (253,684);
},
{
name = topleft;
pos = (165,684);
}
);
hints = (
{
name = _corner.caps_swash;
origin = (1,2);
type = Corner;
}
);
layerId = "49C16FD3-6177-408B-A733-AEB3898BB77C";
shapes = (
{
closed = 1;
nodes = (
(271,1,l),
(271,684,l,{
"Letterink-NibData" = {
AngleInDegrees = 270;
};
}),
(234,684,l,{
"Letterink-NibData" = {
AngleInDegrees = 180;
};
}),
(234,1,l,{
"Letterink-NibData" = {
AngleInDegrees = 90;
};
})
);
},
{
closed = 1;
nodes = (
(240,648,l),
(240,684,l),
(186,684,l),
(186,648,l)
);
}
);
width = 355;
},
{
anchors = (
{
name = bottom;
pos = (328,0);
},
{
name = center;
pos = (332,341);
},
{
name = ogonek;
pos = (411,-1);
},
{
name = top;
pos = (331,684);
},
{
name = topleft;
pos = (180,684);
}
);
hints = (
{
name = _corner.caps_swash;
origin = (1,2);
type = Corner;
}
);
layerId = m004;
shapes = (
{
closed = 1;
nodes = (
(411,-1,l),
(411,684,l,{
"Letterink-NibData" = {
AngleInDegrees = 270;
};
}),
(246,684,l,{
"Letterink-NibData" = {
AngleInDegrees = 180;
};
}),
(246,-1,l,{
"Letterink-NibData" = {
AngleInDegrees = 90;
};
})
);
},
{
closed = 1;
nodes = (
(373,536,l),
(373,684,l),
(235,684,l,{
"Letterink-NibData" = {
AngleInDegrees = 180;
};
}),
(235,536,l)
);
}
);
width = 473;
},
{
anchors = (
{
name = bottom;
pos = (264,0);
},
{
name = center;
pos = (263,340);
},
{
name = ogonek;
pos = (301,-1);
},
{
name = top;
pos = (264,684);
},
{
name = topleft;
pos = (161,684);
}
);
hints = (
{
name = _corner.caps_swash;
origin = (1,2);
type = Corner;
}
);
layerId = "BDC4F23E-8387-43BA-9F0D-D808B5DC489D";
shapes = (
{
closed = 1;
nodes = (
(300,0,l),
(300,684,l,{
"Letterink-NibData" = {
AngleInDegrees = 270;
};
}),
(228,684,l,{
"Letterink-NibData" = {
AngleInDegrees = 180;
};
}),
(228,0,l,{
"Letterink-NibData" = {
AngleInDegrees = 90;
};
})
);
},
{
closed = 1;
nodes = (
(264,617,l),
(264,684,l),
(201,684,l),
(201,617,l)
);
}
);
width = 380;
}
);
metricLeft = E.swsh;
metricRight = H;
userData = {
position = 54;
width = 61;
};
},
{
glyphname = IJ;
kernRight = J;
layers = (
{
anchors = (
{
name = bottom;
pos = (352,0);
},
{
name = top;
pos = (368,684);
}
);
layerId = "49C16FD3-6177-408B-A733-AEB3898BB77C";
shapes = (
{
closed = 1;
nodes = (
(454,-6,o),
(539,82,o),
(539,219,cs),
(539,684,l,{
"Letterink-NibData" = {
AngleInDegrees = "268.5679";
};
}),
(503,684,l,{
"Letterink-NibData" = {
AngleInDegrees = "184.66686";
};
}),
(501,653,l),
(501,222,ls,{
"Letterink-NibData" = {
AngleInDegrees = "180";
};
}),
(501,103,o),
(429,30,o),
(318,30,cs,{
"Letterink-NibData" = {
AngleInDegrees = "270";
};
}),
(217,30,o),
(147,85,o),
(138,177,c),
(100,172,l),
(110,64,o),
(192,-6,o),
(319,-6,cs,{
"Letterink-NibData" = {
AngleInDegrees = "90";
};
})
);
},
{
alignment = -1;
pos = (0,264);
ref = I;
scale = (1,0.6157);
},
{
closed = 1;
nodes = (
(485,633,o),
(526,649,o),
(538,684,c),
(500,684,l),
(490,673,o),
(470,669,o),
(443,669,cs),
(401,669,o),
(377,693,o),
(321,693,cs),
(286,693,o),
(246,680,o),
(221,662,c),
(240,632,l),
(258,645,o),
(293,657,o),
(321,657,cs),
(361,657,o),
(385,633,o),
(443,633,cs)
);
}
);
width = 619;
},
{
anchors = (
{
name = bottom;
pos = (384,0);
},
{
name = top;
pos = (359,684);
}
);
layerId = m004;
shapes = (
{
closed = 1;
nodes = (
(527,-27,o),
(638,77,o),
(638,244,cs),
(638,684,l,{
"Letterink-NibData" = {
AngleInDegrees = "270";
};
}),
(516,684,l,{
"Letterink-NibData" = {
AngleInDegrees = "211.6075";
};
}),
(473,632,l),
(473,247,ls,{
"Letterink-NibData" = {
AngleInDegrees = "180";
};
}),
(473,187,o),
(429,125,o),
(351,125,cs,{
"Letterink-NibData" = {
AngleInDegrees = "270";
};
}),
(284,125,o),
(227,165,o),
(221,225,c),
(69,212,l),
(76,77,o),
(182,-27,o),
(352,-27,cs,{
"Letterink-NibData" = {
AngleInDegrees = "90";
};
})
);
},
{
pos = (0,300);
ref = I;
scale = (1,0.5611);
},
{
closed = 1;
nodes = (
(549,525,o),
(637,602,o),
(638,684,c,{
"Letterink-NibData" = {
AngleInDegrees = "270";
};
}),
(500,684,l),
(498,679,o),
(487,673,o),
(472,673,cs),
(449,673,o),
(409,698,o),
(351,698,cs),
(316,698,o),
(273,688,o),
(239,666,c),
(307,538,l),
(326,548,o),
(336,550,o),
(351,550,cs),
(378,550,o),
(417,525,o),
(472,525,cs)
);
}
);
width = 697;
},
{
anchors = (
{
name = bottom;
pos = (326,0);
},
{
name = top;
pos = (329,684);
}
);
layerId = "BDC4F23E-8387-43BA-9F0D-D808B5DC489D";
shapes = (
{
closed = 1;
nodes = (
(463,-11,o),
(557,76,o),
(557,232,cs),
(557,684,l,{
"Letterink-NibData" = {
AngleInDegrees = "268.5679";
};
}),
(491,684,l,{
"Letterink-NibData" = {
AngleInDegrees = "184.66686";
};
}),
(485,654,l),
(485,238,ls,{
"Letterink-NibData" = {
AngleInDegrees = "180";
};
}),
(485,118,o),
(420,55,o),
(318,55,cs,{
"Letterink-NibData" = {
AngleInDegrees = "270";
};
}),
(215,55,o),
(159,128,o),
(157,192,c),
(87,182,l),
(91,75,o),
(179,-11,o),
(316,-11,cs,{
"Letterink-NibData" = {
AngleInDegrees = "90";
};
})
);
},
{
alignment = -1;
pos = (0,280);
ref = I;
scale = (1,0.5916);
},
{
closed = 1;
nodes = (
(497,606,o),
(549,641,o),
(557,684,c),
(486,684,l),
(477,677,o),
(463,673,o),
(441,673,cs),
(408,673,o),
(384,698,o),
(331,698,cs),
(294,698,o),
(255,688,o),
(218,663,c),
(250,608,l),
(275,625,o),
(304,631,o),
(331,631,cs),
(363,631,o),
(387,606,o),
(441,606,cs)
);
}
);
width = 633;
}
);
metricLeft = I;
metricRight = J;
unicode = 306;
userData = {
position = 507;
width = 53;
};
},
{
glyphname = IJ.ss01;
kernRight = J;
layers = (
{
layerId = "49C16FD3-6177-408B-A733-AEB3898BB77C";
shapes = (
{
closed = 1;
nodes = (
(427,-6,o),
(510,80,o),
(510,214,cs),
(510,685,l,{
"Letterink-NibData" = {
AngleInDegrees = 268.5679;
};
}),
(472,684,l,{
"Letterink-NibData" = {
AngleInDegrees = 184.66686;
};
}),
(472,217,ls,{
"Letterink-NibData" = {
AngleInDegrees = 180;
};
}),
(472,101,o),
(402,30,o),
(294,30,cs,{
"Letterink-NibData" = {
AngleInDegrees = 270;
};
}),
(204,30,o),
(136,88,o),
(127,167,c),
(89,162,l),
(98,71,o),
(174,-6,o),
(295,-6,cs,{
"Letterink-NibData" = {
AngleInDegrees = 90;
};
})
);
},
{
alignment = -1;
pos = (0,234);
ref = I;
scale = (1,0.6583);
}
);
width = 590;
},
{
layerId = m004;
shapes = (
{
closed = 1;
nodes = (
(486,-22,o),
(582,78,o),
(582,239,cs),
(582,684,l,{
"Letterink-NibData" = {
AngleInDegrees = "270";
};
}),
(417,684,l,{
"Letterink-NibData" = {
AngleInDegrees = "211.6075";
};
}),
(417,242,ls,{
"Letterink-NibData" = {
AngleInDegrees = "180";
};
}),
(417,187,o),
(387,130,o),
(319,130,cs,{
"Letterink-NibData" = {
AngleInDegrees = "270";
};
}),
(252,130,o),
(221,170,o),
(216,216,c),
(62,203,l),
(59,82,o),
(150,-22,o),
(320,-22,cs,{
"Letterink-NibData" = {
AngleInDegrees = "90";
};
})
);
},
{
pos = (3,275);
ref = I;
scale = (1,0.5969);
}
);
width = 641;
},
{
layerId = "BDC4F23E-8387-43BA-9F0D-D808B5DC489D";
shapes = (
{
closed = 1;
nodes = (
(435,-11,o),
(523,75,o),
(523,212,cs),
(523,684,l,{
"Letterink-NibData" = {
AngleInDegrees = 268.5679;
};
}),
(452,684,l,{
"Letterink-NibData" = {
AngleInDegrees = 184.66686;
};
}),
(451,215,ls,{
"Letterink-NibData" = {
AngleInDegrees = 180;
};
}),
(451,117,o),
(391,55,o),
(297,55,cs,{
"Letterink-NibData" = {
AngleInDegrees = 270;
};
}),
(207,55,o),
(157,114,o),
(154,174,c),
(84,164,l),
(88,69,o),
(169,-11,o),
(295,-11,cs,{
"Letterink-NibData" = {
AngleInDegrees = 90;
};
})
);
},
{
alignment = -1;
pos = (0,239);
ref = I;
scale = (1,0.6504);
}
);
width = 599;
}
);
metricLeft = I;
metricRight = J;
userData = {
position = 507;
width = 53;
};
},
{
glyphname = J;
kernLeft = J;
kernRight = J;
layers = (
{
anchors = (
{
name = bottom;
pos = (261,0);
},
{
name = top;
pos = (277,689);
}
);
layerId = "49C16FD3-6177-408B-A733-AEB3898BB77C";
shapes = (
{
closed = 1;
nodes = (
(355,-6,o),
(437,72,o),
(437,194,cs),
(437,688,l,{
"Letterink-NibData" = {
AngleInDegrees = "270";
};
}),
(392,688,l,{
"Letterink-NibData" = {
AngleInDegrees = "209.35776";
};
}),
(382,671,o),
(355,660,o),
(333,660,cs,{
"Letterink-NibData" = {
AngleInDegrees = "270";
};
}),
(292,660,o),
(232,696,o),
(189,696,cs,{
"Letterink-NibData" = {
AngleInDegrees = "270";
};
}),
(164,696,o),
(139,696,o),
(93,672,c,{
"Letterink-NibData" = {
AngleInDegrees = "153.43495";
};
}),
(109,640,l,{
"Letterink-NibData" = {
AngleInDegrees = 70.82099;
};
}),
(127,650,o),
(155,661,o),
(185,661,cs,{
"Letterink-NibData" = {
AngleInDegrees = "90";
};
}),
(249,661,o),
(267,625,o),
(331,625,cs,{
"Letterink-NibData" = {
AngleInDegrees = "90";
};
}),
(358,625,o),
(382,632,o),
(399,650,c,{
"Letterink-NibData" = {
AngleInDegrees = "180";
};
}),
(399,197,ls,{
"Letterink-NibData" = {
AngleInDegrees = "180";
};
}),
(399,94,o),
(333,30,o),
(230,30,cs,{
"Letterink-NibData" = {
AngleInDegrees = "270";
};
}),
(121,30,o),
(66,89,o),
(64,168,c,{
"Letterink-NibData" = {
AngleInDegrees = "275.5722";
};
}),
(27,168,l,{
"Letterink-NibData" = {
AngleInDegrees = "176.71075";
};
}),
(34,62,o),
(108,-6,o),
(227,-6,cs,{
"Letterink-NibData" = {
AngleInDegrees = "90";
};
})
);
}
);
width = 517;
},
{
anchors = (
{
name = bottom;
pos = (306,0);
},
{
name = top;
pos = (281,689);
}
);
layerId = m004;
shapes = (
{
closed = 1;
nodes = (
(412,-22,o),
(506,70,o),
(506,217,cs),
(506,697,l,{
"Letterink-NibData" = {
AngleInDegrees = 270;
};
}),
(399,697,l,{
"Letterink-NibData" = {
AngleInDegrees = 211.6075;
};
}),
(383,682,o),
(358,674,o),
(335,674,cs,{
"Letterink-NibData" = {
AngleInDegrees = 270;
};
}),
(293,674,o),
(253,696,o),
(180,696,cs,{
"Letterink-NibData" = {
AngleInDegrees = 270;
};
}),
(121,696,o),
(85,686,o),
(35,653,c,{
"Letterink-NibData" = {
AngleInDegrees = 153.09391;
};
}),
(103,521,l,{
"Letterink-NibData" = {
AngleInDegrees = 67.52057;
};
}),
(132,534,o),
(165,541,o),
(195,541,cs,{
"Letterink-NibData" = {
AngleInDegrees = 90;
};
}),
(240,541,o),
(268,524,o),
(300,524,cs,{
"Letterink-NibData" = {
AngleInDegrees = 90;
};
}),
(322,524,o),
(337,529,o),
(341,533,c,{
"Letterink-NibData" = {
AngleInDegrees = 180;
};
}),
(341,220,ls,{
"Letterink-NibData" = {
AngleInDegrees = 180;
};
}),
(341,172,o),
(312,130,o),
(257,130,cs,{
"Letterink-NibData" = {
AngleInDegrees = 270;
};
}),
(199,130,o),
(166,168,o),
(166,237,c,{
"Letterink-NibData" = {
AngleInDegrees = 274.39871;
};
}),
(12,237,l,{
"Letterink-NibData" = {
AngleInDegrees = 181.88819;
};
}),
(3,94,o),
(94,-22,o),
(258,-22,cs,{
"Letterink-NibData" = {
AngleInDegrees = 90;
};
})
);
}
);
width = 565;
},
{
anchors = (
{
name = bottom;
pos = (268,0);
},
{
name = top;
pos = (271,689);
}
);
layerId = "BDC4F23E-8387-43BA-9F0D-D808B5DC489D";
shapes = (
{
closed = 1;
nodes = (
(368,-7,o),
(454,74,o),
(454,201,cs),
(454,689,l,{
"Letterink-NibData" = {
AngleInDegrees = "270";
};
}),
(390,689,l,{
"Letterink-NibData" = {
AngleInDegrees = "209.35776";
};
}),
(382,676,o),
(352,662,o),
(332,662,cs,{
"Letterink-NibData" = {
AngleInDegrees = "270";
};
}),
(290,662,o),
(251,698,o),
(202,698,cs,{
"Letterink-NibData" = {
AngleInDegrees = "270";
};
}),
(169,698,o),
(138,693,o),
(84,666,c,{
"Letterink-NibData" = {
AngleInDegrees = "153.43495";
};
}),
(114,607,l,{
"Letterink-NibData" = {
AngleInDegrees = 70.82099;
};
}),
(141,619,o),
(169,629,o),
(195,629,cs,{
"Letterink-NibData" = {
AngleInDegrees = "90";
};
}),
(247,629,o),
(280,596,o),
(328,596,cs,{
"Letterink-NibData" = {
AngleInDegrees = "90";
};
}),
(351,596,o),
(368,599,o),
(382,607,c,{
"Letterink-NibData" = {
AngleInDegrees = "180";
};
}),
(382,204,ls,{
"Letterink-NibData" = {
AngleInDegrees = "180";
};
}),
(382,116,o),
(326,60,o),
(237,60,cs,{
"Letterink-NibData" = {
AngleInDegrees = "270";
};
}),
(145,60,o),
(91,116,o),
(94,196,c,{
"Letterink-NibData" = {
AngleInDegrees = "275.5722";
};
}),
(25,196,l,{
"Letterink-NibData" = {
AngleInDegrees = "176.71075";
};
}),
(24,73,o),
(104,-7,o),
(234,-7,cs,{
"Letterink-NibData" = {
AngleInDegrees = "90";
};
})
);
}
);
width = 530;
}
);
metricRight = "=H*.95";
unicode = 74;
userData = {
position = 333;
width = 53;
};
},
{
glyphname = J.ss01;
kernLeft = Jtext;
kernRight = J;
layers = (
{
anchors = (
{
name = bottom;
pos = (209,-6);
},
{
name = top;
pos = (402,684);
}
);
layerId = "49C16FD3-6177-408B-A733-AEB3898BB77C";
shapes = (
{
closed = 1;
nodes = (
(341,-6,o),
(420,78,o),
(420,210,cs),
(420,685,l,{
"Letterink-NibData" = {
AngleInDegrees = 268.5679;
};
}),
(382,684,l,{
"Letterink-NibData" = {
AngleInDegrees = 184.66686;
};
}),
(382,213,ls,{
"Letterink-NibData" = {
AngleInDegrees = 180;
};
}),
(382,99,o),
(316,30,o),
(215,30,cs,{
"Letterink-NibData" = {
AngleInDegrees = 270;
};
}),
(124,30,o),
(63,90,o),
(60,190,c,{
"Letterink-NibData" = {
AngleInDegrees = 275.19443;
};
}),
(20,190,l,{
"Letterink-NibData" = {
AngleInDegrees = 178.68309;
};
}),
(22,72,o),
(97,-6,o),
(216,-6,cs,{
"Letterink-NibData" = {
AngleInDegrees = 90;
};
})
);
}
);
width = 500;
},
{
anchors = (
{
name = bottom;
pos = (248,-7);
},
{
name = top;
pos = (386,684);
}
);
layerId = m004;
shapes = (
{
closed = 1;
nodes = (
(382,-22,o),
(472,74,o),
(472,227,cs),
(472,686,l,{
"Letterink-NibData" = {
AngleInDegrees = "270";
};
}),
(307,686,l,{
"Letterink-NibData" = {
AngleInDegrees = "180";
};
}),
(307,230,ls,{
"Letterink-NibData" = {
AngleInDegrees = "180";
};
}),
(307,169,o),
(281,130,o),
(232,130,cs,{
"Letterink-NibData" = {
AngleInDegrees = "270";
};
}),
(176,130,o),
(157,180,o),
(157,224,c,{
"Letterink-NibData" = {
AngleInDegrees = "274.39871";
};
}),
(10,224,l,{
"Letterink-NibData" = {
AngleInDegrees = "181.88819";
};
}),
(-7,89,o),
(79,-22,o),
(232,-22,cs,{
"Letterink-NibData" = {
AngleInDegrees = "90";
};
})
);
}
);
width = 531;
},
{
anchors = (
{
name = bottom;
pos = (221,-8);
},
{
name = top;
pos = (404,684);
}
);
layerId = "BDC4F23E-8387-43BA-9F0D-D808B5DC489D";
shapes = (
{
closed = 1;
nodes = (
(358,-8,o),
(441,81,o),
(441,222,cs),
(441,684,l,{
"Letterink-NibData" = {
AngleInDegrees = 268.5679;
};
}),
(369,684,l,{
"Letterink-NibData" = {
AngleInDegrees = 184.66686;
};
}),
(369,225,ls,{
"Letterink-NibData" = {
AngleInDegrees = 180;
};
}),
(369,115,o),
(306,59,o),
(230,59,cs,{
"Letterink-NibData" = {
AngleInDegrees = 270;
};
}),
(133,59,o),
(82,111,o),
(85,207,c,{
"Letterink-NibData" = {
AngleInDegrees = 275.19443;
};
}),
(19,207,l,{
"Letterink-NibData" = {
AngleInDegrees = 178.68309;
};
}),
(14,75,o),
(89,-8,o),
(228,-8,cs,{
"Letterink-NibData" = {
AngleInDegrees = 90;
};
})
);
}
);
width = 517;
}
);
metricLeft = "=J*.75";
metricRight = J;
userData = {
position = 333;
width = 53;
};
},
{
glyphname = J.swsh;
kernLeft = J;
kernRight = J;
layers = (
{
anchors = (
{
name = bottom;
pos = (260,0);
},
{
name = top;
pos = (259,684);
}
);
layerId = "49C16FD3-6177-408B-A733-AEB3898BB77C";
shapes = (
{
closed = 1;
nodes = (
(354,-6,o),
(436,77,o),
(436,204,cs),
(436,686,l,{
"Letterink-NibData" = {
AngleInDegrees = 270;
};
}),
(405,686,l,{
"Letterink-NibData" = {
AngleInDegrees = 180;
};
}),
(398,662,l),
(398,207,ls,{
"Letterink-NibData" = {
AngleInDegrees = 180;
};
}),
(398,98,o),
(332,30,o),
(226,30,cs,{
"Letterink-NibData" = {
AngleInDegrees = 270;
};
}),
(134,30,o),
(70,82,o),
(63,173,c),
(27,169,l),
(39,61,o),
(115,-6,o),
(228,-6,cs,{
"Letterink-NibData" = {
AngleInDegrees = 90;
};
})
);
},
{
closed = 1;
nodes = (
(166,484,o),
(189,496,o),
(206,519,c),
(180,538,l),
(167,523,o),
(153,516,o),
(137,516,cs),
(104,515,o),
(80,545,o),
(80,581,cs),
(79,624,o),
(112,666,o),
(166,666,cs),
(243,666,o),
(312,580,o),
(422,659,c),
(405,686,l,{
"Letterink-NibData" = {
AngleInDegrees = 180;
};
}),
(314,626,o),
(243,702,o),
(163,702,cs),
(87,702,o),
(42,639,o),
(43,578,cs),
(44,518,o),
(93,481,o),
(141,483,cs)
);
}
);
width = 516;
},
{
anchors = (
{
name = bottom;
pos = (307,0);
},
{
name = top;
pos = (231,692);
}
);
layerId = m004;
shapes = (
{
closed = 1;
nodes = (
(414,-31,o),
(507,62,o),
(507,208,cs),
(507,677,l,{
"Letterink-NibData" = {
AngleInDegrees = 270;
};
}),
(368,677,l,{
"Letterink-NibData" = {
AngleInDegrees = 211.6075;
};
}),
(339,536,l),
(342,211,ls,{
"Letterink-NibData" = {
AngleInDegrees = 180;
};
}),
(342,158,o),
(317,121,o),
(263,121,cs,{
"Letterink-NibData" = {
AngleInDegrees = 270;
};
}),
(206,121,o),
(177,163,o),
(180,231,c),
(24,219,l),
(10,73,o),
(96,-31,o),
(259,-31,cs,{
"Letterink-NibData" = {
AngleInDegrees = 90;
};
})
);
},
{
closed = 1;
nodes = (
(199,377,o),
(259,390,o),
(297,441,c),
(197,519,l),
(193,515,o),
(188,513,o),
(183,513,cs),
(173,513,o),
(163,522,o),
(163,535,cs),
(163,552,o),
(179,558,o),
(197,558,cs),
(263,558,o),
(339,487,o),
(460,577,c),
(368,677,l,{
"Letterink-NibData" = {
AngleInDegrees = 211.6075;
};
}),
(335,654,o),
(254,706,o),
(192,706,cs),
(78,706,o),
(7,623,o),
(11,530,cs),
(14,459,o),
(62,384,o),
(155,379,cs)
);
}
);
width = 566;
},
{
anchors = (
{
name = bottom;
pos = (267,0);
},
{
name = top;
pos = (267,684);
}
);
layerId = "BDC4F23E-8387-43BA-9F0D-D808B5DC489D";
shapes = (
{
closed = 1;
nodes = (
(368,-11,o),
(453,74,o),
(453,207,cs),
(453,685,l,{
"Letterink-NibData" = {
AngleInDegrees = 270;
};
}),
(396,685,l,{
"Letterink-NibData" = {
AngleInDegrees = 180;
};
}),
(381,634,l),
(381,210,ls,{
"Letterink-NibData" = {
AngleInDegrees = 180;
};
}),
(381,116,o),
(327,56,o),
(235,56,cs,{
"Letterink-NibData" = {
AngleInDegrees = 270;
};
}),
(149,56,o),
(93,109,o),
(93,192,c),
(25,185,l),
(31,64,o),
(110,-11,o),
(235,-11,cs,{
"Letterink-NibData" = {
AngleInDegrees = 90;
};
})
);
},
{
closed = 1;
nodes = (
(172,459,o),
(201,472,o),
(220,500,c),
(167,540,l),
(159,530,o),
(150,525,o),
(140,525,cs),
(120,525,o),
(101,547,o),
(101,574,cs),
(101,605,o),
(126,636,o),
(166,636,cs),
(234,636,o),
(307,546,o),
(438,637,c),
(397,685,l,{
"Letterink-NibData" = {
AngleInDegrees = 180;
};
}),
(302,626,o),
(250,703,o),
(173,703,cs),
(79,703,o),
(33,635,o),
(33,568,cs),
(32,498,o),
(89,458,o),
(142,459,cs)
);
}
);
width = 529;
}
);
metricLeft = J;
metricRight = J;
userData = {
position = 333;
width = 53;
};
},
{
glyphname = K;
kernLeft = E;
kernRight = K;
layers = (
{
anchors = (
{
name = bottom;
pos = (335,0);
},
{
name = top;
pos = (335,684);
}
);
hints = (
{
name = _corner.caps_vert;
origin = (1,1);
type = Corner;
}
);
layerId = "49C16FD3-6177-408B-A733-AEB3898BB77C";
shapes = (
{
closed = 1;
nodes = (
(638,-5,o),
(655,18,o),
(661,26,c),
(635,48,l),
(626,37,o),
(616,31,o),
(601,31,cs),
(574,31,o),
(559,53,o),
(534,97,cs),
(473,204,o),
(472,342,o),
(275,379,c),
(270,343,l),
(428,319,o),
(434,198,o),
(503,75,cs),
(518,48,o),
(547,-5,o),
(598,-5,cs)
);
},
{
closed = 1;
nodes = (
(192,2,l,{
"Letterink-NibData" = {
AngleInDegrees = 359.89895;
};
}),
(192,598,l,{
"Letterink-NibData" = {
AngleInDegrees = 270;
};
}),
(154,598,l,{
"Letterink-NibData" = {
AngleInDegrees = 180;
};
}),
(154,2,l,{
"Letterink-NibData" = {
AngleInDegrees = 90;
};
})
);
},
{
closed = 1;
nodes = (
(264,343,l),
(479,343,o),
(539,517,o),
(573,684,c),
(534,684,l),
(506,554,o),
(461,380,o),
(265,380,c),
(170,380,l),
(170,343,l)
);
}
);
width = 681;
},
{
anchors = (
{
name = bottom;
pos = (391,0);
},
{
name = top;
pos = (388,684);
}
);
hints = (
{
name = _corner.caps_vert;
origin = (1,1);
type = Corner;
}
);
layerId = m004;
shapes = (
{
closed = 1;
nodes = (
(666,-24,o),
(709,-2,o),
(742,42,c),
(647,126,l),
(644,122,o),
(640,119,o),
(631,119,cs),
(619,119,o),
(600,144,o),
(587,180,cs),
(567,235,o),
(536,371,o),
(358,384,c),
(330,287,l),
(407,273,o),
(418,175,o),
(449,93,cs),
(476,21,o),
(532,-24,o),
(612,-24,cs)
);
},
{
closed = 1;
nodes = (
(297,-4,l),
(295,528,l,{
"Letterink-NibData" = {
AngleInDegrees = 270;
};
}),
(130,528,l,{
"Letterink-NibData" = {
AngleInDegrees = 180;
};
}),
(130,-4,l,{
"Letterink-NibData" = {
AngleInDegrees = 90;
};
})
);
},
{
closed = 1;
nodes = (
(306,287,l),
(565,287,o),
(623,488,o),
(659,684,c),
(494,684,l),
(468,560,o),
(434,425,o),
(303,425,c),
(204,425,l),
(204,287,l)
);
}
);
width = 736;
},
{
anchors = (
{
name = bottom;
pos = (334,2);
},
{
name = top;
pos = (334,684);
}
);
hints = (
{
name = _corner.caps_vert;
origin = (1,1);
type = Corner;
}
);
layerId = "BDC4F23E-8387-43BA-9F0D-D808B5DC489D";
shapes = (
{
closed = 1;
nodes = (
(645,-17,o),
(665,4,o),
(678,21,c),
(631,61,l),
(625,53,o),
(617,49,o),
(605,49,cs),
(583,49,o),
(566,68,o),
(546,104,cs),
(492,206,o),
(496,364,o),
(280,381,c),
(277,324,l),
(429,301,o),
(420,187,o),
(484,68,cs),
(507,25,o),
(546,-17,o),
(601,-17,cs)
);
},
{
closed = 1;
nodes = (
(214,0,l,{
"Letterink-NibData" = {
AngleInDegrees = 359.89895;
};
}),
(214,586,l,{
"Letterink-NibData" = {
AngleInDegrees = 270;
};
}),
(142,586,l,{
"Letterink-NibData" = {
AngleInDegrees = 180;
};
}),
(142,0,l,{
"Letterink-NibData" = {
AngleInDegrees = 90;
};
})
);
},
{
closed = 1;
nodes = (
(268,324,l),
(514,327,o),
(542,521,o),
(583,684,c),
(509,684,l),
(470,532,o),
(455,390,o),
(271,390,c),
(164,390,l),
(164,324,l)
);
}
);
width = 693;
}
);
metricLeft = H;
unicode = 75;
userData = {
position = 542;
width = 57;
};
},
{
glyphname = K.ss01;
kernRight = K;
layers = (
{
anchors = (
{
name = bottom;
pos = (288,0);
},
{
name = top;
pos = (287,684);
}
);
layerId = "49C16FD3-6177-408B-A733-AEB3898BB77C";
shapes = (
{
closed = 1;
nodes = (
(122,1,l,{
"Letterink-NibData" = {
AngleInDegrees = 359.91599;
};
}),
(122,684,l,{
"Letterink-NibData" = {
AngleInDegrees = 270;
};
}),
(84,684,l,{
"Letterink-NibData" = {
AngleInDegrees = 180;
};
}),
(84,1,l,{
"Letterink-NibData" = {
AngleInDegrees = 90;
};
})
);
},
{
closed = 1;
nodes = (
(199,343,l),
(406,343,o),
(474,517,o),
(508,684,c),
(469,684,l),
(441,554,o),
(396,380,o),
(200,380,c),
(105,380,l),
(105,343,l)
);
},
{
closed = 1;
nodes = (
(495,45,o),
(454,135,o),
(412,213,c),
(365,299,o),
(317,373,o),
(214,373,c),
(214,343,l),
(295,343,o),
(333,279,o),
(378,195,c),
(420,118,o),
(468,11,o),
(566,-10,c),
(574,28,l)
);
}
);
width = 594;
},
{
anchors = (
{
name = bottom;
pos = (330,0);
},
{
name = top;
pos = (330,684);
}
);
layerId = m004;
shapes = (
{
closed = 1;
nodes = (
(227,0,l),
(227,684,l,{
"Letterink-NibData" = {
AngleInDegrees = 270;
};
}),
(62,684,l,{
"Letterink-NibData" = {
AngleInDegrees = 180;
};
}),
(62,0,l,{
"Letterink-NibData" = {
AngleInDegrees = 90;
};
})
);
},
{
closed = 1;
nodes = (
(259,287,ls),
(518,287,o),
(576,488,o),
(612,684,c),
(447,684,l),
(419,560,o),
(387,425,o),
(256,425,cs),
(157,425,l),
(157,287,l)
);
},
{
closed = 1;
nodes = (
(592,136,o),
(562,158,o),
(498,271,cs),
(448,361,o),
(353,402,o),
(245,402,c),
(245,287,l),
(289,283,o),
(327,245,o),
(368,166,cs),
(423,57,o),
(508,-15,o),
(600,-32,c),
(632,130,l)
);
}
);
width = 645;
},
{
anchors = (
{
name = bottom;
pos = (351,0);
},
{
name = top;
pos = (334,684);
}
);
associatedMasterId = m004;
layerId = "08C25A10-20A5-46B3-A5E8-5B31FFDBA5A3";
name = "Oct 30, 24 at 08:42";
shapes = (
{
closed = 1;
nodes = (
(231,0,l),
(231,684,l,{
"Letterink-NibData" = {
AngleInDegrees = 270;
};
}),
(66,684,l,{
"Letterink-NibData" = {
AngleInDegrees = 180;
};
}),
(66,0,l,{
"Letterink-NibData" = {
AngleInDegrees = 90;
};
})
);
},
{
closed = 1;
nodes = (
(642,135,l),
(616,135,o),
(601,142,o),
(582,173,cs),
(526,264,o),
(465,376,o),
(425,416,c),
(309,312,l),
(322,298,o),
(387,182,o),
(447,85,cs),
(480,32,o),
(530,-23,o),
(642,-23,c)
);
},
{
closed = 1;
nodes = (
(289,287,l),
(548,287,o),
(606,488,o),
(642,684,c),
(477,684,l),
(444,560,o),
(417,425,o),
(286,425,c),
(187,425,l),
(187,287,l)
);
},
{
closed = 0;
nodes = (
(317,373,l),
(382,365,o),
(412,301,o),
(458,220,cs),
(500,146,o),
(551,63,o),
(640,45,c)
);
}
);
width = 666;
},
{
anchors = (
{
name = bottom;
pos = (301,0);
},
{
name = top;
pos = (301,684);
}
);
layerId = "BDC4F23E-8387-43BA-9F0D-D808B5DC489D";
shapes = (
{
closed = 1;
nodes = (
(152,0,l,{
"Letterink-NibData" = {
AngleInDegrees = 359.91599;
};
}),
(152,684,l,{
"Letterink-NibData" = {
AngleInDegrees = 270;
};
}),
(80,684,l,{
"Letterink-NibData" = {
AngleInDegrees = 180;
};
}),
(80,0,l,{
"Letterink-NibData" = {
AngleInDegrees = 90;
};
})
);
},
{
closed = 1;
nodes = (
(219,325,l),
(430,327,o),
(493,521,o),
(534,684,c),
(460,684,l),
(421,532,o),
(374,390,o),
(220,390,c),
(114,390,l),
(114,324,l)
);
},
{
closed = 1;
nodes = (
(507,73,o),
(470,153,o),
(428,228,c),
(380,313,o),
(322,377,o),
(223,381,c),
(223,325,l),
(283,321,o),
(321,270,o),
(364,193,c),
(406,119,o),
(457,10,o),
(565,-12,c),
(579,58,l)
);
}
);
width = 600;
}
);
metricLeft = "=|H";
userData = {
position = 542;
width = 57;
};
},
{
glyphname = K.swsh;
kernLeft = Swash;
kernRight = K;
layers = (
{
anchors = (
{
name = bottom;
pos = (368,0);
},
{
name = top;
pos = (370,684);
}
);
hints = (
{
name = _corner.caps_swash_vert;
origin = (1,1);
type = Corner;
}
);
layerId = "49C16FD3-6177-408B-A733-AEB3898BB77C";
shapes = (
{
closed = 1;
nodes = (
(673,-9,o),
(706,10,o),
(715,45,c),
(682,54,l),
(677,39,o),
(665,27,o),
(640,27,cs),
(611,27,o),
(587,61,o),
(571,91,cs),
(515,197,o),
(498,357,o),
(327,377,c),
(327,344,l),
(465,326,o),
(478,186,o),
(539,71,cs),
(562,27,o),
(597,-9,o),
(640,-9,cs)
);
},
{
closed = 1;
nodes = (
(235,0,l),
(232,576,l,{
"Letterink-NibData" = {
AngleInDegrees = 270;
};
}),
(194,576,l,{
"Letterink-NibData" = {
AngleInDegrees = 180;
};
}),
(194,0,l,{
"Letterink-NibData" = {
AngleInDegrees = 90;
};
})
);
},
{
closed = 1;
nodes = (
(304,343,l),
(519,343,o),
(579,517,o),
(613,684,c),
(574,684,l),
(546,554,o),
(501,380,o),
(305,380,c),
(210,380,l),
(210,343,l)
);
}
);
width = 736;
},
{
anchors = (
{
name = bottom;
pos = (479,0);
},
{
name = top;
pos = (473,684);
}
);
hints = (
{
name = _corner.caps_swash_vert;
origin = (1,1);
type = Corner;
}
);
layerId = m004;
shapes = (
{
closed = 1;
nodes = (
(774,-31,o),
(847,8,o),
(859,98,c),
(727,132,l),
(724,125,o),
(720,118,o),
(711,118,cs),
(695,118,o),
(684,144,o),
(674,167,cs),
(642,239,o),
(607,373,o),
(447,413,c),
(410,286,l),
(472,269,o),
(507,161,o),
(544,83,cs),
(580,7,o),
(642,-31,o),
(715,-31,cs)
);
},
{
closed = 1;
nodes = (
(370,0,l),
(367,507,l,{
"Letterink-NibData" = {
AngleInDegrees = 270;
};
}),
(202,507,l,{
"Letterink-NibData" = {
AngleInDegrees = 180;
};
}),
(202,0,l,{
"Letterink-NibData" = {
AngleInDegrees = 90;
};
})
);
},
{
closed = 1;
nodes = (
(420,286,l),
(605,285,o),
(698,488,o),
(734,684,c),
(569,684,l),
(543,560,o),
(509,425,o),
(395,425,c),
(279,425,l),
(279,287,l)
);
}
);
width = 857;
},
{
anchors = (
{
name = bottom;
pos = (377,0);
},
{
name = top;
pos = (376,684);
}
);
hints = (
{
name = _corner.caps_swash_vert;
origin = (1,1);
type = Corner;
}
);
layerId = "BDC4F23E-8387-43BA-9F0D-D808B5DC489D";
shapes = (
{
closed = 1;
nodes = (
(692,-17,o),
(726,8,o),
(736,47,c),
(677,67,l),
(673,56,o),
(664,49,o),
(651,49,cs),
(633,49,o),
(616,71,o),
(597,106,cs),
(538,217,o),
(510,375,o),
(337,385,c),
(337,326,l),
(456,310,o),
(472,182,o),
(535,71,cs),
(571,8,o),
(606,-17,o),
(648,-17,cs)
);
},
{
closed = 1;
nodes = (
(261,0,l),
(261,564,l,{
"Letterink-NibData" = {
AngleInDegrees = 270;
};
}),
(189,564,l,{
"Letterink-NibData" = {
AngleInDegrees = 180;
};
}),
(189,0,l,{
"Letterink-NibData" = {
AngleInDegrees = 90;
};
})
);
},
{
closed = 1;
nodes = (
(313,324,l),
(559,327,o),
(587,521,o),
(628,684,c),
(554,684,l),
(515,532,o),
(500,390,o),
(316,390,c),
(209,390,l),
(209,324,l)
);
}
);
width = 753;
}
);
metricLeft = H.swsh;
userData = {
position = 542;
width = 57;
};
},
{
glyphname = L;
kernRight = L;
layers = (
{
anchors = (
{
name = bottom;
pos = (279,0);
},
{
name = center;
pos = (122,394);
},
{
name = top;
pos = (103,683);
},
{
name = topright;
pos = (302,448);
}
);
layerId = "49C16FD3-6177-408B-A733-AEB3898BB77C";
shapes = (
{
closed = 1;
nodes = (
(500,0,l),
(500,36,l,{
"Letterink-NibData" = {
AngleInDegrees = 270;
};
}),
(122,36,l),
(122,684,l,{
"Letterink-NibData" = {
AngleInDegrees = 270;
};
}),
(84,684,l,{
"Letterink-NibData" = {
AngleInDegrees = 180;
};
}),
(84,0,l,{
"Letterink-NibData" = {
AngleInDegrees = 90;
};
})
);
}
);
width = 521;
},
{
anchors = (
{
name = bottom;
pos = (307,1);
},
{
name = center;
pos = (140,390);
},
{
name = top;
pos = (145,684);
},
{
name = topright;
pos = (301,436);
}
);
layerId = m004;
shapes = (
{
closed = 1;
nodes = (
(542,0,l),
(542,148,l,{
"Letterink-NibData" = {
AngleInDegrees = 270;
};
}),
(227,148,l),
(227,684,l,{
"Letterink-NibData" = {
AngleInDegrees = 270;
};
}),
(62,684,l,{
"Letterink-NibData" = {
AngleInDegrees = 180;
};
}),
(62,0,l,{
"Letterink-NibData" = {
AngleInDegrees = 90;
};
})
);
}
);
width = 548;
},
{
anchors = (
{
name = bottom;
pos = (295,0);
},
{
name = center;
pos = (121,403);
},
{
name = top;
pos = (116,684);
},
{
name = topright;
pos = (320,449);
}
);
layerId = "BDC4F23E-8387-43BA-9F0D-D808B5DC489D";
shapes = (
{
closed = 1;
nodes = (
(506,-1,l),
(506,66,l,{
"Letterink-NibData" = {
AngleInDegrees = 270;
};
}),
(152,66,l),
(152,684,l,{
"Letterink-NibData" = {
AngleInDegrees = 270;
};
}),
(80,684,l,{
"Letterink-NibData" = {
AngleInDegrees = 180;
};
}),
(80,-1,l,{
"Letterink-NibData" = {
AngleInDegrees = 90;
};
})
);
}
);
width = 526;
}
);
metricLeft = "=|H";
unicode = 76;
userData = {
position = 54;
width = 61;
};
},
{
glyphname = L.swsh;
kernLeft = Swash;
kernRight = L;
layers = (
{
anchors = (
{
name = bottom;
pos = (425,-10);
},
{
name = center;
pos = (375,342);
},
{
name = top;
pos = (425,696);
},
{
name = topright;
pos = (586,684);
}
);
hints = (
{
name = _corner.caps_swash;
origin = (1,2);
type = Corner;
}
);
layerId = "49C16FD3-6177-408B-A733-AEB3898BB77C";
shapes = (
{
closed = 1;
nodes = (
(636,1,l),
(636,37,l,{
"Letterink-NibData" = {
AngleInDegrees = 270;
};
}),
(269,37,l),
(269,683,l,{
"Letterink-NibData" = {
AngleInDegrees = 270;
};
}),
(231,683,l,{
"Letterink-NibData" = {
AngleInDegrees = 180;
};
}),
(231,1,l,{
"Letterink-NibData" = {
AngleInDegrees = 90;
};
})
);
},
{
closed = 1;
nodes = (
(240,647,l),
(240,683,l),
(186,683,l),
(186,647,l)
);
}
);
width = 657;
},
{
anchors = (
{
name = bottom;
pos = (483,0);
},
{
name = center;
pos = (343,345);
},
{
name = top;
pos = (327,683);
},
{
name = topright;
pos = (411,520);
}
);
hints = (
{
name = _corner.caps_swash;
origin = (1,2);
type = Corner;
}
);
layerId = m004;
shapes = (
{
closed = 1;
nodes = (
(717,1,l),
(717,149,l,{
"Letterink-NibData" = {
AngleInDegrees = "270";
};
}),
(408,149,l),
(408,684,l,{
"Letterink-NibData" = {
AngleInDegrees = "270";
};
}),
(243,684,l,{
"Letterink-NibData" = {
AngleInDegrees = "180";
};
}),
(243,1,l,{
"Letterink-NibData" = {
AngleInDegrees = "90";
};
})
);
},
{
closed = 1;
nodes = (
(290,536,l),
(290,684,l),
(235,684,l),
(235,536,l)
);
}
);
width = 723;
},
{
anchors = (
{
name = bottom;
pos = (428,6);
},
{
name = center;
pos = (319,342);
},
{
name = top;
pos = (301,687);
},
{
name = topright;
pos = (371,587);
}
);
hints = (
{
name = _corner.caps_swash;
origin = (1,2);
type = Corner;
}
);
layerId = "BDC4F23E-8387-43BA-9F0D-D808B5DC489D";
shapes = (
{
closed = 1;
nodes = (
(648,-1,l),
(648,66,l,{
"Letterink-NibData" = {
AngleInDegrees = 270;
};
}),
(296,66,l),
(296,684,l,{
"Letterink-NibData" = {
AngleInDegrees = 270;
};
}),
(224,684,l,{
"Letterink-NibData" = {
AngleInDegrees = 180;
};
}),
(224,-1,l,{
"Letterink-NibData" = {
AngleInDegrees = 90;
};
})
);
},
{
closed = 1;
nodes = (
(259,617,l),
(259,684,l),
(201,684,l),
(201,617,l)
);
}
);
width = 668;
}
);
metricLeft = I.swsh;
metricRight = L;
userData = {
position = 54;
width = 61;
};
},
{
glyphname = M;
kernLeft = A;
kernRight = M;
layers = (
{
anchors = (
{
name = bottom;
pos = (551,1);
},
{
name = top;
pos = (550,683);
}
);
hints = (
{
name = _corner.caps_diag;
options = 1;
origin = (0,14);
scale = (-1,1);
type = Corner;
}
);
layerId = "49C16FD3-6177-408B-A733-AEB3898BB77C";
shapes = (
{
closed = 1;
nodes = (
(575,1,l,{
"Letterink-NibData" = {
AngleInDegrees = 19.8453;
};
}),
(781,572,l,{
"Letterink-NibData" = {
AngleInDegrees = 15.73201;
};
}),
(803,649,l,{
"Letterink-NibData" = {
AngleInDegrees = 170.40687;
};
}),
(816,572,l,{
"Letterink-NibData" = {
AngleInDegrees = 168.65127;
};
}),
(933,0,l,{
"Letterink-NibData" = {
AngleInDegrees = 90;
};
}),
(972,0,l,{
"Letterink-NibData" = {
AngleInDegrees = 348.43256;
};
}),
(832,685,l,{
"Letterink-NibData" = {
AngleInDegrees = 270;
};
}),
(784,685,l,{
"Letterink-NibData" = {
AngleInDegrees = 200.22945;
};
}),
(569,103,l,{
"Letterink-NibData" = {
AngleInDegrees = 195.70864;
};
}),
(550,35,l,{
"Letterink-NibData" = {
AngleInDegrees = 344.29136;
};
}),
(531,103,l,{
"Letterink-NibData" = {
AngleInDegrees = 339.85787;
};
}),
(317,685,l,{
"Letterink-NibData" = {
AngleInDegrees = 270;
};
}),
(271,685,l,{
"Letterink-NibData" = {
AngleInDegrees = 191.99471;
};
}),
(139,67,l,{
"Letterink-NibData" = {
AngleInDegrees = "202.61986";
};
}),
(175,55,l,{
GSCorner = {
name = _corner.caps_diag;
options = "1";
scale = "{-1, 1}";
};
"Letterink-NibData" = {
AngleInDegrees = "22.1315";
};
}),
(286,571,l,{
"Letterink-NibData" = {
AngleInDegrees = 8.56914;
};
}),
(298,651,l,{
"Letterink-NibData" = {
AngleInDegrees = 164.67849;
};
}),
(320,571,l,{
"Letterink-NibData" = {
AngleInDegrees = 160.21186;
};
}),
(525,1,l,{
"Letterink-NibData" = {
AngleInDegrees = 90;
};
})
);
}
);
width = 1004;
},
{
anchors = (
{
name = bottom;
pos = (523,0);
},
{
name = top;
pos = (523,684);
}
);
hints = (
{
name = _corner.caps_diag;
options = 1;
origin = (0,14);
scale = (-1,1);
type = Corner;
}
);
layerId = m004;
shapes = (
{
closed = 1;
nodes = (
(592,4,l,{
"Letterink-NibData" = {
AngleInDegrees = 19.82904;
};
}),
(741,443,l,{
"Letterink-NibData" = {
AngleInDegrees = 10.61966;
};
}),
(719,495,l,{
"Letterink-NibData" = {
AngleInDegrees = 176.42367;
};
}),
(711,439,l,{
"Letterink-NibData" = {
AngleInDegrees = 168.64911;
};
}),
(801,0,l,{
"Letterink-NibData" = {
AngleInDegrees = 90;
};
}),
(967,0,l,{
"Letterink-NibData" = {
AngleInDegrees = 348.40167;
};
}),
(822,684,l,{
"Letterink-NibData" = {
AngleInDegrees = 270;
};
}),
(672,684,l,{
"Letterink-NibData" = {
AngleInDegrees = 200.24505;
};
}),
(532,302,l,{
"Letterink-NibData" = {
AngleInDegrees = 195.78075;
};
}),
(523,256,l,{
"Letterink-NibData" = {
AngleInDegrees = 344.21925;
};
}),
(514,302,l,{
"Letterink-NibData" = {
AngleInDegrees = 339.94696;
};
}),
(377,684,l,{
"Letterink-NibData" = {
AngleInDegrees = 270;
};
}),
(227,684,l,{
"Letterink-NibData" = {
AngleInDegrees = 191.97887;
};
}),
(123,138,l,{
"Letterink-NibData" = {
AngleInDegrees = 201.80141;
};
}),
(280,106,l,{
"Letterink-NibData" = {
AngleInDegrees = 11.90108;
};
}),
(340,418,l,{
"Letterink-NibData" = {
AngleInDegrees = 7.76516;
};
}),
(333,466,l,{
"Letterink-NibData" = {
AngleInDegrees = 172.23484;
};
}),
(311,418,l,{
"Letterink-NibData" = {
AngleInDegrees = 160.25072;
};
}),
(460,4,l,{
"Letterink-NibData" = {
AngleInDegrees = 90;
};
})
);
}
);
width = 973;
},
{
anchors = (
{
name = bottom;
pos = (538,0);
},
{
name = top;
pos = (536,684);
}
);
hints = (
{
name = _corner.caps_diag;
options = 1;
origin = (0,14);
scale = (-1,1);
type = Corner;
}
);
layerId = "BDC4F23E-8387-43BA-9F0D-D808B5DC489D";
shapes = (
{
closed = 1;
nodes = (
(575,-1,l,{
"Letterink-NibData" = {
AngleInDegrees = 19.8453;
};
}),
(768,545,l,{
"Letterink-NibData" = {
AngleInDegrees = 15.73201;
};
}),
(777,582,l,{
"Letterink-NibData" = {
AngleInDegrees = 170.40687;
};
}),
(783,545,l,{
"Letterink-NibData" = {
AngleInDegrees = 168.65127;
};
}),
(891,-1,l,{
"Letterink-NibData" = {
AngleInDegrees = 90;
};
}),
(965,-1,l,{
"Letterink-NibData" = {
AngleInDegrees = 348.43256;
};
}),
(824,684,l,{
"Letterink-NibData" = {
AngleInDegrees = 270;
};
}),
(747,684,l,{
"Letterink-NibData" = {
AngleInDegrees = 200.22945;
};
}),
(550,137,l,{
"Letterink-NibData" = {
AngleInDegrees = 195.70864;
};
}),
(538,86,l,{
"Letterink-NibData" = {
AngleInDegrees = 344.29136;
};
}),
(525,136,l,{
"Letterink-NibData" = {
AngleInDegrees = 339.85787;
};
}),
(327,684,l,{
"Letterink-NibData" = {
AngleInDegrees = 270;
};
}),
(252,684,l,{
"Letterink-NibData" = {
AngleInDegrees = 191.99471;
};
}),
(126,79,l,{
"Letterink-NibData" = {
AngleInDegrees = "202.61986";
};
}),
(193,63,l,{
GSCorner = {
name = _corner.caps_diag;
options = "1";
scale = "{-1, 1}";
};
"Letterink-NibData" = {
AngleInDegrees = "22.1315";
};
}),
(292,540,l,{
"Letterink-NibData" = {
AngleInDegrees = 8.56914;
};
}),
(297,578,l,{
"Letterink-NibData" = {
AngleInDegrees = 164.67849;
};
}),
(306,540,l,{
"Letterink-NibData" = {
AngleInDegrees = 160.21186;
};
}),
(499,-1,l,{
"Letterink-NibData" = {
AngleInDegrees = 90;
};
})
);
}
);
width = 991;
}
);
unicode = 77;
userData = {
position = 664;
width = 20;
};
},
{
glyphname = M.ss01;
layers = (
{
anchors = (
{
name = bottom;
pos = (390,0);
},
{
name = top;
pos = (390,684);
}
);
layerId = "49C16FD3-6177-408B-A733-AEB3898BB77C";
shapes = (
{
closed = 1;
nodes = (
(699,1,l,{
"Letterink-NibData" = {
AngleInDegrees = "90";
};
}),
(699,693,l,{
"Letterink-NibData" = {
AngleInDegrees = "180";
};
}),
(678,694,l,{
"Letterink-NibData" = {
AngleInDegrees = "270";
};
}),
(388,269,l,{
"Letterink-NibData" = {
AngleInDegrees = 321.67095;
};
}),
(387,219,l),
(400,219,l,{
"Letterink-NibData" = {
AngleInDegrees = 42.83309;
};
}),
(649,580,l,{
"Letterink-NibData" = {
AngleInDegrees = 141.24191;
};
}),
(671,616,l,{
"Letterink-NibData" = {
AngleInDegrees = 150.64224;
};
}),
(661,573,l),
(661,1,l)
);
},
{
closed = 1;
nodes = (
(122,1,l),
(122,573,l),
(112,616,l,{
"Letterink-NibData" = {
AngleInDegrees = 150.64224;
};
}),
(134,580,l,{
"Letterink-NibData" = {
AngleInDegrees = 141.24191;
};
}),
(383,219,l,{
"Letterink-NibData" = {
AngleInDegrees = 42.83309;
};
}),
(395,219,l,{
"Letterink-NibData" = {
AngleInDegrees = 42.83309;
};
}),
(395,269,l,{
"Letterink-NibData" = {
AngleInDegrees = 321.67095;
};
}),
(104,694,l,{
"Letterink-NibData" = {
AngleInDegrees = 270;
};
}),
(84,693,l,{
"Letterink-NibData" = {
AngleInDegrees = 180;
};
}),
(84,1,l,{
"Letterink-NibData" = {
AngleInDegrees = 90;
};
})
);
}
);
width = 783;
},
{
anchors = (
{
name = bottom;
pos = (417,0);
},
{
name = top;
pos = (426,684);
}
);
layerId = m004;
shapes = (
{
closed = 1;
nodes = (
(772,0,l,{
"Letterink-NibData" = {
AngleInDegrees = "90";
};
}),
(772,695,l,{
"Letterink-NibData" = {
AngleInDegrees = "180";
};
}),
(670,695,l,{
"Letterink-NibData" = {
AngleInDegrees = "270";
};
}),
(413,360,l,{
"Letterink-NibData" = {
AngleInDegrees = "321.44015";
};
}),
(389,161,l,{
"Letterink-NibData" = {
AngleInDegrees = 43.21009;
};
}),
(444,161,l,{
"Letterink-NibData" = {
AngleInDegrees = "43.21009";
};
}),
(584,349,l,{
"Letterink-NibData" = {
AngleInDegrees = "139.07037";
};
}),
(609,395,l,{
"Letterink-NibData" = {
AngleInDegrees = "143.97263";
};
}),
(604,319,l),
(607,0,l)
);
},
{
closed = 1;
nodes = (
(227,0,l),
(230,319,l),
(227,395,l,{
"Letterink-NibData" = {
AngleInDegrees = 143.97263;
};
}),
(257,338,l,{
"Letterink-NibData" = {
AngleInDegrees = 139.07037;
};
}),
(390,161,l,{
"Letterink-NibData" = {
AngleInDegrees = 43.21009;
};
}),
(445,161,l,{
"Letterink-NibData" = {
AngleInDegrees = 43.21009;
};
}),
(421,360,l,{
"Letterink-NibData" = {
AngleInDegrees = 321.44015;
};
}),
(164,695,l,{
"Letterink-NibData" = {
AngleInDegrees = 270;
};
}),
(62,695,l,{
"Letterink-NibData" = {
AngleInDegrees = 180;
};
}),
(62,0,l,{
"Letterink-NibData" = {
AngleInDegrees = 90;
};
})
);
}
);
width = 834;
},
{
anchors = (
{
name = bottom;
pos = (404,4);
},
{
name = top;
pos = (403,684);
}
);
layerId = "BDC4F23E-8387-43BA-9F0D-D808B5DC489D";
shapes = (
{
closed = 1;
nodes = (
(728,0,l,{
"Letterink-NibData" = {
AngleInDegrees = "90";
};
}),
(728,695,l,{
"Letterink-NibData" = {
AngleInDegrees = "180";
};
}),
(682,695,l,{
"Letterink-NibData" = {
AngleInDegrees = "270";
};
}),
(398,293,l,{
"Letterink-NibData" = {
AngleInDegrees = 321.67095;
};
}),
(398,209,l),
(419,209,l,{
"Letterink-NibData" = {
AngleInDegrees = 42.83309;
};
}),
(627,496,l,{
"Letterink-NibData" = {
AngleInDegrees = 141.24191;
};
}),
(660,557,l,{
"Letterink-NibData" = {
AngleInDegrees = 150.64224;
};
}),
(656,490,l),
(656,0,l)
);
},
{
closed = 1;
nodes = (
(152,0,l),
(152,490,l),
(147,557,l,{
"Letterink-NibData" = {
AngleInDegrees = 150.64224;
};
}),
(181,496,l,{
"Letterink-NibData" = {
AngleInDegrees = 141.24191;
};
}),
(389,209,l,{
"Letterink-NibData" = {
AngleInDegrees = 42.83309;
};
}),
(409,209,l,{
"Letterink-NibData" = {
AngleInDegrees = 42.83309;
};
}),
(409,293,l,{
"Letterink-NibData" = {
AngleInDegrees = 321.67095;
};
}),
(125,695,l,{
"Letterink-NibData" = {
AngleInDegrees = 270;
};
}),
(80,695,l,{
"Letterink-NibData" = {
AngleInDegrees = 180;
};
}),
(80,0,l,{
"Letterink-NibData" = {
AngleInDegrees = 90;
};
})
);
}
);
width = 808;
}
);
metricLeft = "=|H";
metricRight = H;
userData = {
position = 658;
width = 61;
};
},
{
glyphname = M.swsh;
kernLeft = A.swsh;
kernRight = M;
layers = (
{
anchors = (
{
name = bottom;
pos = (590,1);
},
{
name = top;
pos = (589,683);
}
);
hints = (
{
name = _corner.caps_swash_diag;
options = 1;
origin = (0,14);
scale = (-1,1);
type = Corner;
},
{
name = _corner.caps_swash.big;
origin = (1,2);
type = Corner;
}
);
layerId = "49C16FD3-6177-408B-A733-AEB3898BB77C";
shapes = (
{
closed = 1;
nodes = (
(610,1,l,{
"Letterink-NibData" = {
AngleInDegrees = 19.90221;
};
}),
(817,573,l,{
"Letterink-NibData" = {
AngleInDegrees = 15.18584;
};
}),
(838,650,l,{
"Letterink-NibData" = {
AngleInDegrees = 170.40687;
};
}),
(851,572,l,{
"Letterink-NibData" = {
AngleInDegrees = 168.65127;
};
}),
(966,1,l,{
"Letterink-NibData" = {
AngleInDegrees = 90;
};
}),
(1006,1,l,{
"Letterink-NibData" = {
AngleInDegrees = 348.43256;
};
}),
(865,685,l,{
"Letterink-NibData" = {
AngleInDegrees = 270;
};
}),
(821,685,l,{
"Letterink-NibData" = {
AngleInDegrees = 200.22945;
};
}),
(608,105,l,{
"Letterink-NibData" = {
AngleInDegrees = 195.70864;
};
}),
(588,36,l,{
"Letterink-NibData" = {
AngleInDegrees = 344.29136;
};
}),
(568,105,l,{
"Letterink-NibData" = {
AngleInDegrees = 339.85787;
};
}),
(355,685,l,{
"Letterink-NibData" = {
AngleInDegrees = 270;
};
}),
(311,685,l,{
"Letterink-NibData" = {
AngleInDegrees = 191.97342;
};
}),
(184,86,l,{
"Letterink-NibData" = {
AngleInDegrees = 196.18921;
};
}),
(221,77,l,{
"Letterink-NibData" = {
AngleInDegrees = 12.01367;
};
}),
(325,571,l,{
"Letterink-NibData" = {
AngleInDegrees = 8.56914;
};
}),
(337,651,l,{
"Letterink-NibData" = {
AngleInDegrees = 165.41108;
};
}),
(358,571,l,{
"Letterink-NibData" = {
AngleInDegrees = 160.21186;
};
}),
(563,1,l,{
"Letterink-NibData" = {
AngleInDegrees = 90;
};
})
);
},
{
closed = 1;
nodes = (
(344,648,l),
(344,684,l,{
"Letterink-NibData" = {
AngleInDegrees = "270";
};
}),
(241,684,l,{
"Letterink-NibData" = {
AngleInDegrees = "180";
};
}),
(241,648,l,{
"Letterink-NibData" = {
AngleInDegrees = "90";
};
})
);
}
);
width = 1038;
},
{
anchors = (
{
name = bottom;
pos = (588,-2);
},
{
name = top;
pos = (623,684);
}
);
hints = (
{
name = _corner.caps_swash_diag;
options = 2;
origin = (0,14);
scale = (-1,1);
type = Corner;
},
{
name = _corner.caps_swash.big;
origin = (1,2);
type = Corner;
}
);
layerId = m004;
shapes = (
{
closed = 1;
nodes = (
(684,-5,l,{
"Letterink-NibData" = {
AngleInDegrees = "19.82904";
};
}),
(833,443,l,{
"Letterink-NibData" = {
AngleInDegrees = "10.61966";
};
}),
(817,495,l,{
"Letterink-NibData" = {
AngleInDegrees = "176.42367";
};
}),
(809,439,l,{
"Letterink-NibData" = {
AngleInDegrees = "168.64911";
};
}),
(888,-5,l,{
"Letterink-NibData" = {
AngleInDegrees = "90";
};
}),
(1053,-5,l,{
"Letterink-NibData" = {
AngleInDegrees = "348.40167";
};
}),
(908,684,l,{
"Letterink-NibData" = {
AngleInDegrees = "270";
};
}),
(772,684,l,{
"Letterink-NibData" = {
AngleInDegrees = "200.24505";
};
}),
(642,338,l,{
"Letterink-NibData" = {
AngleInDegrees = "195.78075";
};
}),
(621,256,l,{
"Letterink-NibData" = {
AngleInDegrees = "344.21925";
};
}),
(601,338,l,{
"Letterink-NibData" = {
AngleInDegrees = "339.94696";
};
}),
(473,684,l,{
"Letterink-NibData" = {
AngleInDegrees = "270";
};
}),
(338,684,l,{
"Letterink-NibData" = {
AngleInDegrees = "191.97887";
};
}),
(218,149,l,{
"Letterink-NibData" = {
AngleInDegrees = "201.80141";
};
}),
(376,107,l,{
"Letterink-NibData" = {
AngleInDegrees = "11.90108";
};
}),
(440,418,l,{
"Letterink-NibData" = {
AngleInDegrees = "7.76516";
};
}),
(431,466,l,{
"Letterink-NibData" = {
AngleInDegrees = "172.23484";
};
}),
(414,418,l,{
"Letterink-NibData" = {
AngleInDegrees = "160.25072";
};
}),
(563,-5,l,{
"Letterink-NibData" = {
AngleInDegrees = "90";
};
})
);
},
{
closed = 1;
nodes = (
(454,536,l),
(454,684,l,{
"Letterink-NibData" = {
AngleInDegrees = "270";
};
}),
(282,684,l,{
"Letterink-NibData" = {
AngleInDegrees = "180";
};
}),
(282,536,l)
);
}
);
width = 1059;
},
{
anchors = (
{
name = bottom;
pos = (592,-1);
},
{
name = top;
pos = (587,684);
}
);
hints = (
{
name = _corner.caps_swash_diag;
options = 1;
origin = (0,14);
scale = (-1,1);
type = Corner;
},
{
name = _corner.caps_swash.big;
origin = (1,2);
type = Corner;
}
);
layerId = "BDC4F23E-8387-43BA-9F0D-D808B5DC489D";
shapes = (
{
closed = 1;
nodes = (
(621,-1,l,{
"Letterink-NibData" = {
AngleInDegrees = 19.90221;
};
}),
(817,543,l,{
"Letterink-NibData" = {
AngleInDegrees = 15.18584;
};
}),
(825,577,l,{
"Letterink-NibData" = {
AngleInDegrees = 170.40687;
};
}),
(829,543,l,{
"Letterink-NibData" = {
AngleInDegrees = 168.65127;
};
}),
(938,-1,l,{
"Letterink-NibData" = {
AngleInDegrees = 90;
};
}),
(1008,-1,l,{
"Letterink-NibData" = {
AngleInDegrees = 348.43256;
};
}),
(867,685,l,{
"Letterink-NibData" = {
AngleInDegrees = 270;
};
}),
(801,685,l,{
"Letterink-NibData" = {
AngleInDegrees = 200.22945;
};
}),
(594,117,l,{
"Letterink-NibData" = {
AngleInDegrees = 195.70864;
};
}),
(588,88,l,{
"Letterink-NibData" = {
AngleInDegrees = 344.29136;
};
}),
(581,117,l,{
"Letterink-NibData" = {
AngleInDegrees = 339.85787;
};
}),
(377,685,l,{
"Letterink-NibData" = {
AngleInDegrees = 270;
};
}),
(309,685,l,{
"Letterink-NibData" = {
AngleInDegrees = 191.97342;
};
}),
(182,100,l,{
"Letterink-NibData" = {
AngleInDegrees = 196.18921;
};
}),
(253,82,l,{
"Letterink-NibData" = {
AngleInDegrees = 12.01367;
};
}),
(345,538,l,{
"Letterink-NibData" = {
AngleInDegrees = 8.56914;
};
}),
(351,576,l,{
"Letterink-NibData" = {
AngleInDegrees = 165.41108;
};
}),
(359,538,l,{
"Letterink-NibData" = {
AngleInDegrees = 160.21186;
};
}),
(554,-1,l,{
"Letterink-NibData" = {
AngleInDegrees = 90;
};
})
);
},
{
closed = 1;
nodes = (
(367,618,l),
(367,685,l,{
"Letterink-NibData" = {
AngleInDegrees = "270";
};
}),
(241,685,l,{
"Letterink-NibData" = {
AngleInDegrees = "180";
};
}),
(241,618,l,{
"Letterink-NibData" = {
AngleInDegrees = "90";
};
})
);
}
);
width = 1034;
}
);
metricRight = M;
userData = {
position = 664;
width = 20;
};
},
{
glyphname = N;
kernLeft = N;
layers = (
{
anchors = (
{
name = bottom;
pos = (421,-8);
},
{
name = eng;
pos = (681,0);
},
{
name = top;
pos = (426,695);
}
);
hints = (
{
name = _corner.caps_vert;
options = 1;
origin = (0,10);
scale = (-1,1);
type = Corner;
}
);
layerId = "49C16FD3-6177-408B-A733-AEB3898BB77C";
shapes = (
{
closed = 1;
nodes = (
(681,0,l,{
"Letterink-NibData" = {
AngleInDegrees = "180";
};
}),
(681,683,l),
(643,683,l,{
"Letterink-NibData" = {
AngleInDegrees = 359.58179;
};
}),
(643,105,l),
(645,61,l,{
"Letterink-NibData" = {
AngleInDegrees = 145.43748;
};
}),
(620,95,l,{
"Letterink-NibData" = {
AngleInDegrees = 141.25478;
};
}),
(249,601,l,{
"Letterink-NibData" = {
AngleInDegrees = 318.39493;
};
}),
(185,683,l,{
"Letterink-NibData" = {
AngleInDegrees = 270;
};
}),
(159,683,l,{
"Letterink-NibData" = {
AngleInDegrees = 180;
};
}),
(159,91,l,{
"Letterink-NibData" = {
AngleInDegrees = 180;
};
}),
(197,91,l,{
"Letterink-NibData" = {
AngleInDegrees = 359.58179;
};
}),
(197,583,l),
(191,618,l,{
"Letterink-NibData" = {
AngleInDegrees = 145.43748;
};
}),
(212,588,l,{
"Letterink-NibData" = {
AngleInDegrees = 141.25478;
};
}),
(586,79,l),
(650,0,l,{
"Letterink-NibData" = {
AngleInDegrees = "270";
};
})
);
}
);
width = 765;
},
{
anchors = (
{
name = bottom;
pos = (439,0);
},
{
name = eng;
pos = (723,-5);
},
{
name = top;
pos = (439,684);
}
);
hints = (
{
name = _corner.caps_vert;
options = 1;
origin = (0,10);
scale = (-1,1);
type = Corner;
}
);
layerId = m004;
shapes = (
{
closed = 1;
nodes = (
(723,-5,l,{
"Letterink-NibData" = {
AngleInDegrees = "180";
};
}),
(723,698,l,{
"Letterink-NibData" = {
AngleInDegrees = "90";
};
}),
(558,698,l),
(558,398,l,{
"Letterink-NibData" = {
AngleInDegrees = 355.66769;
};
}),
(568,285,l,{
"Letterink-NibData" = {
AngleInDegrees = 143.1301;
};
}),
(500,379,l,{
"Letterink-NibData" = {
AngleInDegrees = 140.24946;
};
}),
(302,636,l),
(244,698,l,{
"Letterink-NibData" = {
AngleInDegrees = "270";
};
}),
(139,698,l,{
"Letterink-NibData" = {
AngleInDegrees = "180";
};
}),
(139,159,l,{
"Letterink-NibData" = {
AngleInDegrees = "90";
};
}),
(304,159,l),
(304,301,l,{
"Letterink-NibData" = {
AngleInDegrees = 355.66769;
};
}),
(293,408,l,{
"Letterink-NibData" = {
AngleInDegrees = 143.1301;
};
}),
(373,286,l,{
"Letterink-NibData" = {
AngleInDegrees = 140.24946;
};
}),
(564,53,l),
(618,-5,l,{
"Letterink-NibData" = {
AngleInDegrees = "270";
};
})
);
}
);
width = 785;
},
{
anchors = (
{
name = bottom;
pos = (416,-2);
},
{
name = eng;
pos = (688,-1);
},
{
name = top;
pos = (428,687);
}
);
hints = (
{
name = _corner.caps_vert;
options = 1;
origin = (0,10);
scale = (-1,1);
type = Corner;
}
);
layerId = "BDC4F23E-8387-43BA-9F0D-D808B5DC489D";
shapes = (
{
closed = 1;
nodes = (
(688,-1,l,{
"Letterink-NibData" = {
AngleInDegrees = "180";
};
}),
(688,693,l),
(616,693,l,{
"Letterink-NibData" = {
AngleInDegrees = 359.58179;
};
}),
(616,212,l),
(622,117,l,{
"Letterink-NibData" = {
AngleInDegrees = 145.43748;
};
}),
(569,197,l,{
"Letterink-NibData" = {
AngleInDegrees = 141.25478;
};
}),
(274,594,l,{
"Letterink-NibData" = {
AngleInDegrees = 318.39493;
};
}),
(191,693,l,{
"Letterink-NibData" = {
AngleInDegrees = 270;
};
}),
(148,693,l,{
"Letterink-NibData" = {
AngleInDegrees = 180;
};
}),
(148,96,l,{
"Letterink-NibData" = {
AngleInDegrees = 180;
};
}),
(220,96,l,{
"Letterink-NibData" = {
AngleInDegrees = 359.58179;
};
}),
(220,482,l),
(213,569,l,{
"Letterink-NibData" = {
AngleInDegrees = 145.43748;
};
}),
(266,494,l,{
"Letterink-NibData" = {
AngleInDegrees = 141.25478;
};
}),
(562,96,l),
(644,-1,l,{
"Letterink-NibData" = {
AngleInDegrees = "270";
};
})
);
}
);
width = 768;
}
);
metricLeft = E;
metricRight = H;
unicode = 78;
userData = {
position = 642;
width = 56;
};
},
{
glyphname = N.ss01;
layers = (
{
anchors = (
{
name = bottom;
pos = (352,0);
},
{
name = eng;
pos = (608,-1);
},
{
name = top;
pos = (354,684);
}
);
layerId = "49C16FD3-6177-408B-A733-AEB3898BB77C";
shapes = (
{
closed = 1;
nodes = (
(608,-1,l,{
"Letterink-NibData" = {
AngleInDegrees = "180";
};
}),
(608,685,l),
(570,685,l,{
"Letterink-NibData" = {
AngleInDegrees = 359.58179;
};
}),
(570,107,l),
(573,66,l,{
"Letterink-NibData" = {
AngleInDegrees = 145.43748;
};
}),
(553,97,l,{
"Letterink-NibData" = {
AngleInDegrees = 141.25478;
};
}),
(174,601,l,{
"Letterink-NibData" = {
AngleInDegrees = 318.39493;
};
}),
(110,683,l,{
"Letterink-NibData" = {
AngleInDegrees = "270";
};
}),
(84,683,l,{
"Letterink-NibData" = {
AngleInDegrees = "180";
};
}),
(84,0,l,{
"Letterink-NibData" = {
AngleInDegrees = "180";
};
}),
(122,0,l,{
"Letterink-NibData" = {
AngleInDegrees = 359.58179;
};
}),
(122,583,l),
(120,618,l,{
"Letterink-NibData" = {
AngleInDegrees = 145.43748;
};
}),
(138,588,l,{
"Letterink-NibData" = {
AngleInDegrees = 141.25478;
};
}),
(519,82,l),
(585,-1,l,{
"Letterink-NibData" = {
AngleInDegrees = "270";
};
})
);
}
);
width = 692;
},
{
anchors = (
{
name = bottom;
pos = (360,0);
},
{
name = eng;
pos = (646,-5);
},
{
name = top;
pos = (362,684);
}
);
layerId = m004;
shapes = (
{
closed = 1;
nodes = (
(646,-5,l,{
"Letterink-NibData" = {
AngleInDegrees = "180";
};
}),
(646,684,l,{
"Letterink-NibData" = {
AngleInDegrees = "90";
};
}),
(481,684,l),
(481,364,l,{
"Letterink-NibData" = {
AngleInDegrees = 355.66769;
};
}),
(490,278,l,{
"Letterink-NibData" = {
AngleInDegrees = 143.1301;
};
}),
(447,347,l,{
"Letterink-NibData" = {
AngleInDegrees = 140.24946;
};
}),
(225,636,l),
(173,694,l,{
"Letterink-NibData" = {
AngleInDegrees = "270";
};
}),
(62,694,l,{
"Letterink-NibData" = {
AngleInDegrees = "180";
};
}),
(62,0,l,{
"Letterink-NibData" = {
AngleInDegrees = "90";
};
}),
(227,0,l),
(227,301,l,{
"Letterink-NibData" = {
AngleInDegrees = 355.66769;
};
}),
(216,408,l,{
"Letterink-NibData" = {
AngleInDegrees = 143.1301;
};
}),
(296,286,l,{
"Letterink-NibData" = {
AngleInDegrees = 140.24946;
};
}),
(487,53,l),
(541,-5,l,{
"Letterink-NibData" = {
AngleInDegrees = "270";
};
})
);
}
);
width = 708;
},
{
anchors = (
{
name = bottom;
pos = (354,0);
},
{
name = eng;
pos = (621,-9);
},
{
name = top;
pos = (356,684);
}
);
layerId = "BDC4F23E-8387-43BA-9F0D-D808B5DC489D";
shapes = (
{
closed = 1;
nodes = (
(621,-9,l,{
"Letterink-NibData" = {
AngleInDegrees = "180";
};
}),
(621,684,l),
(549,684,l,{
"Letterink-NibData" = {
AngleInDegrees = 359.58179;
};
}),
(549,204,l),
(555,116,l,{
"Letterink-NibData" = {
AngleInDegrees = 145.43748;
};
}),
(502,191,l,{
"Letterink-NibData" = {
AngleInDegrees = 141.25478;
};
}),
(206,596,l,{
"Letterink-NibData" = {
AngleInDegrees = 318.39493;
};
}),
(127,693,l,{
"Letterink-NibData" = {
AngleInDegrees = "270";
};
}),
(80,693,l,{
"Letterink-NibData" = {
AngleInDegrees = "180";
};
}),
(80,-1,l,{
"Letterink-NibData" = {
AngleInDegrees = "180";
};
}),
(152,-1,l,{
"Letterink-NibData" = {
AngleInDegrees = 359.58179;
};
}),
(152,482,l),
(146,569,l,{
"Letterink-NibData" = {
AngleInDegrees = 145.43748;
};
}),
(197,494,l,{
"Letterink-NibData" = {
AngleInDegrees = 141.25478;
};
}),
(493,89,l),
(572,-9,l,{
"Letterink-NibData" = {
AngleInDegrees = "270";
};
})
);
}
);
width = 701;
}
);
metricLeft = "=|H";
metricRight = H;
userData = {
position = 605;
width = 61;
};
},
{
glyphname = N.swsh;
kernLeft = N;
layers = (
{
anchors = (
{
name = bottom;
pos = (503,-5);
},
{
name = top;
pos = (501,684);
}
);
hints = (
{
name = _corner.caps_swash_vert;
options = 1;
origin = (0,10);
scale = (-1,1);
type = Corner;
},
{
name = _corner.caps_swash.big;
origin = (1,2);
type = Corner;
}
);
layerId = "49C16FD3-6177-408B-A733-AEB3898BB77C";
shapes = (
{
closed = 1;
nodes = (
(782,0,l,{
"Letterink-NibData" = {
AngleInDegrees = "180";
};
}),
(782,683,l),
(742,683,l,{
"Letterink-NibData" = {
AngleInDegrees = 359.58179;
};
}),
(746,105,l),
(746,64,l,{
"Letterink-NibData" = {
AngleInDegrees = 145.43748;
};
}),
(722,96,l,{
"Letterink-NibData" = {
AngleInDegrees = 141.25478;
};
}),
(343,601,l,{
"Letterink-NibData" = {
AngleInDegrees = 318.39493;
};
}),
(280,683,l,{
"Letterink-NibData" = {
AngleInDegrees = "270";
};
}),
(252,683,l,{
"Letterink-NibData" = {
AngleInDegrees = "180";
};
}),
(253,108,l,{
"Letterink-NibData" = {
AngleInDegrees = "180";
};
}),
(291,108,l,{
"Letterink-NibData" = {
AngleInDegrees = 359.58179;
};
}),
(286,583,l),
(284,618,l,{
"Letterink-NibData" = {
AngleInDegrees = 145.43748;
};
}),
(305,588,l,{
"Letterink-NibData" = {
AngleInDegrees = 141.25478;
};
}),
(687,79,l),
(753,0,l,{
"Letterink-NibData" = {
AngleInDegrees = "270";
};
})
);
},
{
closed = 1;
nodes = (
(276,648,l),
(276,684,l,{
"Letterink-NibData" = {
AngleInDegrees = "270";
};
}),
(198,684,l,{
"Letterink-NibData" = {
AngleInDegrees = "180";
};
}),
(198,648,l,{
"Letterink-NibData" = {
AngleInDegrees = "90";
};
})
);
}
);
width = 866;
},
{
anchors = (
{
name = bottom;
pos = (565,0);
},
{
name = top;
pos = (578,684);
}
);
hints = (
{
name = _corner.caps_swash_vert;
options = 2;
origin = (0,10);
scale = (-1,1);
type = Corner;
},
{
name = _corner.caps_swash.big;
origin = (1,2);
type = Corner;
}
);
layerId = m004;
shapes = (
{
closed = 1;
nodes = (
(868,-5,l,{
"Letterink-NibData" = {
AngleInDegrees = "180";
};
}),
(868,699,l,{
"Letterink-NibData" = {
AngleInDegrees = "90";
};
}),
(703,699,l),
(703,398,l,{
"Letterink-NibData" = {
AngleInDegrees = 355.66769;
};
}),
(713,285,l,{
"Letterink-NibData" = {
AngleInDegrees = 143.1301;
};
}),
(645,379,l,{
"Letterink-NibData" = {
AngleInDegrees = 140.24946;
};
}),
(447,636,l),
(391,684,l,{
"Letterink-NibData" = {
AngleInDegrees = "270";
};
}),
(284,684,l,{
"Letterink-NibData" = {
AngleInDegrees = "180";
};
}),
(284,172,l,{
"Letterink-NibData" = {
AngleInDegrees = "90";
};
}),
(449,172,l),
(449,301,l,{
"Letterink-NibData" = {
AngleInDegrees = 355.66769;
};
}),
(438,408,l,{
"Letterink-NibData" = {
AngleInDegrees = 143.1301;
};
}),
(518,286,l,{
"Letterink-NibData" = {
AngleInDegrees = 140.24946;
};
}),
(709,53,l),
(763,-5,l,{
"Letterink-NibData" = {
AngleInDegrees = "270";
};
})
);
},
{
closed = 1;
nodes = (
(383,535,l),
(383,684,l,{
"Letterink-NibData" = {
AngleInDegrees = "270";
};
}),
(241,684,l,{
"Letterink-NibData" = {
AngleInDegrees = "180";
};
}),
(241,535,l)
);
}
);
width = 930;
},
{
anchors = (
{
name = bottom;
pos = (505,-1);
},
{
name = top;
pos = (505,684);
}
);
hints = (
{
name = _corner.caps_swash_vert;
options = 1;
origin = (0,10);
scale = (-1,1);
type = Corner;
},
{
name = _corner.caps_swash.big;
origin = (1,2);
type = Corner;
}
);
layerId = "BDC4F23E-8387-43BA-9F0D-D808B5DC489D";
shapes = (
{
closed = 1;
nodes = (
(786,-1,l,{
"Letterink-NibData" = {
AngleInDegrees = "180";
};
}),
(786,693,l),
(713,693,l,{
"Letterink-NibData" = {
AngleInDegrees = 359.58179;
};
}),
(714,212,l),
(720,123,l,{
"Letterink-NibData" = {
AngleInDegrees = 145.43748;
};
}),
(666,199,l,{
"Letterink-NibData" = {
AngleInDegrees = 141.25478;
};
}),
(370,596,l,{
"Letterink-NibData" = {
AngleInDegrees = 318.39493;
};
}),
(294,684,l,{
"Letterink-NibData" = {
AngleInDegrees = "270";
};
}),
(243,684,l,{
"Letterink-NibData" = {
AngleInDegrees = "180";
};
}),
(244,116,l,{
"Letterink-NibData" = {
AngleInDegrees = "180";
};
}),
(316,116,l,{
"Letterink-NibData" = {
AngleInDegrees = 359.58179;
};
}),
(314,482,l),
(309,569,l,{
"Letterink-NibData" = {
AngleInDegrees = 145.43748;
};
}),
(361,494,l,{
"Letterink-NibData" = {
AngleInDegrees = 141.25478;
};
}),
(658,96,l),
(742,-1,l,{
"Letterink-NibData" = {
AngleInDegrees = "270";
};
})
);
},
{
closed = 1;
nodes = (
(276,617,l),
(276,684,l,{
"Letterink-NibData" = {
AngleInDegrees = "270";
};
}),
(212,684,l,{
"Letterink-NibData" = {
AngleInDegrees = "180";
};
}),
(212,617,l,{
"Letterink-NibData" = {
AngleInDegrees = "90";
};
})
);
}
);
width = 866;
}
);
metricRight = H;
userData = {
position = 642;
width = 56;
};
},
{
glyphname = O;
kernLeft = O;
kernRight = O;
layers = (
{
anchors = (
{
name = bottom;
pos = (377,0);
},
{
name = center;
pos = (376,342);
},
{
name = horn;
pos = (485,684);
},
{
name = ogonek;
pos = (575,52);
},
{
name = top;
pos = (375,695);
},
{
name = topleft;
pos = (5,684);
},
{
name = topright;
pos = (778,684);
}
);
layerId = "49C16FD3-6177-408B-A733-AEB3898BB77C";
shapes = (
{
closed = 1;
nodes = (
(566,-15,o),
(706,136,o),
(706,343,cs,{
"Letterink-NibData" = {
AngleInDegrees = "180";
};
}),
(706,551,o),
(567,702,o),
(376,702,cs,{
"Letterink-NibData" = {
AngleInDegrees = "270";
};
}),
(185,702,o),
(46,551,o),
(46,343,cs,{
"Letterink-NibData" = {
AngleInDegrees = "180";
};
}),
(46,136,o),
(185,-15,o),
(376,-15,cs,{
"Letterink-NibData" = {
AngleInDegrees = "270";
};
})
);
},
{
closed = 1;
nodes = (
(208,21,o),
(84,158,o),
(84,343,cs),
(84,528,o),
(208,666,o),
(375,666,cs,{
"Letterink-NibData" = {
AngleInDegrees = "90";
};
}),
(544,666,o),
(669,528,o),
(669,343,cs),
(669,158,o),
(544,21,o),
(375,21,cs,{
"Letterink-NibData" = {
AngleInDegrees = "90";
};
})
);
}
);
width = 752;
},
{
anchors = (
{
name = bottom;
pos = (389,-15);
},
{
name = center;
pos = (388,337);
},
{
name = horn;
pos = (477,703);
},
{
name = ogonek;
pos = (601,34);
},
{
name = top;
pos = (391,699);
},
{
name = topleft;
pos = (42,643);
},
{
name = topright;
pos = (763,643);
}
);
layerId = m004;
shapes = (
{
closed = 1;
nodes = (
(599,-32,o),
(758,127,o),
(758,337,cs,{
"Letterink-NibData" = {
AngleInDegrees = "180";
};
}),
(758,551,o),
(600,711,o),
(389,711,cs,{
"Letterink-NibData" = {
AngleInDegrees = "270";
};
}),
(180,711,o),
(20,549,o),
(20,337,cs,{
"Letterink-NibData" = {
AngleInDegrees = "180";
};
}),
(20,129,o),
(181,-32,o),
(389,-32,cs,{
"Letterink-NibData" = {
AngleInDegrees = "270";
};
})
);
},
{
closed = 1;
nodes = (
(275,115,o),
(188,211,o),
(188,337,cs),
(188,467,o),
(274,563,o),
(388,563,cs,{
"Letterink-NibData" = {
AngleInDegrees = "90";
};
}),
(506,563,o),
(590,470,o),
(590,337,cs),
(590,208,o),
(505,115,o),
(388,115,cs,{
"Letterink-NibData" = {
AngleInDegrees = "90";
};
})
);
}
);
width = 778;
},
{
anchors = (
{
name = bottom;
pos = (384,-5);
},
{
name = center;
pos = (384,341);
},
{
name = horn;
pos = (489,693);
},
{
name = ogonek;
pos = (597,54);
},
{
name = top;
pos = (383,701);
},
{
name = topleft;
pos = (12,684);
},
{
name = topright;
pos = (786,684);
}
);
layerId = "BDC4F23E-8387-43BA-9F0D-D808B5DC489D";
shapes = (
{
closed = 1;
nodes = (
(580,-20,o),
(727,135,o),
(727,342,cs,{
"Letterink-NibData" = {
AngleInDegrees = "180";
};
}),
(727,550,o),
(580,705,o),
(384,705,cs,{
"Letterink-NibData" = {
AngleInDegrees = "270";
};
}),
(187,705,o),
(40,550,o),
(40,342,cs,{
"Letterink-NibData" = {
AngleInDegrees = "180";
};
}),
(40,135,o),
(187,-20,o),
(384,-20,cs,{
"Letterink-NibData" = {
AngleInDegrees = "270";
};
})
);
},
{
closed = 1;
nodes = (
(229,47,o),
(112,173,o),
(112,342,cs),
(112,512,o),
(229,638,o),
(383,638,cs,{
"Letterink-NibData" = {
AngleInDegrees = "90";
};
}),
(539,638,o),
(655,512,o),
(655,342,cs),
(655,173,o),
(539,47,o),
(383,47,cs,{
"Letterink-NibData" = {
AngleInDegrees = "90";
};
})
);
}
);
width = 768;
}
);
unicode = 79;
userData = {
position = 683;
width = 56;
};
},
{
glyphname = OE;
kernLeft = O;
kernRight = E;
layers = (
{
anchors = (
{
name = bottom;
pos = (499,-6);
},
{
name = top;
pos = (499,679);
}
);
layerId = "49C16FD3-6177-408B-A733-AEB3898BB77C";
shapes = (
{
closed = 1;
nodes = (
(425,-12,o),
(471,-2,o),
(516,17,c),
(516,59,l),
(473,36,o),
(425,24,o),
(372,24,cs,{
"Letterink-NibData" = {
AngleInDegrees = "90";
};
}),
(203,24,o),
(79,161,o),
(79,345,cs),
(79,528,o),
(203,666,o),
(372,666,cs,{
"Letterink-NibData" = {
AngleInDegrees = "90";
};
}),
(425,666,o),
(473,653,o),
(516,630,c),
(516,672,l),
(472,691,o),
(424,702,o),
(373,702,cs,{
"Letterink-NibData" = {
AngleInDegrees = "270";
};
}),
(180,702,o),
(41,551,o),
(41,345,cs,{
"Letterink-NibData" = {
AngleInDegrees = "180";
};
}),
(41,138,o),
(180,-12,o),
(373,-12,cs,{
"Letterink-NibData" = {
AngleInDegrees = "270";
};
})
);
},
{
alignment = -1;
pos = (414,-2);
ref = E.ss01;
}
);
width = 974;
},
{
anchors = (
{
name = bottom;
pos = (498,0);
},
{
name = top;
pos = (484,695);
}
);
layerId = m004;
shapes = (
{
closed = 1;
nodes = (
(427,-12,o),
(473,-3,o),
(516,14,c),
(516,195,l),
(481,157,o),
(432,135,o),
(376,135,cs,{
"Letterink-NibData" = {
AngleInDegrees = "90";
};
}),
(267,135,o),
(183,227,o),
(183,347,cs),
(183,471,o),
(266,563,o),
(376,563,cs,{
"Letterink-NibData" = {
AngleInDegrees = "90";
};
}),
(433,563,o),
(481,541,o),
(516,503,c),
(516,685,l),
(474,702,o),
(427,711,o),
(377,711,cs,{
"Letterink-NibData" = {
AngleInDegrees = "270";
};
}),
(174,711,o),
(18,553,o),
(18,347,cs,{
"Letterink-NibData" = {
AngleInDegrees = "180";
};
}),
(18,145,o),
(175,-12,o),
(377,-12,cs,{
"Letterink-NibData" = {
AngleInDegrees = "270";
};
})
);
},
{
alignment = -1;
pos = (429,6);
ref = E.ss01;
}
);
width = 1005;
},
{
anchors = (
{
name = bottom;
pos = (502,3);
},
{
name = top;
pos = (490,684);
}
);
layerId = "BDC4F23E-8387-43BA-9F0D-D808B5DC489D";
shapes = (
{
closed = 1;
nodes = (
(425,-14,o),
(468,-6,o),
(506,9,c),
(506,83,l),
(469,64,o),
(426,53,o),
(379,53,cs,{
"Letterink-NibData" = {
AngleInDegrees = "90";
};
}),
(223,53,o),
(108,182,o),
(108,345,cs),
(108,508,o),
(223,638,o),
(379,638,cs,{
"Letterink-NibData" = {
AngleInDegrees = "90";
};
}),
(426,638,o),
(468,627,o),
(506,608,c),
(506,682,l),
(468,697,o),
(425,705,o),
(380,705,cs,{
"Letterink-NibData" = {
AngleInDegrees = "270";
};
}),
(183,705,o),
(36,547,o),
(36,345,cs,{
"Letterink-NibData" = {
AngleInDegrees = "180";
};
}),
(36,143,o),
(183,-14,o),
(380,-14,cs,{
"Letterink-NibData" = {
AngleInDegrees = "270";
};
})
);
},
{
alignment = -1;
pos = (409,1);
ref = E.ss01;
}
);
width = 978;
}
);
metricLeft = "=O*.9";
metricRight = "=E*.9";
unicode = 338;
userData = {
position = 502;
width = 61;
};
},
{
glyphname = P;
kernLeft = E;
kernRight = P;
layers = (
{
anchors = (
{
name = bottom;
pos = (288,0);
},
{
name = top;
pos = (309,684);
}
);
hints = (
{
name = _corner.caps_left;
origin = (0,22);
type = Corner;
}
);
layerId = "49C16FD3-6177-408B-A733-AEB3898BB77C";
shapes = (
{
closed = 1;
nodes = (
(188,0,l),
(188,649,l,{
"Letterink-NibData" = {
AngleInDegrees = 90;
};
}),
(346,649,ls,{
"Letterink-NibData" = {
AngleInDegrees = 90;
};
}),
(448,649,o),
(525,590,o),
(525,466,cs,{
"Letterink-NibData" = {
AngleInDegrees = 180;
};
}),
(525,333,o),
(441,283,o),
(331,283,cs,{
"Letterink-NibData" = {
AngleInDegrees = 270;
};
}),
(318,283,o),
(286,283,o),
(251,286,c,{
"Letterink-NibData" = {
AngleInDegrees = 180;
};
}),
(251,252,l,{
"Letterink-NibData" = {
AngleInDegrees = 97.59464;
};
}),
(281,248,o),
(318,247,o),
(336,247,cs,{
"Letterink-NibData" = {
AngleInDegrees = 90;
};
}),
(457,247,o),
(563,313,o),
(563,467,cs),
(563,591,o),
(491,689,o),
(360,687,cs,{
"Letterink-NibData" = {
AngleInDegrees = 269.72846;
};
}),
(150,684,l,{
"Letterink-NibData" = {
AngleInDegrees = 180;
};
}),
(150,0,l,{
"Letterink-NibData" = {
AngleInDegrees = 90;
};
})
);
}
);
width = 602;
},
{
anchors = (
{
name = bottom;
pos = (340,0);
},
{
name = top;
pos = (340,684);
}
);
hints = (
{
name = _corner.caps_left;
origin = (0,22);
type = Corner;
}
);
layerId = m004;
shapes = (
{
closed = 1;
nodes = (
(333,-1,l),
(333,533,l,{
"Letterink-NibData" = {
AngleInDegrees = 90;
};
}),
(394,533,ls,{
"Letterink-NibData" = {
AngleInDegrees = 90;
};
}),
(435,533,o),
(483,509,o),
(483,440,cs,{
"Letterink-NibData" = {
AngleInDegrees = 180;
};
}),
(483,389,o),
(456,350,o),
(403,350,cs,{
"Letterink-NibData" = {
AngleInDegrees = 270;
};
}),
(395,350,o),
(381,351,o),
(370,354,c,{
"Letterink-NibData" = {
AngleInDegrees = 180;
};
}),
(370,215,l,{
"Letterink-NibData" = {
AngleInDegrees = 104.03624;
};
}),
(385,211,o),
(410,209,o),
(428,209,cs,{
"Letterink-NibData" = {
AngleInDegrees = 90;
};
}),
(565,209,o),
(648,321,o),
(648,447,cs),
(648,586,o),
(546,685,o),
(413,685,cs,{
"Letterink-NibData" = {
AngleInDegrees = 270;
};
}),
(168,685,l,{
"Letterink-NibData" = {
AngleInDegrees = 180;
};
}),
(168,-1,l,{
"Letterink-NibData" = {
AngleInDegrees = 90;
};
})
);
}
);
width = 662;
},
{
anchors = (
{
name = bottom;
pos = (301,0);
},
{
name = top;
pos = (306,684);
}
);
hints = (
{
name = _corner.caps_left;
origin = (0,22);
type = Corner;
}
);
layerId = "BDC4F23E-8387-43BA-9F0D-D808B5DC489D";
shapes = (
{
closed = 1;
nodes = (
(227,-1,l),
(227,619,l,{
"Letterink-NibData" = {
AngleInDegrees = 90;
};
}),
(360,619,ls,{
"Letterink-NibData" = {
AngleInDegrees = 90;
};
}),
(453,619,o),
(517,566,o),
(517,460,cs,{
"Letterink-NibData" = {
AngleInDegrees = 180;
};
}),
(517,341,o),
(436,297,o),
(357,297,cs,{
"Letterink-NibData" = {
AngleInDegrees = 270;
};
}),
(341,297,o),
(312,298,o),
(269,303,c,{
"Letterink-NibData" = {
AngleInDegrees = 180;
};
}),
(269,239,l,{
"Letterink-NibData" = {
AngleInDegrees = 97.59464;
};
}),
(307,232,o),
(340,230,o),
(362,230,cs,{
"Letterink-NibData" = {
AngleInDegrees = 90;
};
}),
(473,230,o),
(589,301,o),
(589,461,cs),
(589,583,o),
(512,687,o),
(374,686,cs,{
"Letterink-NibData" = {
AngleInDegrees = 269.72846;
};
}),
(155,686,l,{
"Letterink-NibData" = {
AngleInDegrees = 180;
};
}),
(155,-1,l,{
"Letterink-NibData" = {
AngleInDegrees = 90;
};
})
);
}
);
width = 623;
}
);
metricLeft = H;
unicode = 80;
userData = {
position = 480;
width = 59;
};
},
{
glyphname = P.ss01;
kernRight = P;
layers = (
{
anchors = (
{
name = bottom;
pos = (272,0);
},
{
name = top;
pos = (263,684);
}
);
layerId = "49C16FD3-6177-408B-A733-AEB3898BB77C";
shapes = (
{
closed = 1;
nodes = (
(405,235,o),
(502,329,o),
(502,468,cs),
(502,598,o),
(416,684,o),
(286,684,cs,{
"Letterink-NibData" = {
AngleInDegrees = 270;
};
}),
(84,684,l,{
"Letterink-NibData" = {
AngleInDegrees = 180;
};
}),
(84,648,l,{
"Letterink-NibData" = {
AngleInDegrees = 90;
};
}),
(272,648,ls,{
"Letterink-NibData" = {
AngleInDegrees = 90;
};
}),
(400,648,o),
(464,575,o),
(464,468,cs,{
"Letterink-NibData" = {
AngleInDegrees = 180;
};
}),
(464,341,o),
(373,271,o),
(238,271,cs,{
"Letterink-NibData" = {
AngleInDegrees = 270;
};
}),
(215,271,o),
(140,271,o),
(108,282,c,{
"Letterink-NibData" = {
AngleInDegrees = 180;
};
}),
(108,247,l,{
"Letterink-NibData" = {
AngleInDegrees = 90;
};
}),
(129,237,o),
(205,235,o),
(230,235,cs,{
"Letterink-NibData" = {
AngleInDegrees = 90;
};
})
);
},
{
closed = 1;
nodes = (
(122,0,l),
(122,681,l,{
"Letterink-NibData" = {
AngleInDegrees = 270;
};
}),
(84,681,l,{
"Letterink-NibData" = {
AngleInDegrees = 180;
};
}),
(84,0,l,{
"Letterink-NibData" = {
AngleInDegrees = 90;
};
})
);
}
);
width = 540;
},
{
anchors = (
{
name = bottom;
pos = (167,0);
},
{
name = top;
pos = (270,684);
}
);
layerId = m004;
shapes = (
{
closed = 1;
nodes = (
(474,200,o),
(552,311,o),
(552,435,cs),
(552,585,o),
(446,684,o),
(307,684,cs,{
"Letterink-NibData" = {
AngleInDegrees = "270";
};
}),
(62,684,l,{
"Letterink-NibData" = {
AngleInDegrees = "180";
};
}),
(62,532,l),
(293,532,ls,{
"Letterink-NibData" = {
AngleInDegrees = "90";
};
}),
(328,532,o,{
"Letterink-NibData" = {
AngleInDegrees = 90;
};
}),
(387,509,o),
(387,435,cs,{
"Letterink-NibData" = {
AngleInDegrees = "180";
};
}),
(387,387,o),
(358,341,o),
(276,341,cs,{
"Letterink-NibData" = {
AngleInDegrees = "270";
};
}),
(253,341,o),
(222,344,o),
(201,354,c,{
"Letterink-NibData" = {
AngleInDegrees = "180";
};
}),
(201,208,l,{
"Letterink-NibData" = {
AngleInDegrees = "104.03624";
};
}),
(221,196,o),
(263,194,o),
(302,195,cs,{
"Letterink-NibData" = {
AngleInDegrees = "90";
};
})
);
},
{
closed = 1;
nodes = (
(227,-1,l),
(227,547,l,{
"Letterink-NibData" = {
AngleInDegrees = "90";
};
}),
(62,559,l,{
"Letterink-NibData" = {
AngleInDegrees = "180";
};
}),
(62,-1,l,{
"Letterink-NibData" = {
AngleInDegrees = "90";
};
})
);
}
);
width = 566;
},
{
anchors = (
{
name = bottom;
pos = (262,0);
},
{
name = top;
pos = (260,684);
}
);
layerId = "BDC4F23E-8387-43BA-9F0D-D808B5DC489D";
shapes = (
{
closed = 1;
nodes = (
(417,220,o),
(513,317,o),
(513,455,cs),
(513,585,o),
(429,684,o),
(302,684,cs,{
"Letterink-NibData" = {
AngleInDegrees = 270;
};
}),
(80,684,l,{
"Letterink-NibData" = {
AngleInDegrees = 180;
};
}),
(80,617,l,{
"Letterink-NibData" = {
AngleInDegrees = 90;
};
}),
(288,617,ls,{
"Letterink-NibData" = {
AngleInDegrees = 90;
};
}),
(382,617,o),
(441,555,o),
(441,457,cs,{
"Letterink-NibData" = {
AngleInDegrees = 180;
};
}),
(441,353,o),
(372,287,o),
(249,287,cs,{
"Letterink-NibData" = {
AngleInDegrees = 270;
};
}),
(218,287,o),
(170,291,o),
(124,298,c,{
"Letterink-NibData" = {
AngleInDegrees = 180;
};
}),
(124,231,l,{
"Letterink-NibData" = {
AngleInDegrees = 90;
};
}),
(161,225,o),
(213,220,o),
(248,220,cs,{
"Letterink-NibData" = {
AngleInDegrees = 90;
};
})
);
},
{
closed = 1;
nodes = (
(152,-1,l),
(152,683,l,{
"Letterink-NibData" = {
AngleInDegrees = 270;
};
}),
(80,683,l,{
"Letterink-NibData" = {
AngleInDegrees = 180;
};
}),
(80,-1,l,{
"Letterink-NibData" = {
AngleInDegrees = 90;
};
})
);
}
);
width = 547;
}
);
metricLeft = N.ss01;
userData = {
position = 480;
width = 59;
};
},
{
glyphname = P.swsh;
kernLeft = Swash;
kernRight = P;
layers = (
{
anchors = (
{
name = bottom;
pos = (358,0);
},
{
name = top;
pos = (358,684);
}
);
hints = (
{
name = _corner.caps_swash;
options = 2;
origin = (0,6);
type = Corner;
}
);
layerId = "49C16FD3-6177-408B-A733-AEB3898BB77C";
shapes = (
{
closed = 1;
nodes = (
(544,244,o),
(635,325,o),
(635,465,cs),
(635,593,o),
(554,684,o),
(403,684,cs,{
"Letterink-NibData" = {
AngleInDegrees = 270;
};
}),
(187,684,l,{
"Letterink-NibData" = {
AngleInDegrees = 180;
};
}),
(187,648,l,{
"Letterink-NibData" = {
AngleInDegrees = 90;
};
}),
(389,648,ls,{
"Letterink-NibData" = {
AngleInDegrees = 90;
};
}),
(521,648,o),
(596,584,o),
(596,467,cs,{
"Letterink-NibData" = {
AngleInDegrees = 180;
};
}),
(596,347,o),
(523,279,o),
(395,279,cs,{
"Letterink-NibData" = {
AngleInDegrees = 270;
};
}),
(374,279,o),
(350,281,o),
(326,284,c,{
"Letterink-NibData" = {
AngleInDegrees = 180;
};
}),
(326,249,l,{
"Letterink-NibData" = {
AngleInDegrees = 96.84277;
};
}),
(348,246,o),
(369,244,o),
(386,244,cs,{
"Letterink-NibData" = {
AngleInDegrees = 90;
};
})
);
},
{
closed = 1;
nodes = (
(262,0,l),
(262,569,l,{
"Letterink-NibData" = {
AngleInDegrees = 270;
};
}),
(221,569,l,{
"Letterink-NibData" = {
AngleInDegrees = 180;
};
}),
(221,0,l,{
"Letterink-NibData" = {
AngleInDegrees = 90;
};
})
);
}
);
width = 674;
},
{
anchors = (
{
name = bottom;
pos = (300,0);
},
{
name = top;
pos = (300,684);
}
);
hints = (
{
name = _corner.caps_swash;
origin = (0,6);
type = Corner;
}
);
layerId = m004;
shapes = (
{
closed = 1;
nodes = (
(633,199,o),
(716,316,o),
(716,445,cs),
(716,586,o),
(614,684,o),
(481,684,cs,{
"Letterink-NibData" = {
AngleInDegrees = "270";
};
}),
(235,684,l,{
"Letterink-NibData" = {
AngleInDegrees = "180";
};
}),
(235,536,l),
(460,536,ls,{
"Letterink-NibData" = {
AngleInDegrees = "90";
};
}),
(503,536,o),
(551,509,o),
(551,445,cs,{
"Letterink-NibData" = {
AngleInDegrees = "180";
};
}),
(551,389,o),
(524,350,o),
(480,350,cs,{
"Letterink-NibData" = {
AngleInDegrees = "270";
};
}),
(463,350,o),
(456,351,o),
(438,357,c,{
"Letterink-NibData" = {
AngleInDegrees = "180";
};
}),
(438,208,l,{
"Letterink-NibData" = {
AngleInDegrees = "104.03624";
};
}),
(460,201,o),
(478,199,o),
(509,199,cs,{
"Letterink-NibData" = {
AngleInDegrees = "90";
};
})
);
},
{
closed = 1;
nodes = (
(401,-1,l),
(401,497,l,{
"Letterink-NibData" = {
AngleInDegrees = "90";
};
}),
(236,499,l,{
"Letterink-NibData" = {
AngleInDegrees = "180";
};
}),
(236,-1,l,{
"Letterink-NibData" = {
AngleInDegrees = "90";
};
})
);
}
);
width = 730;
},
{
anchors = (
{
name = bottom;
pos = (366,0);
},
{
name = top;
pos = (382,684);
}
);
hints = (
{
name = _corner.caps_swash;
options = 2;
origin = (0,6);
type = Corner;
}
);
layerId = "BDC4F23E-8387-43BA-9F0D-D808B5DC489D";
shapes = (
{
closed = 1;
nodes = (
(551,229,o),
(658,313,o),
(658,460,cs),
(658,585,o),
(579,685,o),
(438,685,cs,{
"Letterink-NibData" = {
AngleInDegrees = 270;
};
}),
(200,685,l,{
"Letterink-NibData" = {
AngleInDegrees = 180;
};
}),
(200,618,l,{
"Letterink-NibData" = {
AngleInDegrees = 90;
};
}),
(424,618,ls,{
"Letterink-NibData" = {
AngleInDegrees = 90;
};
}),
(525,618,o),
(587,558,o),
(587,460,cs,{
"Letterink-NibData" = {
AngleInDegrees = 180;
};
}),
(587,358,o),
(523,295,o),
(409,295,cs,{
"Letterink-NibData" = {
AngleInDegrees = 270;
};
}),
(385,295,o),
(364,297,o),
(340,302,c,{
"Letterink-NibData" = {
AngleInDegrees = 180;
};
}),
(340,235,l,{
"Letterink-NibData" = {
AngleInDegrees = 96.84277;
};
}),
(359,231,o),
(380,229,o),
(404,229,cs,{
"Letterink-NibData" = {
AngleInDegrees = 90;
};
})
);
},
{
closed = 1;
nodes = (
(297,-1,l),
(297,561,l,{
"Letterink-NibData" = {
AngleInDegrees = 270;
};
}),
(224,561,l,{
"Letterink-NibData" = {
AngleInDegrees = 180;
};
}),
(224,-1,l,{
"Letterink-NibData" = {
AngleInDegrees = 90;
};
})
);
}
);
width = 692;
}
);
metricLeft = E.swsh;
metricRight = P;
userData = {
position = 480;
width = 59;
};
},
{
glyphname = Thorn;
kernRight = O;
layers = (
{
anchors = (
{
name = bottom;
pos = (247,0);
},
{
name = top;
pos = (247,684);
}
);
layerId = "49C16FD3-6177-408B-A733-AEB3898BB77C";
shapes = (
{
closed = 1;
nodes = (
(122,1,l),
(122,523,l,{
"Letterink-NibData" = {
AngleInDegrees = 90;
};
}),
(273,523,ls,{
"Letterink-NibData" = {
AngleInDegrees = 90;
};
}),
(374,523,o),
(442,466,o),
(442,357,cs,{
"Letterink-NibData" = {
AngleInDegrees = 180;
};
}),
(442,233,o),
(353,177,o),
(245,177,cs,{
"Letterink-NibData" = {
AngleInDegrees = 270;
};
}),
(210,177,o),
(199,177,o),
(186,179,c,{
"Letterink-NibData" = {
AngleInDegrees = 180;
};
}),
(186,146,l,{
"Letterink-NibData" = {
AngleInDegrees = 101.30993;
};
}),
(195,144,o),
(221,143,o),
(242,143,cs,{
"Letterink-NibData" = {
AngleInDegrees = 90;
};
}),
(379,143,o),
(479,205,o),
(479,353,cs),
(479,478,o),
(410,552,o),
(292,559,c,{
"Letterink-NibData" = {
AngleInDegrees = 270;
};
}),
(122,559,l),
(122,685,l,{
"Letterink-NibData" = {
AngleInDegrees = 270;
};
}),
(84,685,l,{
"Letterink-NibData" = {
AngleInDegrees = 180;
};
}),
(84,1,l,{
"Letterink-NibData" = {
AngleInDegrees = 90;
};
})
);
}
);
width = 518;
},
{
anchors = (
{
name = bottom;
pos = (280,0);
},
{
name = top;
pos = (280,684);
}
);
layerId = m004;
shapes = (
{
closed = 1;
nodes = (
(227,-1,l),
(227,440,l),
(286,440,ls,{
"Letterink-NibData" = {
AngleInDegrees = "90";
};
}),
(329,440,o),
(377,414,o),
(377,350,cs,{
"Letterink-NibData" = {
AngleInDegrees = "180";
};
}),
(377,294,o),
(350,255,o),
(306,255,cs,{
"Letterink-NibData" = {
AngleInDegrees = "270";
};
}),
(289,255,o),
(282,256,o),
(264,262,c,{
"Letterink-NibData" = {
AngleInDegrees = "180";
};
}),
(264,113,l,{
"Letterink-NibData" = {
AngleInDegrees = "104.03624";
};
}),
(286,106,o),
(304,104,o),
(335,104,cs,{
"Letterink-NibData" = {
AngleInDegrees = "90";
};
}),
(459,104,o),
(542,221,o),
(542,350,cs),
(542,491,o),
(440,588,o),
(307,588,cs,{
"Letterink-NibData" = {
AngleInDegrees = "270";
};
}),
(227,588,l),
(227,683,l,{
"Letterink-NibData" = {
AngleInDegrees = "90";
};
}),
(62,685,l,{
"Letterink-NibData" = {
AngleInDegrees = "180";
};
}),
(62,-1,l,{
"Letterink-NibData" = {
AngleInDegrees = "90";
};
})
);
}
);
width = 556;
},
{
anchors = (
{
name = bottom;
pos = (260,0);
},
{
name = top;
pos = (260,684);
}
);
layerId = "BDC4F23E-8387-43BA-9F0D-D808B5DC489D";
shapes = (
{
closed = 1;
nodes = (
(152,-1,l),
(152,500,l,{
"Letterink-NibData" = {
AngleInDegrees = 90;
};
}),
(279,500,ls,{
"Letterink-NibData" = {
AngleInDegrees = 90;
};
}),
(367,500,o),
(423,451,o),
(423,356,cs,{
"Letterink-NibData" = {
AngleInDegrees = 180;
};
}),
(423,248,o),
(349,201,o),
(253,201,cs,{
"Letterink-NibData" = {
AngleInDegrees = 270;
};
}),
(227,201,o),
(209,203,o),
(186,207,c,{
"Letterink-NibData" = {
AngleInDegrees = 180;
};
}),
(186,140,l,{
"Letterink-NibData" = {
AngleInDegrees = 101.30993;
};
}),
(197,138,o),
(221,135,o),
(250,135,cs,{
"Letterink-NibData" = {
AngleInDegrees = 90;
};
}),
(385,135,o),
(495,201,o),
(495,353,cs),
(495,478,o),
(419,560,o),
(299,567,c,{
"Letterink-NibData" = {
AngleInDegrees = 270;
};
}),
(152,567,l),
(152,686,l,{
"Letterink-NibData" = {
AngleInDegrees = 270;
};
}),
(80,686,l,{
"Letterink-NibData" = {
AngleInDegrees = 180;
};
}),
(80,-1,l,{
"Letterink-NibData" = {
AngleInDegrees = 90;
};
})
);
}
);
width = 529;
}
);
metricLeft = "=|H";
metricRight = P;
unicode = 222;
userData = {
position = 403;
width = 59;
};
},
{
glyphname = Thorn.ss01;
kernRight = O;
layers = (
{
anchors = (
{
name = bottom;
pos = (247,0);
},
{
name = top;
pos = (247,684);
}
);
layerId = "49C16FD3-6177-408B-A733-AEB3898BB77C";
shapes = (
{
closed = 1;
nodes = (
(379,143,o),
(479,205,o),
(479,353,cs),
(479,478,o),
(410,552,o),
(292,559,c,{
"Letterink-NibData" = {
AngleInDegrees = 270;
};
}),
(112,559,l),
(112,523,l),
(273,523,ls,{
"Letterink-NibData" = {
AngleInDegrees = 90;
};
}),
(374,523,o),
(442,466,o),
(442,357,cs,{
"Letterink-NibData" = {
AngleInDegrees = 180;
};
}),
(442,233,o),
(353,177,o),
(245,177,cs,{
"Letterink-NibData" = {
AngleInDegrees = 270;
};
}),
(194,177,o),
(131,174,o),
(114,177,c,{
"Letterink-NibData" = {
AngleInDegrees = 180;
};
}),
(114,144,l,{
"Letterink-NibData" = {
AngleInDegrees = 101.30993;
};
}),
(123,142,o),
(222,143,o),
(242,143,cs,{
"Letterink-NibData" = {
AngleInDegrees = 90;
};
})
);
},
{
closed = 1;
nodes = (
(122,1,l),
(122,685,l,{
"Letterink-NibData" = {
AngleInDegrees = 270;
};
}),
(84,685,l,{
"Letterink-NibData" = {
AngleInDegrees = 180;
};
}),
(84,1,l,{
"Letterink-NibData" = {
AngleInDegrees = 90;
};
})
);
}
);
width = 518;
},
{
anchors = (
{
name = bottom;
pos = (271,0);
},
{
name = top;
pos = (271,684);
}
);
layerId = m004;
shapes = (
{
closed = 1;
nodes = (
(464,102,o),
(542,218,o),
(542,342,cs),
(542,489,o),
(440,586,o),
(307,586,cs,{
"Letterink-NibData" = {
AngleInDegrees = "270";
};
}),
(62,586,l,{
"Letterink-NibData" = {
AngleInDegrees = "180";
};
}),
(62,434,l),
(293,434,ls,{
"Letterink-NibData" = {
AngleInDegrees = "90";
};
}),
(324,434,o),
(377,412,o),
(377,342,cs,{
"Letterink-NibData" = {
AngleInDegrees = "180";
};
}),
(377,297,o),
(348,253,o),
(266,253,cs,{
"Letterink-NibData" = {
AngleInDegrees = "270";
};
}),
(243,253,o),
(212,256,o),
(191,266,c,{
"Letterink-NibData" = {
AngleInDegrees = "180";
};
}),
(191,115,l,{
"Letterink-NibData" = {
AngleInDegrees = "104.03624";
};
}),
(211,108,o),
(253,102,o),
(292,102,cs,{
"Letterink-NibData" = {
AngleInDegrees = "90";
};
})
);
},
{
closed = 1;
nodes = (
(227,-1,l),
(227,684,l,{
"Letterink-NibData" = {
AngleInDegrees = "90";
};
}),
(62,688,l,{
"Letterink-NibData" = {
AngleInDegrees = "180";
};
}),
(62,-1,l,{
"Letterink-NibData" = {
AngleInDegrees = "90";
};
})
);
}
);
width = 556;
},
{
anchors = (
{
name = bottom;
pos = (260,0);
},
{
name = top;
pos = (260,684);
}
);
layerId = "BDC4F23E-8387-43BA-9F0D-D808B5DC489D";
shapes = (
{
closed = 1;
nodes = (
(385,135,o),
(495,201,o),
(495,353,cs),
(495,478,o),
(419,560,o),
(299,567,c,{
"Letterink-NibData" = {
AngleInDegrees = 270;
};
}),
(137,567,l),
(137,500,l),
(279,500,ls,{
"Letterink-NibData" = {
AngleInDegrees = 90;
};
}),
(367,500,o),
(423,451,o),
(423,356,cs,{
"Letterink-NibData" = {
AngleInDegrees = 180;
};
}),
(423,248,o),
(349,201,o),
(253,201,cs,{
"Letterink-NibData" = {
AngleInDegrees = 270;
};
}),
(224,201,o),
(146,199,o),
(123,202,c,{
"Letterink-NibData" = {
AngleInDegrees = 180;
};
}),
(123,136,l,{
"Letterink-NibData" = {
AngleInDegrees = 101.30993;
};
}),
(134,134,o),
(221,135,o),
(250,135,cs,{
"Letterink-NibData" = {
AngleInDegrees = 90;
};
})
);
},
{
closed = 1;
nodes = (
(152,-1,l),
(152,686,l,{
"Letterink-NibData" = {
AngleInDegrees = 270;
};
}),
(80,686,l,{
"Letterink-NibData" = {
AngleInDegrees = 180;
};
}),
(80,-1,l,{
"Letterink-NibData" = {
AngleInDegrees = 90;
};
})
);
}
);
width = 529;
}
);
metricLeft = "=|H";
metricRight = P;
userData = {
position = 403;
width = 59;
};
},
{
glyphname = Q;
kernLeft = O;
kernRight = O;
layers = (
{
anchors = (
{
name = bottom;
pos = (382,0);
},
{
name = top;
pos = (382,684);
}
);
layerId = "49C16FD3-6177-408B-A733-AEB3898BB77C";
shapes = (
{
closed = 1;
nodes = (
(254,-129,l,{
"Letterink-NibData" = {
AngleInDegrees = 108.43495;
};
}),
(291,-134,o),
(328,-153,o),
(365,-165,cs,{
"Letterink-NibData" = {
AngleInDegrees = 108.79988;
};
}),
(414,-181,o),
(450,-188,o),
(496,-188,cs,{
"Letterink-NibData" = {
AngleInDegrees = 90;
};
}),
(528,-188,o),
(561,-180,o),
(601,-151,c,{
"Letterink-NibData" = {
AngleInDegrees = 329.03624;
};
}),
(585,-121,l,{
"Letterink-NibData" = {
AngleInDegrees = 236.30993;
};
}),
(544,-148,o),
(516,-152,o),
(489,-152,cs,{
"Letterink-NibData" = {
AngleInDegrees = 270;
};
}),
(454,-152,o),
(414,-146,o),
(370,-131,cs,{
"Letterink-NibData" = {
AngleInDegrees = 288.62158;
};
}),
(338,-120,o),
(307,-107,o),
(275,-99,c,{
"Letterink-NibData" = {
AngleInDegrees = 34.33965;
};
}),
(351,9,l,{
"Letterink-NibData" = {
AngleInDegrees = 90;
};
}),
(312,16,l,{
"Letterink-NibData" = {
AngleInDegrees = 215.53768;
};
}),
(184,-164,l,{
"Letterink-NibData" = {
AngleInDegrees = 126.57303;
};
}),
(211,-185,l,{
"Letterink-NibData" = {
AngleInDegrees = 33.25437;
};
})
);
},
{
ref = O;
}
);
width = 752;
},
{
anchors = (
{
name = bottom;
pos = (392,0);
},
{
name = top;
pos = (392,684);
}
);
layerId = m004;
shapes = (
{
closed = 1;
nodes = (
(293,-204,l,{
"Letterink-NibData" = {
AngleInDegrees = 108.2394;
};
}),
(313,-211,o),
(336,-219,o),
(354,-224,cs,{
"Letterink-NibData" = {
AngleInDegrees = 107.52557;
};
}),
(384,-232,o),
(422,-245,o),
(487,-245,cs,{
"Letterink-NibData" = {
AngleInDegrees = 90;
};
}),
(553,-245,o),
(605,-226,o),
(685,-171,c,{
"Letterink-NibData" = {
AngleInDegrees = 330.25512;
};
}),
(615,-50,l,{
"Letterink-NibData" = {
AngleInDegrees = 234.34467;
};
}),
(569,-83,o),
(531,-98,o),
(487,-98,cs,{
"Letterink-NibData" = {
AngleInDegrees = 270;
};
}),
(460,-98,o),
(436,-95,o),
(421,-92,cs,{
"Letterink-NibData" = {
AngleInDegrees = 288.43495;
};
}),
(407,-89,o),
(389,-84,o),
(377,-79,c,{
"Letterink-NibData" = {
AngleInDegrees = 34.09498;
};
}),
(482,67,l,{
"Letterink-NibData" = {
AngleInDegrees = 90;
};
}),
(319,94,l,{
"Letterink-NibData" = {
AngleInDegrees = 215.43331;
};
}),
(127,-171,l,{
"Letterink-NibData" = {
AngleInDegrees = 128.07278;
};
}),
(250,-265,l,{
"Letterink-NibData" = {
AngleInDegrees = 34.74318;
};
})
);
},
{
ref = O;
}
);
width = 778;
},
{
anchors = (
{
name = bottom;
pos = (387,0);
},
{
name = top;
pos = (387,684);
}
);
layerId = "BDC4F23E-8387-43BA-9F0D-D808B5DC489D";
shapes = (
{
closed = 1;
nodes = (
(273,-135,l,{
"Letterink-NibData" = {
AngleInDegrees = 108.43495;
};
}),
(305,-141,o),
(335,-155,o),
(367,-166,cs,{
"Letterink-NibData" = {
AngleInDegrees = 108.79988;
};
}),
(408,-179,o),
(442,-188,o),
(496,-188,cs,{
"Letterink-NibData" = {
AngleInDegrees = 90;
};
}),
(533,-188,o),
(574,-177,o),
(618,-141,c,{
"Letterink-NibData" = {
AngleInDegrees = 329.03624;
};
}),
(587,-85,l,{
"Letterink-NibData" = {
AngleInDegrees = 236.30993;
};
}),
(542,-117,o),
(520,-123,o),
(490,-123,cs,{
"Letterink-NibData" = {
AngleInDegrees = 270;
};
}),
(458,-123,o),
(421,-116,o),
(382,-103,cs,{
"Letterink-NibData" = {
AngleInDegrees = 288.62158;
};
}),
(358,-95,o),
(335,-84,o),
(312,-80,c,{
"Letterink-NibData" = {
AngleInDegrees = 34.33965;
};
}),
(370,5,l,{
"Letterink-NibData" = {
AngleInDegrees = 90;
};
}),
(300,17,l,{
"Letterink-NibData" = {
AngleInDegrees = 215.53768;
};
}),
(178,-155,l,{
"Letterink-NibData" = {
AngleInDegrees = 126.57303;
};
}),
(230,-196,l,{
"Letterink-NibData" = {
AngleInDegrees = 33.25437;
};
})
);
},
{
ref = O;
}
);
width = 768;
}
);
metricLeft = O;
metricRight = O;
unicode = 81;
userData = {
position = 652;
width = 60;
};
},
{
glyphname = Q.swsh;
kernLeft = O;
kernRight = O;
layers = (
{
anchors = (
{
name = bottom;
pos = (375,0);
},
{
name = top;
pos = (375,684);
}
);
layerId = "49C16FD3-6177-408B-A733-AEB3898BB77C";
shapes = (
{
closed = 1;
nodes = (
(647,-256,o),
(730,-148,o),
(674,-62,cs),
(638,-8,o),
(550,-3,o),
(513,-57,c),
(542,-79,l),
(569,-42,o),
(618,-45,o),
(642,-82,cs),
(682,-143,o),
(624,-225,o),
(542,-222,cs),
(430,-218,o),
(372,-101,o),
(226,-120,c),
(232,-155,l),
(361,-139,o),
(427,-260,o),
(551,-258,cs)
);
},
{
closed = 1;
nodes = (
(344,-1,l,{
"Letterink-NibData" = {
AngleInDegrees = 90;
};
}),
(312,6,l,{
"Letterink-NibData" = {
AngleInDegrees = 215.53768;
};
}),
(180,-179,l,{
"Letterink-NibData" = {
AngleInDegrees = 126.57303;
};
}),
(208,-199,l,{
"Letterink-NibData" = {
AngleInDegrees = 33.25437;
};
})
);
},
{
ref = O;
}
);
width = 752;
},
{
anchors = (
{
name = bottom;
pos = (370,0);
},
{
name = top;
pos = (370,684);
}
);
layerId = m004;
shapes = (
{
closed = 1;
nodes = (
(663,-318,o),
(755,-186,o),
(688,-79,cs),
(641,-3,o),
(525,16,o),
(463,-70,c),
(547,-150,l),
(551,-140,o),
(565,-141,o),
(568,-149,cs),
(575,-165,o),
(559,-177,o),
(541,-176,cs),
(429,-172,o),
(403,-61,o),
(251,-95,c),
(265,-218,l),
(350,-211,o),
(399,-308,o),
(526,-313,cs)
);
},
{
closed = 1;
nodes = (
(467,67,l,{
"Letterink-NibData" = {
AngleInDegrees = "90";
};
}),
(304,94,l,{
"Letterink-NibData" = {
AngleInDegrees = "215.43331";
};
}),
(112,-171,l,{
"Letterink-NibData" = {
AngleInDegrees = "128.07278";
};
}),
(235,-265,l,{
"Letterink-NibData" = {
AngleInDegrees = "34.74318";
};
})
);
},
{
ref = O;
}
);
width = 778;
},
{
anchors = (
{
name = bottom;
pos = (387,0);
},
{
name = top;
pos = (387,684);
}
);
layerId = "BDC4F23E-8387-43BA-9F0D-D808B5DC489D";
shapes = (
{
closed = 1;
nodes = (
(672,-270,o),
(757,-153,o),
(697,-60,cs),
(658,-2,o),
(561,4,o),
(513,-52,c),
(562,-95,l),
(585,-69,o),
(620,-70,o),
(637,-97,cs),
(670,-148,o),
(625,-202,o),
(555,-199,cs),
(458,-196,o),
(411,-78,o),
(245,-102,c),
(254,-164,l),
(397,-147,o),
(430,-265,o),
(555,-266,cs)
);
},
{
closed = 1;
nodes = (
(370,3,l,{
"Letterink-NibData" = {
AngleInDegrees = 90;
};
}),
(301,14,l,{
"Letterink-NibData" = {
AngleInDegrees = 215.53768;
};
}),
(178,-158,l,{
"Letterink-NibData" = {
AngleInDegrees = 126.57303;
};
}),
(231,-199,l,{
"Letterink-NibData" = {
AngleInDegrees = 33.25437;
};
})
);
},
{
ref = O;
}
);
width = 768;
}
);
metricLeft = O;
metricRight = O;
userData = {
position = 652;
width = 60;
};
},
{
glyphname = R;
kernLeft = E;
kernRight = R;
layers = (
{
anchors = (
{
name = bottom;
pos = (319,0);
},
{
name = top;
pos = (315,684);
}
);
hints = (
{
name = _corner.caps_left;
origin = (0,25);
type = Corner;
}
);
layerId = "49C16FD3-6177-408B-A733-AEB3898BB77C";
shapes = (
{
closed = 1;
nodes = (
(605,-9,o),
(628,11,o),
(637,29,c,{
"Letterink-NibData" = {
AngleInDegrees = 304.11447;
};
}),
(611,50,l,{
"Letterink-NibData" = {
AngleInDegrees = 225;
};
}),
(605,38,o),
(589,26,o),
(576,26,cs,{
"Letterink-NibData" = {
AngleInDegrees = 270;
};
}),
(561,26,o),
(551,36,o),
(543,47,cs,{
"Letterink-NibData" = {
AngleInDegrees = 323.49856;
};
}),
(496,111,o),
(473,184,o),
(417,251,cs,{
"Letterink-NibData" = {
AngleInDegrees = 322.59464;
};
}),
(396,276,o),
(387,282,o),
(357,293,c,{
"Letterink-NibData" = {
AngleInDegrees = 90;
};
}),
(370,293,o),
(383,293,o),
(396,293,cs,{
"Letterink-NibData" = {
AngleInDegrees = 90;
};
}),
(488,291,o),
(566,373,o),
(566,483,cs),
(566,598,o),
(488,685,o),
(373,685,cs,{
"Letterink-NibData" = {
AngleInDegrees = 269.73838;
};
}),
(155,685,l,{
"Letterink-NibData" = {
AngleInDegrees = 180;
};
}),
(155,1,l,{
"Letterink-NibData" = {
AngleInDegrees = 90;
};
}),
(193,1,l),
(193,649,l,{
"Letterink-NibData" = {
AngleInDegrees = 90;
};
}),
(369,649,ls,{
"Letterink-NibData" = {
AngleInDegrees = 90;
};
}),
(460,649,o),
(528,577,o),
(528,483,cs,{
"Letterink-NibData" = {
AngleInDegrees = 180;
};
}),
(528,386,o),
(466,321,o),
(358,321,cs,{
"Letterink-NibData" = {
AngleInDegrees = 270;
};
}),
(267,321,l,{
"Letterink-NibData" = {
AngleInDegrees = 180;
};
}),
(267,288,l,{
"Letterink-NibData" = {
AngleInDegrees = 97.30576;
};
}),
(346,283,o),
(387,235,o),
(415,196,cs,{
"Letterink-NibData" = {
AngleInDegrees = 143.79054;
};
}),
(460,135,o),
(468,89,o),
(514,27,cs,{
"Letterink-NibData" = {
AngleInDegrees = 143.84181;
};
}),
(533,1,o),
(554,-9,o),
(577,-9,cs,{
"Letterink-NibData" = {
AngleInDegrees = 90;
};
})
);
}
);
width = 657;
},
{
anchors = (
{
name = bottom;
pos = (421,-10);
},
{
name = top;
pos = (404,684);
}
);
hints = (
{
name = _corner.caps_left;
origin = (0,25);
type = Corner;
}
);
layerId = m004;
shapes = (
{
closed = 1;
nodes = (
(688,-27,o),
(732,3,o),
(756,43,c,{
"Letterink-NibData" = {
AngleInDegrees = "330.25512";
};
}),
(664,128,l,{
"Letterink-NibData" = {
AngleInDegrees = "225";
};
}),
(660,124,o),
(658,122,o),
(651,122,cs,{
"Letterink-NibData" = {
AngleInDegrees = "270";
};
}),
(636,122,o),
(624,134,o),
(610,158,cs,{
"Letterink-NibData" = {
AngleInDegrees = "321.54629";
};
}),
(592,190,o),
(592,214,o),
(573,245,cs,{
"Letterink-NibData" = {
AngleInDegrees = "321.07246";
};
}),
(556,272,o),
(541,287,o),
(502,301,c,{
"Letterink-NibData" = {
AngleInDegrees = "90";
};
}),
(518,301,o),
(541,304,o),
(559,309,cs),
(642,332,o),
(687,405,o),
(687,488,cs),
(687,601,o),
(599,684,o),
(461,684,cs,{
"Letterink-NibData" = {
AngleInDegrees = "270";
};
}),
(178,684,l,{
"Letterink-NibData" = {
AngleInDegrees = "180";
};
}),
(174,0,l),
(339,0,l),
(343,536,l),
(430,536,ls,{
"Letterink-NibData" = {
AngleInDegrees = "90";
};
}),
(493,536,o),
(522,513,o),
(522,463,cs,{
"Letterink-NibData" = {
AngleInDegrees = "180";
};
}),
(522,416,o),
(492,389,o),
(426,389,cs,{
"Letterink-NibData" = {
AngleInDegrees = "270";
};
}),
(385,389,l,{
"Letterink-NibData" = {
AngleInDegrees = "180";
};
}),
(385,242,l,{
"Letterink-NibData" = {
AngleInDegrees = "91.4688";
};
}),
(396,242,o),
(418,207,o),
(435,178,cs,{
"Letterink-NibData" = {
AngleInDegrees = "143.88701";
};
}),
(461,134,o),
(492,52,o),
(510,31,cs,{
"Letterink-NibData" = {
AngleInDegrees = "143.47114";
};
}),
(535,1,o),
(571,-27,o),
(641,-27,cs,{
"Letterink-NibData" = {
AngleInDegrees = "90";
};
})
);
}
);
width = 751;
},
{
anchors = (
{
name = bottom;
pos = (344,0);
},
{
name = top;
pos = (334,684);
}
);
hints = (
{
name = _corner.caps_left;
origin = (0,25);
type = Corner;
}
);
layerId = "BDC4F23E-8387-43BA-9F0D-D808B5DC489D";
shapes = (
{
closed = 1;
nodes = (
(617,-14,o),
(644,6,o),
(659,32,c,{
"Letterink-NibData" = {
AngleInDegrees = 304.11447;
};
}),
(609,70,l,{
"Letterink-NibData" = {
AngleInDegrees = 225;
};
}),
(604,61,o),
(595,53,o),
(585,53,cs,{
"Letterink-NibData" = {
AngleInDegrees = 270;
};
}),
(576,53,o),
(568,59,o),
(563,66,cs,{
"Letterink-NibData" = {
AngleInDegrees = 323.49856;
};
}),
(526,118,o),
(512,178,o),
(475,229,cs,{
"Letterink-NibData" = {
AngleInDegrees = 322.59464;
};
}),
(453,260,o),
(433,282,o),
(407,290,c,{
"Letterink-NibData" = {
AngleInDegrees = 90;
};
}),
(430,290,o),
(456,294,o),
(473,303,cs,{
"Letterink-NibData" = {
AngleInDegrees = 90;
};
}),
(545,334,o),
(594,397,o),
(594,476,cs),
(594,593,o),
(512,686,o),
(388,686,cs,{
"Letterink-NibData" = {
AngleInDegrees = 269.73838;
};
}),
(161,686,l,{
"Letterink-NibData" = {
AngleInDegrees = 180;
};
}),
(161,-1,l,{
"Letterink-NibData" = {
AngleInDegrees = 90;
};
}),
(233,-1,l),
(233,620,l,{
"Letterink-NibData" = {
AngleInDegrees = 90;
};
}),
(384,620,ls,{
"Letterink-NibData" = {
AngleInDegrees = 90;
};
}),
(465,620,o),
(522,559,o),
(522,476,cs,{
"Letterink-NibData" = {
AngleInDegrees = 180;
};
}),
(522,392,o),
(465,340,o),
(373,340,cs,{
"Letterink-NibData" = {
AngleInDegrees = 270;
};
}),
(294,340,l,{
"Letterink-NibData" = {
AngleInDegrees = 180;
};
}),
(294,277,l,{
"Letterink-NibData" = {
AngleInDegrees = 97.30576;
};
}),
(365,273,o),
(381,240,o),
(415,193,cs,{
"Letterink-NibData" = {
AngleInDegrees = 143.79054;
};
}),
(454,140,o),
(466,82,o),
(506,27,cs,{
"Letterink-NibData" = {
AngleInDegrees = 143.84181;
};
}),
(527,-2,o),
(555,-14,o),
(583,-14,cs,{
"Letterink-NibData" = {
AngleInDegrees = 90;
};
})
);
}
);
width = 676;
}
);
metricLeft = E;
unicode = 82;
userData = {
position = 619;
width = 57;
};
},
